<?xml version="1.0" encoding="UTF-8"?>
<svg xmlns="http://www.w3.org/2000/svg" xmlns:xlink="http://www.w3.org/1999/xlink" version="1.2" >
<font id="Futura PT Medium Oblique">
<font-face  font-family="Futura PT Medium Italic" units-per-em="1000" ascent="763" descent="-237" font-style="normal" font-weight="400" font-stretch="normal" slope="-7" cap-height="667" x-height="421" underline-position="-75" underline-thickness="50" />
<missing-glyph  horiz-adv-x="233" d="" />
<glyph glyph-name="NULL" d="" />
<glyph glyph-name="CR" unicode="&#xd;" horiz-adv-x="250" d="" />
<glyph glyph-name="space" unicode="&#x20;" horiz-adv-x="233" d="" />
<glyph glyph-name="exclam" unicode="&#x21;" horiz-adv-x="254" d="M197 165 L259 667 L161 667 L99 165 L197 165 Z M72 42 C72 27 77 12 88 2 C98 -8 114 -12 128 -12 C146 -12 163 -5 174 6 C187 19 194 36 194 53 C194 68 189 83 178 93 C170 101 158 108 139 108 C117 108 100 99 90 88 C79 76 72 59 72 42 L72 42 Z " />
<glyph glyph-name="quotedbl" unicode="&#x22;" horiz-adv-x="366" d="M238 667 L130 667 L115 399 L187 399 L238 667 Z M400 667 L292 667 L277 399 L349 399 L400 667 Z " />
<glyph glyph-name="numbersign" unicode="&#x23;" horiz-adv-x="600" d="M407 0 L462 196 L570 196 L595 284 L487 284 L519 396 L627 396 L651 484 L543 484 L595 667 L497 667 L445 484 L331 484 L383 667 L285 667 L233 484 L125 484 L101 396 L209 396 L177 284 L69 284 L44 196 L152 196 L97 0 L195 0 L250 196 L364 196 L309 0 L407 0 Z M389 284 L275 284 L307 396 L421 396 L389 284 Z " />
<glyph glyph-name="dollar" unicode="&#x24;" horiz-adv-x="568" d="M546 567 C536 597 519 622 491 642 C471 657 443 671 409 676 L419 765 L345 765 L335 677 C275 670 234 641 209 615 C173 577 156 528 156 486 C156 446 172 412 193 388 C216 363 248 346 272 335 L323 312 C345 302 372 290 391 270 C407 253 417 234 417 208 C417 174 405 142 387 121 C367 98 337 81 292 81 C255 81 231 96 215 116 C196 140 192 176 192 206 L89 184 C91 120 118 66 151 34 C171 15 204 -6 251 -11 L238 -110 L312 -110 L325 -10 C361 -7 413 5 459 54 C500 98 520 153 520 219 C520 260 512 295 485 328 C470 347 444 370 401 389 L347 413 C322 424 303 429 282 448 C268 461 258 476 258 499 C258 523 270 545 286 559 C300 571 323 585 361 585 C370 585 404 584 428 566 C442 555 453 538 458 519 L546 567 Z " />
<glyph glyph-name="percent" unicode="&#x25;" horiz-adv-x="810" d="M193 18 L237 -11 L699 651 L655 678 L193 18 Z M644 307 C593 307 552 289 521 257 C489 224 471 180 471 139 C471 103 484 64 513 35 C547 1 587 -7 627 -7 C672 -7 711 4 746 38 C780 72 796 118 796 161 C796 204 779 240 756 263 C738 281 703 307 644 307 L644 307 Z M629 65 C603 65 585 74 573 86 C559 100 551 120 551 142 C551 168 561 193 577 209 C592 225 615 235 641 235 C661 235 681 228 694 216 C710 202 718 179 718 159 C718 135 708 107 691 90 C680 78 660 65 629 65 L629 65 Z M268 673 C217 673 176 655 145 623 C113 590 95 546 95 505 C95 469 108 430 137 401 C171 367 212 359 250 359 C294 359 334 370 370 405 C404 438 420 483 420 527 C420 570 403 605 380 629 C362 647 327 673 268 673 L268 673 Z M253 431 C227 431 209 440 197 452 C183 466 175 486 175 508 C175 534 185 559 201 575 C216 591 239 601 265 601 C285 601 305 594 318 582 C334 568 342 545 342 525 C342 501 332 473 315 456 C304 444 284 431 253 431 L253 431 Z " />
<glyph glyph-name="ampersand" unicode="&#x26;" horiz-adv-x="646" d="M575 313 L489 227 L389 371 L425 395 C452 413 473 426 494 454 C512 478 522 504 522 538 C522 585 504 618 482 639 C450 670 412 679 377 679 C314 679 272 657 245 629 C220 603 200 566 200 516 C200 476 213 445 230 419 L251 387 L230 374 C202 357 166 338 134 306 C97 268 75 221 75 163 C75 103 99 62 124 37 C153 8 200 -13 259 -13 C301 -13 347 -2 383 18 C410 33 445 62 466 82 L522 0 L646 0 L542 154 L632 245 L575 313 Z M414 154 C394 133 371 114 346 98 C325 85 301 73 267 73 C238 73 217 84 200 102 C185 118 175 139 175 165 C175 194 184 227 217 259 C239 280 277 302 302 314 L414 154 Z M338 442 L313 478 C304 490 297 505 297 527 C297 549 306 565 315 574 C329 588 351 595 368 595 C380 595 397 591 408 582 C418 574 427 560 427 542 C427 528 423 514 414 501 C402 484 387 473 374 465 L338 442 Z " />
<glyph glyph-name="quotesingle" unicode="&#x27;" horiz-adv-x="204" d="M238 667 L130 667 L115 399 L187 399 L238 667 Z " />
<glyph glyph-name="parenleft" unicode="&#x28;" horiz-adv-x="329" d="M249 -142 C213 -29 205 62 205 148 C205 199 209 332 265 497 C286 559 325 648 353 705 L267 740 C224 665 193 593 168 520 C108 343 104 187 104 127 C104 41 118 -67 154 -177 L249 -142 Z " />
<glyph glyph-name="parenright" unicode="&#x29;" horiz-adv-x="329" d="M146 705 C183 590 191 528 191 447 C191 348 182 224 131 63 C109 -6 82 -72 42 -142 L127 -177 C173 -103 200 -39 226 40 C284 217 292 343 292 450 C292 523 287 606 240 740 L146 705 Z " />
<glyph glyph-name="asterisk" unicode="&#x2a;" horiz-adv-x="550" d="M216 655 L181 581 L291 553 L204 465 L258 418 L335 515 L386 418 L452 465 L391 555 L509 583 L494 655 L380 611 L404 729 L326 729 L317 610 L216 655 Z " />
<glyph glyph-name="plus" unicode="&#x2b;" horiz-adv-x="500" d="M75 291 L245 291 L245 121 L339 121 L339 291 L509 291 L509 381 L339 381 L339 551 L245 551 L245 381 L75 381 L75 291 Z " />
<glyph glyph-name="comma" unicode="&#x2c;" horiz-adv-x="320" d="M-6 -129 L57 -156 L211 91 L127 125 L-6 -129 Z " />
<glyph glyph-name="hyphen" unicode="&#x2d;" horiz-adv-x="340" d="M70 162 L310 162 L322 264 L82 264 L70 162 Z " />
<glyph glyph-name="period" unicode="&#x2e;" horiz-adv-x="252" d="M71 42 C71 27 76 12 87 2 C97 -8 113 -12 127 -12 C145 -12 162 -5 173 6 C186 19 193 36 193 53 C193 68 188 83 177 93 C169 101 157 108 138 108 C116 108 99 99 89 88 C78 76 71 59 71 42 L71 42 Z " />
<glyph glyph-name="slash" unicode="&#x2f;" horiz-adv-x="687" d="M-18 -177 L60 -213 L695 729 L617 765 L-18 -177 Z " />
<glyph glyph-name="zero" unicode="0" horiz-adv-x="568" d="M287 -11 C352 -11 398 7 448 57 C519 129 566 239 566 414 C566 475 557 567 491 629 C455 663 414 678 367 678 C303 678 252 657 206 611 C109 516 84 360 84 256 C84 204 92 116 147 51 C183 8 224 -11 287 -11 L287 -11 Z M356 588 C379 588 398 582 416 566 C461 525 465 441 465 401 C465 317 441 182 375 115 C350 90 326 80 293 80 C269 80 251 85 232 104 C190 146 185 215 185 264 C185 369 218 495 274 552 C295 574 321 588 356 588 L356 588 Z " />
<glyph glyph-name="one" unicode="1" horiz-adv-x="568" d="M250 0 L352 0 L434 667 L272 667 L204 573 L320 573 L250 0 Z " />
<glyph glyph-name="two" unicode="2" horiz-adv-x="568" d="M494 94 L245 94 L364 217 C388 242 458 316 486 353 C518 396 541 443 541 502 C541 561 516 602 485 629 C439 670 382 678 337 678 C288 678 225 669 174 613 C142 578 118 523 110 467 L208 467 C212 500 228 537 249 558 C264 572 290 588 331 588 C371 588 395 574 408 563 C421 552 440 529 440 491 C440 447 417 412 392 381 C372 357 346 330 299 280 L34 0 L482 0 L494 94 Z " />
<glyph glyph-name="three" unicode="3" horiz-adv-x="568" d="M227 497 C234 538 258 561 261 564 C284 585 311 588 332 588 C350 588 377 586 398 568 C415 554 428 530 428 499 C428 473 418 441 400 423 C375 398 339 396 310 396 L289 396 L278 310 L291 310 C334 310 355 299 362 294 C398 271 401 230 401 211 C401 151 374 120 363 109 C335 82 303 79 277 79 C253 79 222 83 199 106 C180 124 169 154 168 181 L70 181 C72 124 95 74 125 42 C169 -4 221 -11 274 -11 C324 -11 386 -6 440 48 C472 80 503 133 503 217 C503 246 499 271 482 299 C467 323 448 338 427 348 C444 354 476 370 499 407 C516 433 526 469 526 507 C526 563 506 603 479 629 C434 673 372 678 340 678 C295 678 234 670 187 620 C158 589 137 542 129 497 L227 497 Z " />
<glyph glyph-name="four" unicode="4" horiz-adv-x="568" d="M532 716 L31 126 L362 126 L346 0 L444 0 L460 126 L532 126 L543 220 L471 220 L532 716 Z M226 220 L398 427 L373 220 L226 220 Z " />
<glyph glyph-name="five" unicode="5" horiz-adv-x="568" d="M557 667 L281 667 L139 330 C197 366 240 374 278 374 C321 374 353 362 373 344 C393 327 415 293 415 237 C415 185 397 144 372 119 C356 104 322 79 261 79 C229 79 199 87 176 101 C153 115 133 138 121 160 L46 100 C68 63 96 39 120 24 C163 -3 209 -11 260 -11 C315 -11 386 -3 445 57 C481 93 517 156 517 253 C517 299 507 360 460 406 C426 440 376 460 322 460 C312 460 302 459 292 458 L339 573 L545 573 L557 667 Z " />
<glyph glyph-name="six" unicode="6" horiz-adv-x="568" d="M450 690 L233 462 C195 423 158 384 133 344 C120 323 89 270 89 204 C89 151 108 92 155 47 C200 4 251 -11 313 -11 C384 -11 442 9 491 56 C535 98 563 155 563 231 C563 300 536 346 509 373 C474 409 418 433 361 433 C352 433 343 432 334 431 L524 635 L450 690 Z M339 351 C378 351 406 339 425 322 C448 302 463 273 463 231 C463 182 443 145 418 120 C394 97 359 79 317 79 C272 79 243 98 227 115 C208 135 192 165 192 204 C192 244 206 281 233 309 C253 329 286 351 339 351 L339 351 Z " />
<glyph glyph-name="seven" unicode="7" horiz-adv-x="568" d="M81 27 L157 -23 L632 667 L136 667 L124 573 L450 573 L81 27 Z " />
<glyph glyph-name="eight" unicode="8" horiz-adv-x="568" d="M435 347 C470 359 497 382 513 406 C526 426 539 456 539 501 C539 551 524 595 487 630 C450 665 407 678 358 678 C293 678 243 659 201 613 C168 576 150 534 150 480 C150 448 156 420 176 394 C187 379 203 365 219 355 C176 342 146 316 128 291 C101 254 95 213 95 182 C95 129 108 80 151 39 C194 -1 240 -11 292 -11 C342 -11 404 -4 455 45 C494 82 519 142 519 211 C519 242 513 269 495 296 C486 309 468 331 435 347 L435 347 Z M336 387 C313 387 288 393 268 414 C251 431 242 455 242 479 C242 509 254 538 272 556 C290 574 321 588 352 588 C374 588 401 580 418 564 C431 552 446 531 446 497 C446 467 437 437 416 416 C404 404 379 387 336 387 L336 387 Z M297 79 C269 79 244 86 222 110 C201 134 196 161 196 184 C196 208 201 243 230 271 C246 286 273 303 315 303 C349 303 374 291 390 274 C412 251 417 224 417 203 C417 162 402 131 384 112 C357 84 323 79 297 79 L297 79 Z " />
<glyph glyph-name="nine" unicode="9" horiz-adv-x="568" d="M251 -23 L469 210 C517 261 547 297 568 330 C602 384 612 433 612 474 C612 526 593 580 559 615 C520 656 455 678 390 678 C316 678 251 649 206 605 C166 565 137 507 137 435 C137 368 166 319 196 288 C232 251 280 229 331 229 C341 229 352 230 362 232 L177 32 L251 -23 Z M364 316 C329 316 296 330 275 350 C259 365 239 393 239 441 C239 492 260 529 284 551 C312 577 348 588 382 588 C420 588 452 574 473 554 C494 534 510 504 510 461 C510 404 483 369 465 353 C440 330 404 316 364 316 L364 316 Z " />
<glyph glyph-name="colon" unicode="&#x3a;" horiz-adv-x="254" d="M72 41 C72 26 77 11 88 1 C98 -9 114 -13 128 -13 C146 -13 163 -6 174 5 C187 18 194 35 194 52 C194 67 189 82 178 92 C170 100 158 107 139 107 C117 107 100 98 90 87 C79 75 72 58 72 41 L72 41 Z M112 366 C112 351 117 336 128 326 C138 316 154 312 168 312 C186 312 203 319 214 330 C227 343 234 360 234 377 C234 392 229 407 218 417 C210 425 198 432 179 432 C157 432 140 423 130 412 C119 400 112 383 112 366 L112 366 Z " />
<glyph glyph-name="semicolon" unicode="&#x3b;" horiz-adv-x="321" d="M-6 -129 L57 -156 L211 91 L127 125 L-6 -129 Z M135 366 C135 351 140 336 151 326 C161 316 177 312 191 312 C209 312 226 319 237 330 C250 343 257 360 257 377 C257 392 252 407 241 417 C233 425 221 432 202 432 C180 432 163 423 153 412 C142 400 135 383 135 366 L135 366 Z " />
<glyph glyph-name="less" unicode="&#x3c;" horiz-adv-x="500" d="M191 332 L521 488 L521 584 L87 373 L87 291 L521 80 L521 176 L191 332 Z " />
<glyph glyph-name="equal" unicode="&#x3d;" horiz-adv-x="500" d="M75 380 L509 380 L509 464 L75 464 L75 380 Z M75 218 L509 218 L509 302 L75 302 L75 218 Z " />
<glyph glyph-name="greater" unicode="&#x3e;" horiz-adv-x="500" d="M391 332 L61 176 L61 80 L495 291 L495 373 L61 584 L61 488 L391 332 Z " />
<glyph glyph-name="question" unicode="&#x3f;" horiz-adv-x="436" d="M219 485 L219 493 C219 508 220 543 237 565 C249 581 266 589 290 589 C316 589 329 578 333 573 C341 564 347 550 347 533 C347 512 340 494 328 481 C310 462 278 453 241 440 C212 430 171 415 142 384 C121 362 103 328 103 285 C103 237 124 207 141 191 C171 162 208 156 244 156 C277 156 324 162 360 199 C388 228 404 274 405 314 L307 314 C306 298 300 273 289 261 C280 252 266 246 250 246 C236 246 222 250 214 259 C208 265 203 275 203 289 C203 321 227 337 247 346 C257 351 268 354 279 358 C289 361 299 365 309 369 L330 378 C359 390 400 415 421 446 C436 468 447 499 447 541 C447 571 440 609 409 639 C373 674 325 679 296 679 C230 679 191 656 169 634 C136 601 117 547 117 494 L117 485 L219 485 Z M164 41 C164 26 169 11 180 1 C190 -9 206 -13 220 -13 C238 -13 255 -6 266 5 C279 18 286 35 286 52 C286 67 281 82 270 92 C262 100 250 107 231 107 C209 107 192 98 182 87 C171 75 164 58 164 41 L164 41 Z " />
<glyph glyph-name="at" unicode="&#x40;" horiz-adv-x="732" d="M528 439 C521 455 511 470 494 482 C471 499 448 503 424 503 C370 503 328 483 295 450 C250 406 229 341 229 286 C229 241 244 202 269 177 C286 160 315 142 361 142 C396 142 423 153 440 164 C464 179 478 198 485 210 C487 190 497 176 505 168 C521 153 541 148 561 148 C595 148 636 161 674 198 C737 261 747 353 747 402 C747 513 694 575 670 599 C627 641 556 677 452 677 C336 677 248 634 185 570 C121 505 72 407 72 280 C72 198 95 128 157 69 C227 3 308 -12 389 -12 C499 -12 574 14 607 27 L598 89 C526 60 448 48 390 48 C296 48 235 84 202 118 C161 159 136 222 136 291 C136 376 171 465 225 522 C281 582 361 617 450 617 C521 617 581 593 621 554 C651 524 682 474 682 396 C682 341 664 265 621 227 C603 211 585 205 568 205 C559 205 551 207 544 215 C539 221 536 230 536 239 C536 249 539 260 545 278 L612 491 L544 491 L528 439 Z M379 212 C363 212 345 215 330 229 C318 240 307 260 307 290 C307 331 324 372 348 398 C374 426 404 433 426 433 C451 433 467 424 476 414 C488 401 497 381 497 355 C497 318 480 268 449 239 C428 219 406 212 379 212 L379 212 Z " />
<glyph glyph-name="A" unicode="A" horiz-adv-x="656" d="M544 0 L652 0 L423 706 L4 0 L116 0 L209 161 L494 161 L544 0 Z M263 257 L393 483 L465 257 L263 257 Z " />
<glyph glyph-name="B" unicode="B" horiz-adv-x="526" d="M162 667 L80 0 L179 0 L236 0 C300 0 390 4 450 67 C477 95 503 142 503 213 C503 244 497 275 474 305 C467 314 444 342 401 357 C433 374 451 398 460 415 C476 445 479 477 479 502 C479 544 469 582 437 615 C396 656 337 667 263 667 L162 667 Z M252 571 L280 571 C303 571 339 568 361 546 C372 535 383 516 383 488 C383 454 369 424 350 407 C335 394 308 380 260 380 L229 380 L252 571 Z M218 296 L282 296 C312 296 348 293 374 272 C389 260 404 240 404 207 C404 175 391 147 373 130 C341 100 294 96 256 96 L194 96 L218 296 Z " />
<glyph glyph-name="C" unicode="C" horiz-adv-x="622" d="M653 631 C582 666 524 679 463 679 C361 679 272 648 199 577 C135 514 89 424 89 301 C89 202 120 128 178 70 C244 4 317 -13 397 -13 C444 -13 500 -7 581 37 L595 158 C560 128 495 81 406 81 C338 81 287 103 249 144 C217 178 191 229 191 301 C191 391 226 470 275 517 C322 562 386 585 456 585 C500 585 576 574 639 511 L653 631 Z " />
<glyph glyph-name="D" unicode="D" horiz-adv-x="646" d="M162 667 L80 0 L182 0 L204 0 C313 0 449 10 545 106 C622 183 639 277 639 366 C639 435 629 517 558 584 C480 658 377 667 302 667 L162 667 Z M252 571 L296 571 C343 571 427 568 482 512 C514 479 537 425 537 352 C537 256 499 202 481 181 C412 100 305 96 238 96 L194 96 L252 571 Z " />
<glyph glyph-name="E" unicode="E" horiz-adv-x="500" d="M530 667 L162 667 L80 0 L448 0 L460 96 L194 96 L220 306 L478 306 L490 402 L232 402 L252 571 L518 571 L530 667 Z " />
<glyph glyph-name="F" unicode="F" horiz-adv-x="450" d="M496 667 L162 667 L80 0 L182 0 L220 306 L444 306 L456 402 L232 402 L252 571 L484 571 L496 667 Z " />
<glyph glyph-name="G" unicode="G" horiz-adv-x="751" d="M459 253 L625 253 C612 191 580 154 558 134 C515 95 465 81 410 81 C327 81 280 116 255 141 C218 179 192 242 192 308 C192 378 217 454 274 510 C314 550 376 585 465 585 C508 585 549 575 587 551 C613 534 641 506 660 480 L742 541 C715 578 678 613 637 638 C585 669 535 679 475 679 C362 679 271 642 202 574 C132 505 89 404 89 298 C89 188 136 117 176 76 C243 6 318 -13 398 -13 C477 -13 564 3 636 74 C718 155 741 279 746 347 L471 347 L459 253 Z " />
<glyph glyph-name="H" unicode="H" horiz-adv-x="650" d="M264 667 L162 667 L80 0 L182 0 L220 307 L506 307 L468 0 L570 0 L652 667 L550 667 L518 403 L232 403 L264 667 Z " />
<glyph glyph-name="I" unicode="I" horiz-adv-x="262" d="M162 667 L80 0 L182 0 L264 667 L162 667 Z " />
<glyph glyph-name="J" unicode="J" horiz-adv-x="359" d="M259 667 L206 235 C198 173 189 128 165 105 C151 92 129 83 106 83 C86 83 61 89 42 107 L-15 23 C26 -8 67 -13 106 -13 C143 -13 195 -10 238 32 C290 82 299 160 308 235 L361 667 L259 667 Z " />
<glyph glyph-name="K" unicode="K" horiz-adv-x="586" d="M264 667 L162 667 L80 0 L182 0 L216 276 L238 296 L440 0 L574 0 L316 365 L656 667 L519 667 L231 409 L264 667 Z " />
<glyph glyph-name="L" unicode="L" horiz-adv-x="394" d="M162 667 L80 0 L181 0 L378 0 L390 96 L194 96 L264 667 L162 667 Z " />
<glyph glyph-name="M" unicode="M" horiz-adv-x="852" d="M166 0 L285 403 L424 -31 L671 402 L690 0 L792 0 L754 717 L456 199 L288 717 L60 0 L166 0 Z " />
<glyph glyph-name="N" unicode="N" horiz-adv-x="746" d="M182 0 L239 466 L661 -41 L748 667 L646 667 L589 205 L167 712 L80 0 L182 0 Z " />
<glyph glyph-name="O" unicode="O" horiz-adv-x="796" d="M478 679 C364 679 264 640 198 574 C131 508 89 406 89 300 C89 207 125 127 178 73 C242 7 318 -13 409 -13 C493 -13 596 1 684 90 C734 141 789 229 789 366 C789 423 779 517 703 592 C664 631 594 679 478 679 L478 679 Z M410 81 C354 81 299 95 252 145 C226 172 190 224 190 307 C190 397 227 466 273 511 C329 566 394 585 458 585 C532 585 590 555 627 517 C655 488 687 438 687 360 C687 282 657 203 606 153 C562 109 498 81 410 81 L410 81 Z " />
<glyph glyph-name="P" unicode="P" horiz-adv-x="481" d="M162 667 L80 0 L182 0 L215 271 L249 271 C336 271 408 285 458 335 C486 363 515 410 515 485 C515 551 490 592 466 615 C414 665 334 667 305 667 L162 667 Z M252 573 L295 573 C316 573 359 572 386 550 C403 536 417 513 417 479 C417 443 403 413 383 396 C356 372 313 365 265 365 L227 365 L252 573 Z " />
<glyph glyph-name="Q" unicode="Q" horiz-adv-x="796" d="M633 -13 L756 -13 L665 91 C703 123 733 163 753 204 C777 254 789 315 789 369 C789 466 755 539 699 593 C626 663 537 679 457 679 C357 679 265 650 190 570 C132 509 89 416 89 299 C89 175 142 103 179 67 C244 3 324 -13 399 -13 C501 -13 557 13 592 35 L633 -13 Z M511 264 L387 264 L527 106 C485 87 446 81 406 81 C353 81 297 95 251 143 C224 171 191 221 191 300 C191 376 217 453 268 507 C306 547 367 585 458 585 C528 585 584 559 619 526 C656 491 687 431 687 353 C687 308 677 269 661 236 C644 201 622 178 603 162 L511 264 Z " />
<glyph glyph-name="R" unicode="R" horiz-adv-x="534" d="M162 667 L80 0 L182 0 L216 273 L234 273 L391 0 L514 0 L341 285 C383 293 426 314 455 341 C485 369 513 417 513 485 C513 555 481 602 449 626 C401 663 333 667 281 667 L162 667 Z M252 573 L287 573 C331 573 360 566 378 554 C399 540 415 514 415 479 C415 443 397 411 374 393 C343 368 294 361 258 361 L226 361 L252 573 Z " />
<glyph glyph-name="S" unicode="S" horiz-adv-x="516" d="M520 567 C511 593 493 624 457 648 C418 674 375 679 342 679 C271 679 219 653 183 615 C130 559 130 495 130 486 C130 446 146 412 167 388 C190 363 222 346 246 335 L297 312 C319 302 346 290 365 270 C381 253 391 234 391 207 C391 173 379 132 353 109 C335 93 310 81 274 81 C231 81 205 95 189 116 C171 140 165 180 166 206 L63 184 C65 120 92 66 125 34 C162 -2 207 -13 259 -13 C311 -13 379 -2 433 54 C467 90 494 142 494 219 C494 260 486 295 459 328 C444 347 418 370 375 389 L321 413 C296 424 277 429 256 448 C242 461 232 476 232 499 C232 523 244 545 260 559 C273 571 297 585 336 585 C356 585 383 580 402 566 C416 555 427 538 432 519 L520 567 Z " />
<glyph glyph-name="T" unicode="T" horiz-adv-x="428" d="M488 571 L500 667 L92 667 L80 571 L233 571 L163 0 L265 0 L335 571 L488 571 Z " />
<glyph glyph-name="U" unicode="U" horiz-adv-x="656" d="M164 667 L120 313 C111 243 109 221 109 202 C109 135 132 91 153 65 C198 8 260 -13 334 -13 C418 -13 476 15 511 44 C549 76 593 139 605 238 L658 667 L556 667 L507 265 C501 214 495 166 453 124 C431 103 396 81 342 81 C295 81 266 99 248 117 C217 148 213 184 213 216 C213 245 218 272 220 292 L266 667 L164 667 Z " />
<glyph glyph-name="V" unicode="V" horiz-adv-x="600" d="M86 667 L295 -43 L678 667 L566 667 L323 202 L194 667 L86 667 Z " />
<glyph glyph-name="W" unicode="W" horiz-adv-x="940" d="M86 667 L283 -43 L517 430 L633 -43 L1018 667 L906 667 L669 221 L554 699 L315 221 L194 667 L86 667 Z " />
<glyph glyph-name="X" unicode="X" horiz-adv-x="540" d="M10 0 L124 0 L307 255 L422 0 L530 0 L372 348 L603 667 L489 667 L328 441 L226 667 L118 667 L263 348 L10 0 Z " />
<glyph glyph-name="Y" unicode="Y" horiz-adv-x="540" d="M219 0 L321 0 L356 288 L622 667 L504 667 L317 400 L196 667 L82 667 L254 288 L219 0 Z " />
<glyph glyph-name="Z" unicode="Z" horiz-adv-x="554" d="M606 667 L166 667 L154 571 L428 571 L30 0 L516 0 L528 96 L208 96 L606 667 Z " />
<glyph glyph-name="bracketleft" unicode="&#x5b;" horiz-adv-x="316" d="M348 639 L360 729 L178 729 L66 -177 L163 -177 L248 -177 L259 -87 L175 -87 L264 639 L348 639 Z " />
<glyph glyph-name="backslash" unicode="&#x5c;" horiz-adv-x="671" d="M653 -177 L242 765 L164 729 L574 -213 L653 -177 Z " />
<glyph glyph-name="bracketright" unicode="&#x5d;" horiz-adv-x="316" d="M35 -87 L24 -177 L104 -177 L206 -177 L318 729 L136 729 L124 639 L208 639 L119 -87 L35 -87 Z " />
<glyph glyph-name="asciicircum" unicode="&#x5e;" horiz-adv-x="500" d="M293 590 L423 350 L527 350 L356 667 L230 667 L59 350 L163 350 L293 590 Z " />
<glyph glyph-name="underscore" unicode="&#x5f;" horiz-adv-x="400" d="M0 -144 L400 -144 L400 -58 L0 -58 L0 -144 Z " />
<glyph glyph-name="grave" unicode="&#x60;" horiz-adv-x="500" d="M301 485 L359 519 L258 675 L162 629 L301 485 Z " />
<glyph glyph-name="a" unicode="a" horiz-adv-x="532" d="M418 372 C404 391 387 405 370 414 C346 427 321 432 293 432 C234 432 182 416 139 373 C88 322 66 249 66 185 C66 121 91 65 124 33 C145 13 182 -13 244 -13 C271 -13 300 -7 321 2 C342 11 363 29 377 44 L372 0 L470 0 L522 421 L424 421 L418 372 Z M298 344 C334 344 358 331 373 316 C394 295 406 262 406 227 C406 186 391 141 363 112 C345 94 315 75 271 75 C241 75 218 86 200 105 C181 125 167 156 167 193 C167 240 187 285 214 311 C231 327 258 344 298 344 L298 344 Z " />
<glyph glyph-name="b" unicode="b" horiz-adv-x="532" d="M250 729 L152 729 L62 0 L160 0 L165 44 C176 30 190 17 208 7 C236 -9 262 -13 291 -13 C352 -13 404 3 449 51 C490 95 518 160 518 240 C518 310 493 356 465 384 C424 425 374 432 340 432 C311 432 279 427 255 414 C238 405 219 389 206 372 L250 729 Z M314 344 C343 344 366 335 385 316 C403 298 418 268 418 226 C418 183 401 141 374 113 C347 85 316 75 285 75 C254 75 230 86 213 103 C193 123 179 154 179 191 C179 234 195 277 222 306 C248 334 279 344 314 344 L314 344 Z " />
<glyph glyph-name="c" unicode="c" horiz-adv-x="422" d="M439 396 C408 416 368 432 308 432 C245 432 186 416 136 367 C104 335 66 279 66 194 C66 115 98 67 125 41 C165 1 213 -13 268 -13 C333 -13 367 -1 393 16 L406 126 C386 104 365 94 358 90 C328 76 300 75 290 75 C257 75 224 86 203 106 C183 125 167 158 167 198 C167 238 181 275 207 302 C230 326 267 344 314 344 C337 344 355 339 376 328 C399 316 415 301 426 290 L439 396 Z " />
<glyph glyph-name="d" unicode="d" horiz-adv-x="532" d="M418 372 C404 391 387 406 368 415 C344 427 314 432 287 432 C226 432 179 413 143 380 C94 335 66 261 66 193 C66 129 89 72 126 35 C161 0 201 -13 251 -13 C277 -13 299 -10 323 2 C340 10 359 23 377 44 L372 0 L470 0 L560 729 L462 729 L418 372 Z M296 344 C326 344 352 334 373 312 C389 295 405 266 405 225 C405 182 389 136 362 109 C338 85 308 75 274 75 C245 75 219 83 198 106 C178 127 166 159 166 197 C166 238 180 281 211 311 C236 336 264 344 296 344 L296 344 Z " />
<glyph glyph-name="e" unicode="e" horiz-adv-x="489" d="M377 142 C367 124 350 105 333 94 C314 82 289 75 266 75 C233 75 210 88 197 102 C177 123 166 157 166 187 L467 187 C471 206 472 223 472 236 C472 297 452 350 420 383 C381 424 332 432 293 432 C230 432 180 410 139 370 C93 325 66 262 66 190 C66 124 90 73 123 40 C161 1 206 -13 258 -13 C314 -13 352 3 376 17 C404 34 433 61 454 96 L377 142 Z M181 267 C189 287 203 309 220 323 C241 340 266 348 291 348 C315 348 338 340 352 325 C364 312 374 288 377 267 L181 267 Z " />
<glyph glyph-name="f" unicode="f" horiz-adv-x="263" d="M310 331 L321 421 L215 421 L233 567 C238 606 251 646 297 646 C319 646 337 636 346 630 L358 726 C335 736 314 740 291 740 C243 740 208 724 184 700 C148 664 141 615 137 582 L117 421 L75 421 L64 331 L106 331 L65 0 L163 0 L204 331 L310 331 Z " />
<glyph glyph-name="g" unicode="g" horiz-adv-x="529" d="M415 375 C373 429 319 432 291 432 C226 432 180 416 137 374 C88 326 62 259 62 191 C62 124 85 76 120 41 C160 1 208 -13 253 -13 C284 -13 338 -6 375 47 L368 -7 C363 -45 355 -86 328 -113 C303 -138 271 -142 249 -142 C227 -142 199 -139 178 -118 C161 -100 152 -70 151 -47 L56 -47 C58 -93 75 -152 120 -190 C157 -221 202 -230 244 -230 C328 -230 380 -198 406 -169 C451 -119 462 -40 468 11 L519 421 L421 421 L415 375 Z M297 344 C330 344 354 330 370 314 C395 289 402 257 402 228 C402 170 379 133 357 111 C331 85 302 75 272 75 C240 75 213 90 195 109 C180 125 164 154 164 196 C164 235 178 280 204 307 C225 329 259 344 297 344 L297 344 Z " />
<glyph glyph-name="h" unicode="h" horiz-adv-x="486" d="M62 0 L160 0 L185 203 C191 253 200 296 226 321 C234 329 254 344 289 344 C307 344 326 339 339 327 C355 312 358 290 358 273 C358 269 358 254 353 217 L326 0 L424 0 L450 207 C457 261 459 279 459 294 C459 338 443 374 421 396 C403 414 372 432 321 432 C297 432 273 428 249 416 C229 406 215 394 207 385 L250 729 L152 729 L62 0 Z " />
<glyph glyph-name="i" unicode="i" horiz-adv-x="223" d="M114 421 L62 0 L160 0 L212 421 L114 421 Z M120 585 C120 569 127 555 136 547 C144 539 156 532 175 532 C196 532 216 541 228 554 C241 568 248 589 248 605 C248 621 241 634 232 643 C223 652 209 658 192 658 C171 658 153 649 141 637 C127 623 120 604 120 585 L120 585 Z " />
<glyph glyph-name="j" unicode="j" horiz-adv-x="223" d="M114 421 L34 -229 L132 -229 L212 421 L114 421 Z M120 585 C120 569 127 555 136 547 C144 539 156 532 175 532 C196 532 216 541 228 554 C241 568 248 589 248 605 C248 621 241 634 232 643 C223 652 209 658 192 658 C171 658 153 649 141 637 C127 623 120 604 120 585 L120 585 Z " />
<glyph glyph-name="k" unicode="k" horiz-adv-x="442" d="M152 729 L62 0 L160 0 L180 162 L200 180 L316 0 L438 0 L274 245 L479 421 L349 421 L194 280 L250 729 L152 729 Z " />
<glyph glyph-name="l" unicode="l" horiz-adv-x="222" d="M152 729 L62 0 L160 0 L250 729 L152 729 Z " />
<glyph glyph-name="m" unicode="m" horiz-adv-x="702" d="M62 0 L160 0 L187 217 C192 260 199 299 223 323 C236 336 253 344 275 344 C294 344 308 337 317 328 C333 312 334 287 334 274 C334 264 333 251 329 221 L302 0 L400 0 L427 217 C433 265 442 302 468 326 C485 341 501 344 514 344 C530 344 548 337 557 327 C569 315 574 294 574 271 C574 252 570 230 568 212 L542 0 L640 0 L666 212 C671 249 674 275 674 297 C674 321 671 366 636 398 C614 419 582 432 537 432 C508 432 488 427 466 414 C443 400 428 384 418 370 C410 386 398 403 377 416 C357 429 339 432 317 432 C293 432 270 428 248 416 C232 407 218 394 207 382 L212 421 L114 421 L62 0 Z " />
<glyph glyph-name="n" unicode="n" horiz-adv-x="485" d="M61 0 L159 0 L184 203 C190 253 199 296 225 321 C233 329 253 344 288 344 C306 344 325 339 338 327 C354 312 357 290 357 273 C357 269 357 254 352 217 L325 0 L423 0 L449 207 C456 262 458 280 458 296 C458 340 442 374 420 396 C402 414 371 432 320 432 C295 432 273 428 248 416 C232 408 219 399 206 383 L211 421 L113 421 L61 0 Z " />
<glyph glyph-name="o" unicode="o" horiz-adv-x="534" d="M313 432 C241 432 185 411 139 367 C95 325 66 264 66 191 C66 123 93 76 124 44 C170 -3 220 -13 274 -13 C342 -13 396 3 447 52 C509 112 520 182 520 230 C520 300 490 348 463 376 C415 424 357 432 313 432 L313 432 Z M287 75 C235 75 207 101 197 112 C177 135 166 167 166 199 C166 242 183 282 212 309 C231 327 262 344 307 344 C339 344 366 334 387 312 C415 283 420 247 420 224 C420 179 404 141 380 115 C353 86 321 75 287 75 L287 75 Z " />
<glyph glyph-name="p" unicode="p" horiz-adv-x="532" d="M166 49 C178 35 194 20 212 9 C239 -7 272 -14 307 -14 C366 -14 411 9 447 47 C488 91 518 162 518 235 C518 296 496 346 465 378 C434 410 384 432 331 432 C305 432 281 427 256 415 C236 406 220 394 206 375 L212 421 L114 421 L34 -229 L132 -229 L166 49 Z M308 344 C340 344 366 335 387 312 C405 292 417 262 417 227 C417 181 396 136 369 109 C347 87 321 75 286 75 C252 75 224 89 206 108 C182 133 178 167 178 191 C178 238 195 285 224 313 C250 338 277 344 308 344 L308 344 Z " />
<glyph glyph-name="q" unicode="q" horiz-adv-x="532" d="M418 375 C404 396 389 406 367 416 C342 427 323 432 294 432 C237 432 184 417 140 373 C93 326 66 250 66 180 C66 116 88 69 125 34 C159 2 199 -13 256 -13 C283 -13 306 -8 329 4 C352 16 368 32 378 47 L344 -229 L442 -229 L522 421 L424 421 L418 375 Z M297 344 C338 344 362 326 374 314 C395 293 406 257 406 227 C406 186 387 135 359 108 C340 89 310 75 273 75 C236 75 212 90 199 103 C174 127 167 159 167 187 C167 232 182 279 213 311 C238 336 264 344 297 344 L297 344 Z " />
<glyph glyph-name="r" unicode="r" horiz-adv-x="332" d="M62 0 L160 0 L187 218 C190 239 198 287 223 313 C237 327 258 338 288 338 C308 338 325 333 340 323 L388 412 C360 429 336 432 316 432 C296 432 274 430 252 419 C228 407 212 389 207 383 L212 421 L114 421 L62 0 Z " />
<glyph glyph-name="s" unicode="s" horiz-adv-x="364" d="M354 358 C343 378 326 399 306 412 C283 427 260 432 233 432 C198 432 160 425 129 394 C107 372 91 340 91 301 C91 269 102 245 120 228 C133 215 155 203 168 196 L195 182 C209 175 224 169 235 158 C245 148 249 136 249 123 C249 107 244 95 233 86 C224 78 211 73 194 73 C177 73 163 79 153 88 C143 97 134 113 130 129 L45 91 C60 42 93 17 97 14 C128 -9 166 -13 191 -13 C244 -13 282 2 309 27 C330 47 351 79 351 129 C351 175 332 202 319 216 C315 220 300 235 266 252 L238 266 C212 279 204 282 197 288 C189 294 185 302 185 312 C185 322 190 330 194 334 C204 344 218 346 228 346 C239 346 248 344 258 336 C266 330 273 322 278 310 L354 358 Z " />
<glyph glyph-name="t" unicode="t" horiz-adv-x="242" d="M279 331 L290 421 L215 421 L234 575 L136 575 L117 421 L76 421 L65 331 L106 331 L65 0 L163 0 L204 331 L279 331 Z " />
<glyph glyph-name="u" unicode="u" horiz-adv-x="485" d="M115 421 L87 192 C84 166 82 149 82 135 C82 96 96 59 121 33 C147 6 192 -13 255 -13 C323 -13 365 10 388 32 C432 74 440 134 445 177 L475 421 L377 421 L347 180 C343 151 339 118 317 97 C303 84 278 75 256 75 C236 75 214 82 201 95 C191 105 181 123 181 153 C181 166 183 180 186 202 L213 421 L115 421 Z " />
<glyph glyph-name="v" unicode="v" horiz-adv-x="448" d="M58 421 L220 -30 L494 421 L382 421 L244 181 L166 421 L58 421 Z " />
<glyph glyph-name="w" unicode="w" horiz-adv-x="686" d="M58 421 L221 -30 L372 239 L457 -30 L732 421 L620 421 L481 180 L397 457 L245 180 L166 421 L58 421 Z " />
<glyph glyph-name="x" unicode="x" horiz-adv-x="496" d="M6 0 L128 0 L272 157 L374 0 L490 0 L338 228 L517 421 L395 421 L286 298 L208 421 L94 421 L220 228 L6 0 Z " />
<glyph glyph-name="y" unicode="y" horiz-adv-x="482" d="M3 -229 L113 -229 L528 421 L416 421 L269 184 L174 421 L58 421 L203 78 L3 -229 Z " />
<glyph glyph-name="z" unicode="z" horiz-adv-x="480" d="M524 421 L118 421 L107 331 L322 331 L8 0 L451 0 L462 90 L212 90 L524 421 Z " />
<glyph glyph-name="braceleft" unicode="&#x7b;" horiz-adv-x="502" d="M353 565 C356 589 359 615 378 631 C397 647 424 645 445 645 L459 645 L469 729 L422 729 C385 729 338 729 301 695 C270 666 262 626 258 590 L235 399 C233 379 232 357 215 338 C207 329 192 318 169 316 L159 236 C171 236 185 231 193 222 C208 206 207 173 205 153 L182 -38 C176 -91 182 -131 217 -156 C244 -175 283 -177 312 -177 L359 -177 L369 -93 L361 -93 C339 -93 314 -93 299 -83 C276 -67 280 -35 283 -13 L303 155 C308 200 305 229 288 252 C278 266 267 272 256 276 C277 284 297 298 309 316 C323 337 329 366 333 397 L353 565 Z " />
<glyph glyph-name="bar" unicode="&#x7c;" horiz-adv-x="377" d="M171 -250 L267 -250 L267 750 L171 750 L171 -250 Z " />
<glyph glyph-name="braceright" unicode="&#x7d;" horiz-adv-x="502" d="M227 -13 C225 -32 223 -59 204 -76 C186 -92 152 -93 135 -93 L121 -93 L111 -177 L169 -177 C202 -177 250 -174 283 -140 C311 -112 318 -74 322 -38 L346 153 C348 170 353 199 369 216 C378 226 394 234 412 236 L422 316 C408 318 397 324 389 332 C371 351 373 376 376 399 L399 590 C405 637 403 685 365 710 C343 725 299 729 269 729 L222 729 L212 645 L220 645 C266 645 278 638 283 635 C304 620 301 592 298 565 L278 397 C274 361 271 333 289 307 C296 297 307 285 325 276 C301 267 283 251 273 236 C256 211 251 178 248 155 L227 -13 Z " />
<glyph glyph-name="asciitilde" unicode="&#x7e;" horiz-adv-x="500" d="M477 361 C469 348 454 329 440 318 C424 305 409 300 389 300 C362 300 338 309 293 330 C264 344 234 359 194 359 C144 359 113 335 95 317 C67 290 46 255 35 234 L86 198 C94 213 107 230 121 243 C134 255 151 265 175 265 C210 265 251 242 269 234 C297 222 331 207 370 207 C409 207 437 223 460 241 C477 255 507 282 530 328 L477 361 Z " />
<glyph glyph-name="uni00A0" unicode="&#xa0;" horiz-adv-x="233" d="" />
<glyph glyph-name="exclamdown" unicode="&#xa1;" horiz-adv-x="254" d="M120 272 L58 -230 L156 -230 L218 272 L120 272 Z M123 383 C123 368 128 353 139 343 C149 333 165 329 179 329 C197 329 214 336 225 347 C238 360 245 377 245 394 C245 409 240 424 229 434 C221 442 209 449 190 449 C168 449 151 440 141 429 C130 417 123 400 123 383 L123 383 Z " />
<glyph glyph-name="cent" unicode="&#xa2;" horiz-adv-x="568" d="M503 524 C474 542 443 552 411 554 L424 655 L350 655 L337 555 C272 549 227 519 200 492 C160 452 130 388 130 313 C130 252 149 204 184 168 C218 132 256 120 284 115 L272 13 L346 13 L358 114 C392 115 425 124 456 143 L469 249 C433 214 389 200 350 200 C318 200 287 211 267 230 C247 248 231 280 231 323 C231 363 246 406 275 434 C294 452 325 469 373 469 C426 469 465 444 490 417 L503 524 Z " />
<glyph glyph-name="sterling" unicode="&#xa3;" horiz-adv-x="568" d="M570 444 C571 454 573 468 573 485 C573 526 564 583 519 627 C474 671 419 678 368 678 C304 678 252 666 203 618 C162 578 138 525 138 455 C138 413 148 368 163 330 L85 330 L76 258 L190 258 C197 242 199 227 199 217 C199 193 188 161 175 138 C155 136 121 130 89 102 C68 83 45 51 33 29 L114 -15 C120 -2 129 12 140 22 C154 36 172 44 194 44 C215 44 234 35 258 26 L297 11 C326 0 354 -9 392 -9 C428 -9 458 -1 487 22 C511 40 537 72 554 104 L478 152 C471 138 457 118 448 108 C434 94 421 89 403 89 C373 89 345 102 316 113 L277 128 C283 139 300 174 300 217 C300 226 299 241 295 258 L396 258 L405 330 L275 330 C249 398 241 435 241 461 C241 497 254 529 276 551 C296 571 326 584 362 584 C392 584 425 573 447 551 C471 527 475 497 475 476 C475 464 474 450 473 444 L570 444 Z " />
<glyph glyph-name="currency" unicode="&#xa4;" horiz-adv-x="667" d="M137 660 L83 606 L182 507 C165 485 137 440 137 367 C137 294 165 249 182 227 L83 128 L137 74 L236 173 C262 152 307 125 379 125 C451 125 496 152 522 173 L621 74 L675 128 L576 227 C593 249 621 294 621 367 C621 440 593 485 576 507 L675 606 L621 660 L522 561 C496 582 451 609 379 609 C307 609 262 582 236 561 L137 660 Z M379 211 C327 211 292 233 270 256 C242 285 227 321 227 367 C227 410 239 447 271 479 C300 508 334 523 379 523 C419 523 455 511 487 479 C520 445 531 407 531 367 C531 326 520 289 488 256 C459 226 423 211 379 211 L379 211 Z " />
<glyph glyph-name="yen" unicode="&#xa5;" horiz-adv-x="568" d="M569 377 L578 447 L474 447 L622 667 L510 667 L331 400 L218 667 L110 667 L204 447 L100 447 L91 377 L234 377 L266 303 L82 303 L74 233 L266 233 L237 0 L331 0 L360 233 L552 233 L560 303 L376 303 L426 377 L569 377 Z " />
<glyph glyph-name="brokenbar" unicode="&#xa6;" horiz-adv-x="377" d="M171 390 L267 390 L267 750 L171 750 L171 390 Z M171 -250 L267 -250 L267 110 L171 110 L171 -250 Z " />
<glyph glyph-name="section" unicode="&#xa7;" horiz-adv-x="567" d="M548 525 C550 538 550 550 550 561 C550 615 533 654 507 680 C484 703 440 729 367 729 C304 729 258 707 226 675 C198 647 175 605 175 545 C175 518 180 468 234 429 C204 417 172 395 151 366 C130 336 120 296 120 260 C120 211 140 177 160 156 C188 126 223 113 248 102 L266 94 C290 83 318 74 339 53 C354 38 364 21 364 -3 C364 -30 352 -56 336 -70 C326 -79 306 -91 273 -91 C241 -91 218 -80 205 -67 C193 -55 179 -31 179 13 L179 18 L85 18 L85 14 C85 -41 104 -98 139 -132 C180 -172 235 -177 267 -177 C313 -177 367 -167 412 -122 C436 -98 464 -57 464 8 C464 34 459 88 410 128 C434 137 460 153 483 182 C510 216 518 249 518 286 C518 324 509 361 479 395 C451 426 419 441 382 455 C336 473 316 480 301 492 C286 504 271 526 271 557 C271 582 281 604 296 618 C316 638 341 643 366 643 C385 643 412 639 432 620 C444 608 456 587 456 552 C456 544 456 535 454 525 L548 525 Z M324 377 C353 377 374 368 389 355 C410 337 416 316 416 290 C416 262 410 233 387 210 C365 187 338 181 310 181 C281 181 260 191 246 205 C225 225 222 252 222 269 C222 305 235 330 251 347 C265 361 288 377 324 377 L324 377 Z " />
<glyph glyph-name="dieresis" unicode="&#xa8;" horiz-adv-x="500" d="M165 569 C160 535 185 507 219 507 C253 507 284 535 289 569 C293 603 268 631 234 631 C200 631 169 603 165 569 L165 569 Z M345 569 C340 535 365 507 399 507 C433 507 464 535 469 569 C473 603 448 631 414 631 C380 631 349 603 345 569 L345 569 Z " />
<glyph glyph-name="copyright" unicode="&#xa9;" horiz-adv-x="751" d="M548 510 C512 532 475 541 432 541 C352 541 300 507 271 477 C240 444 215 395 215 333 C215 263 245 216 272 188 C304 156 353 126 427 126 C481 126 521 142 548 157 L548 245 C525 221 486 194 434 194 C391 194 353 210 328 235 C297 266 291 303 291 331 C291 379 309 412 330 433 C358 461 395 473 431 473 C472 473 515 455 548 423 L548 510 Z M415 630 C510 630 578 589 621 546 C673 494 705 424 705 333 C705 242 673 172 621 120 C578 77 510 36 415 36 C320 36 252 77 209 120 C157 172 125 242 125 333 C125 424 157 494 209 546 C252 589 320 630 415 630 L415 630 Z M761 333 C761 437 721 524 663 582 C607 638 522 680 415 680 C308 680 223 638 167 582 C109 524 69 437 69 333 C69 229 109 142 167 84 C223 28 308 -14 415 -14 C522 -14 607 28 663 84 C721 142 761 229 761 333 L761 333 Z " />
<glyph glyph-name="ordfeminine" unicode="&#xaa;" horiz-adv-x="368" d="M327 632 C303 662 269 667 248 667 C216 667 177 656 145 624 C130 609 100 571 100 510 C100 477 110 447 133 423 C158 397 190 387 221 387 C246 387 277 396 300 419 L297 394 L363 394 L395 661 L330 661 L327 632 Z M249 610 C268 610 288 603 300 590 C311 579 318 560 318 538 C318 513 309 484 290 465 C280 455 262 443 235 443 C216 443 198 450 187 461 C176 472 167 490 167 514 C167 542 177 569 195 587 C212 604 233 610 249 610 L249 610 Z M90 343 L84 291 L351 291 L357 343 L90 343 Z " />
<glyph glyph-name="guillemotleft" unicode="&#xab;" horiz-adv-x="512" d="M167 215 L319 384 L260 435 L67 219 L202 7 L273 50 L167 215 Z M353 215 L505 384 L446 435 L253 219 L388 7 L459 50 L353 215 Z " />
<glyph glyph-name="logicalnot" unicode="&#xac;" horiz-adv-x="500" d="M478 0 L478 267 L44 267 L44 179 L380 179 L380 0 L478 0 Z " />
<glyph glyph-name="uni00AD" unicode="&#xad;" horiz-adv-x="340" d="M70 162 L310 162 L322 264 L82 264 L70 162 Z " />
<glyph glyph-name="registered" unicode="&#xae;" horiz-adv-x="758" d="M589 153 L465 309 C487 315 507 326 521 342 C541 364 548 390 548 419 C548 460 532 484 520 496 C491 525 445 527 425 527 L315 527 L315 153 L386 153 L386 301 L502 153 L589 153 Z M386 464 L410 464 C436 464 450 461 459 455 C466 451 478 439 478 416 C478 395 468 382 460 375 C444 362 418 360 400 360 L386 360 L386 464 Z M420 630 C515 630 583 589 626 546 C678 494 710 424 710 333 C710 242 678 172 626 120 C583 77 515 36 420 36 C325 36 257 77 214 120 C162 172 130 242 130 333 C130 424 162 494 214 546 C257 589 325 630 420 630 L420 630 Z M766 333 C766 437 726 524 668 582 C612 638 527 680 420 680 C313 680 228 638 172 582 C114 524 74 437 74 333 C74 229 114 142 172 84 C228 28 313 -14 420 -14 C527 -14 612 28 668 84 C726 142 766 229 766 333 L766 333 Z " />
<glyph glyph-name="macron" unicode="&#xaf;" horiz-adv-x="500" d="M147 508 L477 508 L487 586 L157 586 L147 508 Z " />
<glyph glyph-name="degree" unicode="&#xb0;" horiz-adv-x="502" d="M168 510 C168 466 184 436 203 417 C225 395 258 377 307 377 C365 377 400 400 419 419 C455 455 462 499 462 534 C462 571 453 604 422 632 C390 661 352 667 324 667 C270 667 233 645 209 619 C186 594 168 557 168 510 L168 510 Z M230 515 C230 543 240 568 256 584 C271 599 294 609 321 609 C356 609 375 591 378 588 C396 570 400 546 400 529 C400 502 393 478 373 459 C357 443 336 435 309 435 C291 435 270 439 253 456 C238 471 230 493 230 515 L230 515 Z " />
<glyph glyph-name="plusminus" unicode="&#xb1;" horiz-adv-x="500" d="M64 350 L234 350 L234 187 L328 187 L328 350 L498 350 L498 440 L328 440 L328 603 L234 603 L234 440 L64 440 L64 350 Z M64 60 L498 60 L498 150 L64 150 L64 60 Z " />
<glyph glyph-name="twosuperior" unicode="&#xb2;" horiz-adv-x="371" d="M355 333 L214 333 L281 398 C317 433 336 454 350 472 C371 500 382 526 382 560 C382 598 367 623 352 638 C333 658 301 674 252 674 C208 674 174 662 146 631 C121 604 106 567 101 535 L171 535 C173 554 182 576 195 589 C204 598 221 608 247 608 C264 608 281 603 292 593 C302 584 309 570 309 553 C309 526 293 505 281 490 C262 467 244 449 223 429 L57 267 L347 267 L355 333 Z " />
<glyph glyph-name="threesuperior" unicode="&#xb3;" horiz-adv-x="372" d="M79 386 C79 345 96 313 114 295 C143 266 183 260 215 260 C259 260 297 270 328 303 C356 332 364 366 364 399 C364 417 361 436 347 454 C335 469 322 475 312 478 C323 481 341 488 356 506 C372 525 376 545 376 568 C376 595 369 620 348 641 C325 664 289 674 252 674 C212 674 180 662 156 639 C134 618 118 587 113 553 L183 553 C186 567 193 583 202 592 C216 607 235 608 248 608 C261 608 276 606 289 596 C300 587 304 575 304 562 C304 543 295 531 287 525 C272 513 251 512 234 512 L210 512 L202 446 L216 446 C244 446 258 442 267 436 C286 424 288 405 288 394 C288 369 279 353 268 343 C257 333 239 326 217 326 C192 326 176 333 167 342 C156 353 150 372 149 386 L79 386 Z " />
<glyph glyph-name="acute" unicode="&#xb4;" horiz-adv-x="500" d="M408 675 L269 519 L319 485 L492 629 L408 675 Z " />
<glyph glyph-name="&amp;#xb5;" unicode="&#xb5;" horiz-adv-x="524" d="M132 -230 L169 73 C174 54 185 28 200 13 C219 -7 243 -12 266 -12 C284 -12 308 -9 329 6 C354 25 369 55 372 63 L364 0 L462 0 L514 421 L416 421 L391 222 C386 181 380 133 350 104 C334 88 309 76 275 76 C252 76 228 82 210 100 C189 122 184 151 184 173 C184 187 186 203 190 240 L212 421 L114 421 L34 -230 L132 -230 Z " />
<glyph glyph-name="&amp;#x3bc;" unicode="&#x3bc;" horiz-adv-x="524" d="M132 -230 L169 73 C174 54 185 28 200 13 C219 -7 243 -12 266 -12 C284 -12 308 -9 329 6 C354 25 369 55 372 63 L364 0 L462 0 L514 421 L416 421 L391 222 C386 181 380 133 350 104 C334 88 309 76 275 76 C252 76 228 82 210 100 C189 122 184 151 184 173 C184 187 186 203 190 240 L212 421 L114 421 L34 -230 L132 -230 Z " />
<glyph glyph-name="paragraph" unicode="&#xb6;" horiz-adv-x="618" d="M291 -96 L376 591 L472 591 L387 -96 L469 -96 L554 591 L620 591 L629 667 L332 667 C256 667 183 661 133 608 C106 579 84 532 84 472 C84 434 93 394 124 362 C165 320 220 317 252 317 L259 317 L208 -96 L291 -96 Z " />
<glyph glyph-name="periodcentered" unicode="&#xb7;" horiz-adv-x="200" d="M63 329 C63 309 70 293 83 281 C98 267 115 262 135 262 C157 262 178 269 195 287 C210 303 221 327 221 351 C221 368 214 385 202 398 C191 409 174 418 151 418 C134 418 112 413 92 394 C75 378 63 355 63 329 L63 329 Z " />
<glyph glyph-name="cedilla" unicode="&#xb8;" horiz-adv-x="500" d="M251 -53 L151 -187 L211 -219 L330 -85 L251 -53 Z " />
<glyph glyph-name="onesuperior" unicode="&#xb9;" horiz-adv-x="370" d="M195 267 L269 267 L318 667 L208 667 L158 601 L236 601 L195 267 Z " />
<glyph glyph-name="ordmasculine" unicode="&#xba;" horiz-adv-x="369" d="M232 386 C292 386 330 409 351 430 C375 454 393 489 393 538 C393 573 384 605 356 632 C326 661 290 667 259 667 C218 667 176 657 142 623 C116 597 98 559 98 514 C98 468 116 439 132 423 C164 390 208 386 232 386 L232 386 Z M254 610 C272 610 290 606 306 590 C324 572 326 551 326 536 C326 505 315 481 301 466 C288 453 269 442 240 442 C221 442 202 447 187 462 C180 469 166 486 166 518 C166 542 175 569 191 586 C204 599 225 610 254 610 L254 610 Z M90 343 L84 291 L352 291 L358 343 L90 343 Z " />
<glyph glyph-name="guillemotright" unicode="&#xbb;" horiz-adv-x="512" d="M207 222 L64 57 L123 7 L308 219 L169 431 L98 387 L207 222 Z M394 222 L251 57 L310 7 L495 219 L356 431 L285 387 L394 222 Z " />
<glyph glyph-name="onequarter" unicode="&#xbc;" horiz-adv-x="802" d="M195 267 L267 267 L316 667 L208 667 L158 601 L236 601 L195 267 Z M227 17 L272 -11 L735 650 L690 678 L227 17 Z M592 138 L683 241 L670 138 L592 138 Z M778 430 L453 76 L662 76 L653 0 L725 0 L734 76 L777 76 L785 142 L742 142 L778 430 Z " />
<glyph glyph-name="onehalf" unicode="&#xbd;" horiz-adv-x="800" d="M195 267 L267 267 L316 667 L208 667 L158 601 L236 601 L195 267 Z M167 17 L212 -11 L675 650 L630 678 L167 17 Z M752 66 L611 66 L678 131 C714 166 733 187 747 205 C768 233 779 259 779 293 C779 331 764 356 749 371 C730 391 698 407 649 407 C605 407 571 395 543 364 C518 337 503 300 498 268 L568 268 C570 287 579 309 592 322 C601 331 618 341 644 341 C661 341 678 336 689 326 C699 317 706 303 706 286 C706 259 690 238 678 223 C659 200 641 182 620 162 L454 0 L744 0 L752 66 Z " />
<glyph glyph-name="threequarters" unicode="&#xbe;" horiz-adv-x="802" d="M79 386 C79 345 96 313 114 295 C143 266 183 260 215 260 C259 260 297 270 328 303 C356 332 364 366 364 399 C364 417 361 436 347 454 C335 469 322 475 312 478 C323 481 341 488 356 506 C372 525 376 545 376 568 C376 595 369 620 348 641 C325 664 289 674 252 674 C212 674 180 662 156 639 C134 618 118 587 113 553 L183 553 C186 567 193 583 202 592 C216 607 235 608 248 608 C261 608 276 606 289 596 C299 588 304 577 304 563 C304 543 295 531 287 525 C272 513 251 512 234 512 L210 512 L202 446 L216 446 C244 446 258 442 267 436 C286 424 288 405 288 394 C288 369 279 353 268 343 C257 333 239 326 217 326 C192 326 176 333 167 342 C156 353 150 372 149 386 L79 386 Z M227 17 L272 -11 L735 650 L690 678 L227 17 Z M592 138 L683 241 L670 138 L592 138 Z M778 430 L453 76 L662 76 L653 0 L725 0 L734 76 L777 76 L785 142 L742 142 L778 430 Z " />
<glyph glyph-name="questiondown" unicode="&#xbf;" horiz-adv-x="434" d="M280 -48 C279 -75 282 -108 266 -129 C257 -140 240 -152 213 -152 C188 -152 175 -143 168 -136 C159 -127 152 -113 152 -95 C152 -80 156 -60 175 -42 C193 -25 219 -16 276 4 C306 15 339 35 358 54 C385 81 395 112 395 149 C395 181 388 218 357 246 C334 268 300 281 255 281 C198 281 164 261 143 240 C117 214 98 167 94 123 L192 123 C193 138 198 159 205 170 C212 180 225 191 248 191 C256 191 271 190 283 179 C294 169 296 156 296 146 C296 131 291 118 278 107 C275 104 262 94 202 73 C140 51 111 28 96 12 C67 -19 52 -61 52 -101 C52 -150 73 -182 91 -200 C122 -231 160 -242 203 -242 C260 -242 305 -224 333 -197 C380 -151 382 -85 382 -53 L382 -48 L280 -48 Z M211 383 C211 368 216 353 227 343 C237 333 253 329 267 329 C285 329 302 336 313 347 C326 360 333 377 333 394 C333 409 328 424 317 434 C309 442 297 449 278 449 C256 449 239 440 229 429 C218 417 211 400 211 383 L211 383 Z " />
<glyph glyph-name="Agrave" unicode="&#xc0;" horiz-adv-x="656" d="M544 0 L652 0 L423 706 L4 0 L116 0 L209 161 L494 161 L544 0 Z M263 257 L393 483 L465 257 L263 257 Z M453 727 L506 767 L385 906 L292 846 L453 727 Z " />
<glyph glyph-name="Aacute" unicode="&#xc1;" horiz-adv-x="656" d="M544 0 L652 0 L423 706 L4 0 L116 0 L209 161 L494 161 L544 0 Z M263 257 L393 483 L465 257 L263 257 Z M401 727 L592 846 L513 906 L358 767 L401 727 Z " />
<glyph glyph-name="Acircumflex" unicode="&#xc2;" horiz-adv-x="656" d="M544 0 L652 0 L423 706 L4 0 L116 0 L209 161 L494 161 L544 0 Z M263 257 L393 483 L465 257 L263 257 Z M429 812 L518 730 L588 786 L439 920 L258 786 L320 730 L429 812 Z " />
<glyph glyph-name="Atilde" unicode="&#xc3;" horiz-adv-x="656" d="M544 0 L652 0 L423 706 L4 0 L116 0 L209 161 L494 161 L544 0 Z M263 257 L393 483 L465 257 L263 257 Z M558 863 C555 858 547 844 535 830 C527 821 515 811 497 811 C483 811 468 819 447 830 L428 840 C409 850 391 855 368 855 C341 855 316 846 294 828 C278 815 256 789 245 774 L299 733 C307 748 316 757 321 761 C329 768 340 775 355 775 C370 775 386 768 404 759 L425 749 C445 740 460 733 486 733 C514 733 537 738 562 759 C579 773 598 797 610 817 L558 863 Z " />
<glyph glyph-name="Adieresis" unicode="&#xc4;" horiz-adv-x="656" d="M544 0 L652 0 L423 706 L4 0 L116 0 L209 161 L494 161 L544 0 Z M263 257 L393 483 L465 257 L263 257 Z M463 788 C463 773 468 758 479 748 C487 740 499 733 518 733 C537 733 554 740 567 752 C579 763 588 780 588 801 C588 819 581 833 572 842 C561 854 547 857 534 857 C512 857 495 848 484 837 C472 825 463 807 463 788 L463 788 Z M268 788 C268 773 273 758 284 748 C292 740 304 733 323 733 C342 733 359 740 372 752 C384 763 393 780 393 801 C393 819 386 833 377 842 C366 854 352 857 339 857 C317 857 300 848 289 837 C277 825 268 807 268 788 L268 788 Z " />
<glyph glyph-name="Aring" unicode="&#xc5;" horiz-adv-x="656" d="M544 0 L652 0 L423 706 L4 0 L116 0 L209 161 L494 161 L544 0 Z M263 257 L393 483 L465 257 L263 257 Z M333 815 C333 787 343 766 359 750 C378 731 398 726 422 726 C454 726 479 735 500 756 C520 776 529 801 529 832 C529 852 524 877 504 896 C494 906 473 920 440 920 C407 920 379 907 360 886 C347 872 333 849 333 815 L333 815 Z M388 819 C388 832 394 845 402 853 C410 860 422 866 436 866 C449 866 457 861 463 855 C469 849 474 841 474 828 C474 816 470 803 461 794 C453 786 440 780 426 780 C414 780 405 784 399 790 C393 796 388 806 388 819 L388 819 Z " />
<glyph glyph-name="AE" unicode="&#xc6;" horiz-adv-x="926" d="M546 0 L916 0 L886 96 L621 96 L553 316 L811 316 L781 412 L523 412 L472 571 L737 571 L707 667 L412 667 L10 0 L120 0 L213 159 L496 159 L546 0 Z M269 255 L399 472 L467 255 L269 255 Z " />
<glyph glyph-name="Ccedilla" unicode="&#xc7;" horiz-adv-x="622" d="M653 631 C582 666 524 679 463 679 C361 679 272 648 199 577 C135 514 89 424 89 301 C89 202 120 128 178 70 C244 4 317 -13 397 -13 C444 -13 500 -7 581 37 L595 158 C560 128 495 81 406 81 C338 81 287 103 249 144 C217 178 191 229 191 301 C191 391 226 470 275 517 C322 562 386 585 456 585 C500 585 576 574 639 511 L653 631 Z M373 -53 L266 -192 L326 -224 L455 -91 L373 -53 Z " />
<glyph glyph-name="Egrave" unicode="&#xc8;" horiz-adv-x="500" d="M530 667 L162 667 L80 0 L448 0 L460 96 L194 96 L220 306 L478 306 L490 402 L232 402 L252 571 L518 571 L530 667 Z M375 727 L428 767 L307 906 L214 846 L375 727 Z " />
<glyph glyph-name="Eacute" unicode="&#xc9;" horiz-adv-x="500" d="M530 667 L162 667 L80 0 L448 0 L460 96 L194 96 L220 306 L478 306 L490 402 L232 402 L252 571 L518 571 L530 667 Z M323 727 L514 846 L435 906 L280 767 L323 727 Z " />
<glyph glyph-name="Ecircumflex" unicode="&#xca;" horiz-adv-x="500" d="M530 667 L162 667 L80 0 L448 0 L460 96 L194 96 L220 306 L478 306 L490 402 L232 402 L252 571 L518 571 L530 667 Z M373 812 L462 730 L532 786 L383 920 L202 786 L264 730 L373 812 Z " />
<glyph glyph-name="Edieresis" unicode="&#xcb;" horiz-adv-x="500" d="M530 667 L162 667 L80 0 L448 0 L460 96 L194 96 L220 306 L478 306 L490 402 L232 402 L252 571 L518 571 L530 667 Z M403 788 C403 773 408 758 419 748 C427 740 439 733 458 733 C477 733 494 740 507 752 C519 763 528 780 528 801 C528 819 521 833 512 842 C501 854 487 857 474 857 C452 857 435 848 424 837 C412 825 403 807 403 788 L403 788 Z M208 788 C208 773 213 758 224 748 C232 740 244 733 263 733 C282 733 299 740 312 752 C324 763 333 780 333 801 C333 819 326 833 317 842 C306 854 292 857 279 857 C257 857 240 848 229 837 C217 825 208 807 208 788 L208 788 Z " />
<glyph glyph-name="Igrave" unicode="&#xcc;" horiz-adv-x="262" d="M162 667 L80 0 L182 0 L264 667 L162 667 Z M217 713 L277 740 L200 909 L97 874 L217 713 Z " />
<glyph glyph-name="Iacute" unicode="&#xcd;" horiz-adv-x="262" d="M162 667 L80 0 L182 0 L264 667 L162 667 Z M286 909 L167 740 L221 713 L379 874 L286 909 Z " />
<glyph glyph-name="Icircumflex" unicode="&#xce;" horiz-adv-x="262" d="M162 667 L80 0 L182 0 L264 667 L162 667 Z M231 812 L300 735 L365 784 L243 915 L89 784 L142 735 L231 812 Z " />
<glyph glyph-name="Idieresis" unicode="&#xcf;" horiz-adv-x="262" d="M162 667 L80 0 L182 0 L264 667 L162 667 Z M245 789 C245 775 251 762 259 753 C267 745 278 739 290 739 C302 739 317 744 328 757 C339 769 346 786 346 803 C346 811 344 824 334 836 C325 847 313 851 302 851 C289 851 275 845 264 835 C252 823 245 805 245 789 L245 789 Z M112 788 C112 775 118 762 126 753 C134 745 145 739 157 739 C169 739 184 744 195 757 C206 769 213 786 213 803 C213 811 211 824 201 836 C193 845 182 851 169 851 C158 851 144 848 131 834 C119 822 112 804 112 788 L112 788 Z " />
<glyph glyph-name="Eth" unicode="&#xd0;" horiz-adv-x="646" d="M130 410 L50 410 L40 324 L120 324 L80 0 L179 0 L204 0 C313 0 449 10 545 106 C622 183 639 277 639 366 C639 435 629 517 558 584 C480 658 377 667 302 667 L162 667 L130 410 Z M252 571 L296 571 C343 571 427 568 482 512 C514 479 537 425 537 352 C537 256 499 202 481 181 C412 100 305 96 238 96 L194 96 L222 324 L362 324 L372 410 L232 410 L252 571 Z " />
<glyph glyph-name="Ntilde" unicode="&#xd1;" horiz-adv-x="746" d="M182 0 L239 466 L661 -41 L748 667 L646 667 L589 205 L167 712 L80 0 L182 0 Z M598 863 C595 858 587 844 575 830 C567 821 555 811 537 811 C523 811 508 819 487 830 L468 840 C449 850 431 855 408 855 C381 855 356 846 334 828 C318 815 296 789 285 774 L339 733 C347 748 356 757 361 761 C369 768 380 775 395 775 C410 775 426 768 444 759 L465 749 C485 740 500 733 526 733 C554 733 577 738 602 759 C619 773 638 797 650 817 L598 863 Z " />
<glyph glyph-name="Ograve" unicode="&#xd2;" horiz-adv-x="796" d="M478 679 C364 679 264 640 198 574 C131 508 89 406 89 300 C89 207 125 127 178 73 C242 7 318 -13 409 -13 C493 -13 596 1 684 90 C734 141 789 229 789 366 C789 423 779 517 703 592 C664 631 594 679 478 679 L478 679 Z M410 81 C354 81 299 95 252 145 C226 172 190 224 190 307 C190 397 227 466 273 511 C329 566 394 585 458 585 C532 585 590 555 627 517 C655 488 687 438 687 360 C687 282 657 203 606 153 C562 109 498 81 410 81 L410 81 Z M525 727 L578 767 L457 906 L364 846 L525 727 Z " />
<glyph glyph-name="Oacute" unicode="&#xd3;" horiz-adv-x="796" d="M478 679 C364 679 264 640 198 574 C131 508 89 406 89 300 C89 207 125 127 178 73 C242 7 318 -13 409 -13 C493 -13 596 1 684 90 C734 141 789 229 789 366 C789 423 779 517 703 592 C664 631 594 679 478 679 L478 679 Z M410 81 C354 81 299 95 252 145 C226 172 190 224 190 307 C190 397 227 466 273 511 C329 566 394 585 458 585 C532 585 590 555 627 517 C655 488 687 438 687 360 C687 282 657 203 606 153 C562 109 498 81 410 81 L410 81 Z M443 727 L634 846 L555 906 L400 767 L443 727 Z " />
<glyph glyph-name="Ocircumflex" unicode="&#xd4;" horiz-adv-x="796" d="M478 679 C364 679 264 640 198 574 C131 508 89 406 89 300 C89 207 125 127 178 73 C242 7 318 -13 409 -13 C493 -13 596 1 684 90 C734 141 789 229 789 366 C789 423 779 517 703 592 C664 631 594 679 478 679 L478 679 Z M410 81 C354 81 299 95 252 145 C226 172 190 224 190 307 C190 397 227 466 273 511 C329 566 394 585 458 585 C532 585 590 555 627 517 C655 488 687 438 687 360 C687 282 657 203 606 153 C562 109 498 81 410 81 L410 81 Z M498 812 L587 730 L657 786 L508 920 L327 786 L389 730 L498 812 Z " />
<glyph glyph-name="Otilde" unicode="&#xd5;" horiz-adv-x="796" d="M478 679 C364 679 264 640 198 574 C131 508 89 406 89 300 C89 207 125 127 178 73 C242 7 318 -13 409 -13 C493 -13 596 1 684 90 C734 141 789 229 789 366 C789 423 779 517 703 592 C664 631 594 679 478 679 L478 679 Z M410 81 C354 81 299 95 252 145 C226 172 190 224 190 307 C190 397 227 466 273 511 C329 566 394 585 458 585 C532 585 590 555 627 517 C655 488 687 438 687 360 C687 282 657 203 606 153 C562 109 498 81 410 81 L410 81 Z M623 863 C620 858 612 844 600 830 C592 821 580 811 562 811 C548 811 533 819 512 830 L493 840 C474 850 456 855 433 855 C406 855 381 846 359 828 C343 815 321 789 310 774 L364 733 C372 748 381 757 386 761 C394 768 405 775 420 775 C435 775 451 768 469 759 L490 749 C510 740 525 733 551 733 C579 733 602 738 627 759 C644 773 663 797 675 817 L623 863 Z " />
<glyph glyph-name="Odieresis" unicode="&#xd6;" horiz-adv-x="796" d="M478 679 C364 679 264 640 198 574 C131 508 89 406 89 300 C89 207 125 127 178 73 C242 7 318 -13 409 -13 C493 -13 596 1 684 90 C734 141 789 229 789 366 C789 423 779 517 703 592 C664 631 594 679 478 679 L478 679 Z M410 81 C354 81 299 95 252 145 C226 172 190 224 190 307 C190 397 227 466 273 511 C329 566 394 585 458 585 C532 585 590 555 627 517 C655 488 687 438 687 360 C687 282 657 203 606 153 C562 109 498 81 410 81 L410 81 Z M523 788 C523 773 528 758 539 748 C547 740 559 733 578 733 C597 733 614 740 627 752 C639 763 648 780 648 801 C648 819 641 833 632 842 C621 854 607 857 594 857 C572 857 555 848 544 837 C532 825 523 807 523 788 L523 788 Z M328 788 C328 773 333 758 344 748 C352 740 364 733 383 733 C402 733 419 740 432 752 C444 763 453 780 453 801 C453 819 446 833 437 842 C426 854 412 857 399 857 C377 857 360 848 349 837 C337 825 328 807 328 788 L328 788 Z " />
<glyph glyph-name="multiply" unicode="&#xd7;" horiz-adv-x="500" d="M86 193 L149 130 L292 272 L435 130 L498 193 L356 336 L498 479 L435 542 L292 400 L149 542 L86 479 L228 336 L86 193 Z " />
<glyph glyph-name="Oslash" unicode="&#xd8;" horiz-adv-x="796" d="M26 27 L76 -30 L181 64 C244 7 307 -13 402 -13 C486 -13 589 1 677 90 C727 141 782 229 782 367 C782 436 768 492 730 551 L838 647 L788 704 L679 607 C627 648 564 679 466 679 C339 679 246 628 191 574 C124 508 82 406 82 300 C82 229 102 172 133 122 L26 27 Z M649 479 C672 441 680 405 680 364 C680 281 650 203 599 153 C564 118 502 81 407 81 C350 81 304 95 258 132 L649 479 Z M212 192 C199 217 183 257 183 310 C183 383 210 456 266 511 C322 566 388 585 451 585 C516 585 564 562 599 536 L212 192 Z " />
<glyph glyph-name="Ugrave" unicode="&#xd9;" horiz-adv-x="656" d="M164 667 L120 313 C111 243 109 221 109 202 C109 135 132 91 153 65 C198 8 260 -13 334 -13 C418 -13 476 15 511 44 C549 76 593 139 605 238 L658 667 L556 667 L507 265 C501 214 495 166 453 124 C431 103 396 81 342 81 C295 81 266 99 248 117 C217 148 213 184 213 216 C213 245 218 272 220 292 L266 667 L164 667 Z M432 727 L485 767 L364 906 L271 846 L432 727 Z " />
<glyph glyph-name="Uacute" unicode="&#xda;" horiz-adv-x="656" d="M164 667 L120 313 C111 243 109 221 109 202 C109 135 132 91 153 65 C198 8 260 -13 334 -13 C418 -13 476 15 511 44 C549 76 593 139 605 238 L658 667 L556 667 L507 265 C501 214 495 166 453 124 C431 103 396 81 342 81 C295 81 266 99 248 117 C217 148 213 184 213 216 C213 245 218 272 220 292 L266 667 L164 667 Z M400 727 L591 846 L512 906 L357 767 L400 727 Z " />
<glyph glyph-name="Ucircumflex" unicode="&#xdb;" horiz-adv-x="656" d="M164 667 L120 313 C111 243 109 221 109 202 C109 135 132 91 153 65 C198 8 260 -13 334 -13 C418 -13 476 15 511 44 C549 76 593 139 605 238 L658 667 L556 667 L507 265 C501 214 495 166 453 124 C431 103 396 81 342 81 C295 81 266 99 248 117 C217 148 213 184 213 216 C213 245 218 272 220 292 L266 667 L164 667 Z M430 812 L519 730 L589 786 L440 920 L259 786 L321 730 L430 812 Z " />
<glyph glyph-name="Udieresis" unicode="&#xdc;" horiz-adv-x="656" d="M164 667 L120 313 C111 243 109 221 109 202 C109 135 132 91 153 65 C198 8 260 -13 334 -13 C418 -13 476 15 511 44 C549 76 593 139 605 238 L658 667 L556 667 L507 265 C501 214 495 166 453 124 C431 103 396 81 342 81 C295 81 266 99 248 117 C217 148 213 184 213 216 C213 245 218 272 220 292 L266 667 L164 667 Z M460 788 C460 773 465 758 476 748 C484 740 496 733 515 733 C534 733 551 740 564 752 C576 763 585 780 585 801 C585 819 578 833 569 842 C558 854 544 857 531 857 C509 857 492 848 481 837 C469 825 460 807 460 788 L460 788 Z M265 788 C265 773 270 758 281 748 C289 740 301 733 320 733 C339 733 356 740 369 752 C381 763 390 780 390 801 C390 819 383 833 374 842 C363 854 349 857 336 857 C314 857 297 848 286 837 C274 825 265 807 265 788 L265 788 Z " />
<glyph glyph-name="Yacute" unicode="&#xdd;" horiz-adv-x="540" d="M219 0 L321 0 L356 288 L622 667 L504 667 L317 400 L196 667 L82 667 L254 288 L219 0 Z M343 727 L534 846 L455 906 L300 767 L343 727 Z " />
<glyph glyph-name="Thorn" unicode="&#xde;" horiz-adv-x="482" d="M162 667 L80 0 L182 0 L203 171 L237 171 C324 171 396 185 446 235 C474 263 503 310 503 385 C503 451 478 492 454 515 C402 565 322 567 293 567 L252 567 L264 667 L162 667 Z M240 473 L283 473 C304 473 347 472 374 450 C391 436 405 413 405 379 C405 343 391 313 371 296 C344 272 301 265 253 265 L215 265 L240 473 Z " />
<glyph glyph-name="germandbls" unicode="&#xdf;" horiz-adv-x="559" d="M167 0 L232 532 C235 559 244 598 272 625 C292 644 316 653 346 653 C367 653 392 649 412 630 C427 615 438 593 438 565 C438 538 428 508 411 489 C382 457 341 455 321 455 L308 455 L297 366 C328 366 381 360 413 330 C433 311 447 280 447 244 C447 205 431 161 398 130 C365 99 312 80 262 80 L250 -14 C314 -14 407 1 476 73 C525 124 547 185 547 257 C547 294 540 337 510 372 C494 391 469 409 446 421 C475 435 495 456 509 478 C520 497 534 527 534 571 C534 629 512 668 486 693 C445 733 396 741 352 741 C302 741 244 730 198 682 C153 636 140 575 134 527 L121 421 L51 421 L40 334 L110 334 L69 0 L167 0 Z " />
<glyph glyph-name="agrave" unicode="&#xe0;" horiz-adv-x="532" d="M418 372 C404 391 387 405 370 414 C346 427 321 432 293 432 C234 432 182 416 139 373 C88 322 66 249 66 185 C66 121 91 65 124 33 C145 13 182 -13 244 -13 C271 -13 300 -7 321 2 C342 11 363 29 377 44 L372 0 L470 0 L522 421 L424 421 L418 372 Z M298 344 C334 344 358 331 373 316 C394 295 406 262 406 227 C406 186 391 141 363 112 C345 94 315 75 271 75 C241 75 218 86 200 105 C181 125 167 156 167 193 C167 240 187 285 214 311 C231 327 258 344 298 344 L298 344 Z M326 485 L384 519 L283 675 L187 629 L326 485 Z " />
<glyph glyph-name="aacute" unicode="&#xe1;" horiz-adv-x="532" d="M418 372 C404 391 387 405 370 414 C346 427 321 432 293 432 C234 432 182 416 139 373 C88 322 66 249 66 185 C66 121 91 65 124 33 C145 13 182 -13 244 -13 C271 -13 300 -7 321 2 C342 11 363 29 377 44 L372 0 L470 0 L522 421 L424 421 L418 372 Z M298 344 C334 344 358 331 373 316 C394 295 406 262 406 227 C406 186 391 141 363 112 C345 94 315 75 271 75 C241 75 218 86 200 105 C181 125 167 156 167 193 C167 240 187 285 214 311 C231 327 258 344 298 344 L298 344 Z M388 675 L249 519 L299 485 L472 629 L388 675 Z " />
<glyph glyph-name="acircumflex" unicode="&#xe2;" horiz-adv-x="532" d="M418 372 C404 391 387 405 370 414 C346 427 321 432 293 432 C234 432 182 416 139 373 C88 322 66 249 66 185 C66 121 91 65 124 33 C145 13 182 -13 244 -13 C271 -13 300 -7 321 2 C342 11 363 29 377 44 L372 0 L470 0 L522 421 L424 421 L418 372 Z M298 344 C334 344 358 331 373 316 C394 295 406 262 406 227 C406 186 391 141 363 112 C345 94 315 75 271 75 C241 75 218 86 200 105 C181 125 167 156 167 193 C167 240 187 285 214 311 C231 327 258 344 298 344 L298 344 Z M322 571 L400 485 L470 537 L333 675 L162 537 L224 485 L322 571 Z " />
<glyph glyph-name="atilde" unicode="&#xe3;" horiz-adv-x="532" d="M418 372 C404 391 387 405 370 414 C346 427 321 432 293 432 C234 432 182 416 139 373 C88 322 66 249 66 185 C66 121 91 65 124 33 C145 13 182 -13 244 -13 C271 -13 300 -7 321 2 C342 11 363 29 377 44 L372 0 L470 0 L522 421 L424 421 L418 372 Z M298 344 C334 344 358 331 373 316 C394 295 406 262 406 227 C406 186 391 141 363 112 C345 94 315 75 271 75 C241 75 218 86 200 105 C181 125 167 156 167 193 C167 240 187 285 214 311 C231 327 258 344 298 344 L298 344 Z M448 622 C443 610 436 598 427 587 C417 575 407 566 388 566 C369 566 354 575 341 584 L326 594 C313 602 291 614 259 614 C228 614 206 604 184 587 C166 573 148 551 135 533 L189 492 C195 502 203 514 210 521 C219 531 230 538 246 538 C265 538 282 528 296 520 L316 508 C331 499 350 490 376 490 C402 490 430 499 456 521 C475 537 491 558 501 576 L448 622 Z " />
<glyph glyph-name="adieresis" unicode="&#xe4;" horiz-adv-x="532" d="M418 372 C404 391 387 405 370 414 C346 427 321 432 293 432 C234 432 182 416 139 373 C88 322 66 249 66 185 C66 121 91 65 124 33 C145 13 182 -13 244 -13 C271 -13 300 -7 321 2 C342 11 363 29 377 44 L372 0 L470 0 L522 421 L424 421 L418 372 Z M298 344 C334 344 358 331 373 316 C394 295 406 262 406 227 C406 186 391 141 363 112 C345 94 315 75 271 75 C241 75 218 86 200 105 C181 125 167 156 167 193 C167 240 187 285 214 311 C231 327 258 344 298 344 L298 344 Z M165 569 C160 535 185 507 219 507 C253 507 284 535 289 569 C293 603 268 631 234 631 C200 631 169 603 165 569 L165 569 Z M345 569 C340 535 365 507 399 507 C433 507 464 535 469 569 C473 603 448 631 414 631 C380 631 349 603 345 569 L345 569 Z " />
<glyph glyph-name="aring" unicode="&#xe5;" horiz-adv-x="532" d="M418 372 C404 391 387 405 370 414 C346 427 321 432 293 432 C234 432 182 416 139 373 C88 322 66 249 66 185 C66 121 91 65 124 33 C145 13 182 -13 244 -13 C271 -13 300 -7 321 2 C342 11 363 29 377 44 L372 0 L470 0 L522 421 L424 421 L418 372 Z M298 344 C334 344 358 331 373 316 C394 295 406 262 406 227 C406 186 391 141 363 112 C345 94 315 75 271 75 C241 75 218 86 200 105 C181 125 167 156 167 193 C167 240 187 285 214 311 C231 327 258 344 298 344 L298 344 Z M226 573 C226 544 237 525 250 511 C266 495 289 485 317 485 C349 485 373 499 387 513 C399 525 416 549 416 588 C416 603 413 629 391 650 C378 662 358 673 327 673 C293 673 269 661 252 643 C240 630 226 607 226 573 L226 573 Z M277 575 C277 588 281 599 289 608 C296 615 306 622 323 622 C334 622 344 619 351 613 C357 608 364 598 364 584 C364 569 359 556 350 548 C342 540 329 536 317 536 C306 536 295 540 288 547 C282 553 277 563 277 575 L277 575 Z " />
<glyph glyph-name="ae" unicode="&#xe6;" horiz-adv-x="762" d="M140 328 C184 340 216 344 252 344 C276 344 303 341 322 327 C335 317 349 299 349 267 C349 260 349 252 347 243 C329 255 297 271 234 271 C171 271 126 251 99 225 C74 201 56 166 56 124 C56 73 80 38 106 19 C135 -3 174 -13 216 -13 C249 -13 286 -8 313 4 C336 14 360 31 379 55 C396 32 416 16 438 6 C468 -8 503 -13 531 -13 C579 -13 619 -1 649 17 C677 34 706 61 727 96 L650 142 C640 124 623 105 606 94 C587 82 562 75 539 75 C506 75 483 88 470 102 C450 123 439 157 439 187 L740 187 C744 206 745 223 745 236 C745 297 725 349 693 383 C653 424 606 432 566 432 C533 432 505 427 471 412 C448 402 431 390 414 374 C397 398 376 410 361 417 C335 428 298 432 270 432 C232 432 189 427 151 419 L140 328 Z M244 187 C261 187 286 185 305 172 C318 163 327 151 327 134 C327 119 321 101 299 87 C274 71 240 71 232 71 C201 71 184 80 175 86 C159 97 151 111 151 125 C151 138 156 153 169 164 C189 181 221 187 244 187 L244 187 Z M454 267 C462 287 476 309 493 323 C514 340 539 348 564 348 C588 348 611 340 625 325 C637 312 647 288 650 267 L454 267 Z " />
<glyph glyph-name="ccedilla" unicode="&#xe7;" horiz-adv-x="422" d="M439 396 C408 416 368 432 308 432 C245 432 186 416 136 367 C104 335 66 279 66 194 C66 115 98 67 125 41 C165 1 213 -13 268 -13 C333 -13 367 -1 393 16 L406 126 C386 104 365 94 358 90 C328 76 300 75 290 75 C257 75 224 86 203 106 C183 125 167 158 167 198 C167 238 181 275 207 302 C230 326 267 344 314 344 C337 344 355 339 376 328 C399 316 415 301 426 290 L439 396 Z M241 -53 L141 -187 L201 -219 L320 -85 L241 -53 Z " />
<glyph glyph-name="egrave" unicode="&#xe8;" horiz-adv-x="489" d="M377 142 C367 124 350 105 333 94 C314 82 289 75 266 75 C233 75 210 88 197 102 C177 123 166 157 166 187 L467 187 C471 206 472 223 472 236 C472 297 452 350 420 383 C381 424 332 432 293 432 C230 432 180 410 139 370 C93 325 66 262 66 190 C66 124 90 73 123 40 C161 1 206 -13 258 -13 C314 -13 352 3 376 17 C404 34 433 61 454 96 L377 142 Z M181 267 C189 287 203 309 220 323 C241 340 266 348 291 348 C315 348 338 340 352 325 C364 312 374 288 377 267 L181 267 Z M331 485 L389 519 L288 675 L192 629 L331 485 Z " />
<glyph glyph-name="eacute" unicode="&#xe9;" horiz-adv-x="489" d="M377 142 C367 124 350 105 333 94 C314 82 289 75 266 75 C233 75 210 88 197 102 C177 123 166 157 166 187 L467 187 C471 206 472 223 472 236 C472 297 452 350 420 383 C381 424 332 432 293 432 C230 432 180 410 139 370 C93 325 66 262 66 190 C66 124 90 73 123 40 C161 1 206 -13 258 -13 C314 -13 352 3 376 17 C404 34 433 61 454 96 L377 142 Z M181 267 C189 287 203 309 220 323 C241 340 266 348 291 348 C315 348 338 340 352 325 C364 312 374 288 377 267 L181 267 Z M388 675 L249 519 L299 485 L472 629 L388 675 Z " />
<glyph glyph-name="ecircumflex" unicode="&#xea;" horiz-adv-x="489" d="M377 142 C367 124 350 105 333 94 C314 82 289 75 266 75 C233 75 210 88 197 102 C177 123 166 157 166 187 L467 187 C471 206 472 223 472 236 C472 297 452 350 420 383 C381 424 332 432 293 432 C230 432 180 410 139 370 C93 325 66 262 66 190 C66 124 90 73 123 40 C161 1 206 -13 258 -13 C314 -13 352 3 376 17 C404 34 433 61 454 96 L377 142 Z M181 267 C189 287 203 309 220 323 C241 340 266 348 291 348 C315 348 338 340 352 325 C364 312 374 288 377 267 L181 267 Z M308 571 L386 485 L456 537 L319 675 L148 537 L210 485 L308 571 Z " />
<glyph glyph-name="edieresis" unicode="&#xeb;" horiz-adv-x="489" d="M377 142 C367 124 350 105 333 94 C314 82 289 75 266 75 C233 75 210 88 197 102 C177 123 166 157 166 187 L467 187 C471 206 472 223 472 236 C472 297 452 350 420 383 C381 424 332 432 293 432 C230 432 180 410 139 370 C93 325 66 262 66 190 C66 124 90 73 123 40 C161 1 206 -13 258 -13 C314 -13 352 3 376 17 C404 34 433 61 454 96 L377 142 Z M181 267 C189 287 203 309 220 323 C241 340 266 348 291 348 C315 348 338 340 352 325 C364 312 374 288 377 267 L181 267 Z M151 569 C146 535 171 507 205 507 C239 507 270 535 275 569 C279 603 254 631 220 631 C186 631 155 603 151 569 L151 569 Z M331 569 C326 535 351 507 385 507 C419 507 450 535 455 569 C459 603 434 631 400 631 C366 631 335 603 331 569 L331 569 Z " />
<glyph glyph-name="igrave" unicode="&#xec;" horiz-adv-x="223" d="M115 421 L63 0 L161 0 L213 421 L115 421 Z M169 475 L232 493 L180 676 L76 653 L169 475 Z " />
<glyph glyph-name="iacute" unicode="&#xed;" horiz-adv-x="223" d="M115 421 L63 0 L161 0 L213 421 L115 421 Z M210 676 L114 493 L171 475 L308 653 L210 676 Z " />
<glyph glyph-name="icircumflex" unicode="&#xee;" horiz-adv-x="223" d="M115 421 L63 0 L161 0 L213 421 L115 421 Z M182 568 L243 495 L302 541 L194 666 L54 541 L103 495 L182 568 Z " />
<glyph glyph-name="idieresis" unicode="&#xef;" horiz-adv-x="223" d="M115 421 L63 0 L161 0 L213 421 L115 421 Z M30 569 C25 535 50 507 84 507 C118 507 149 535 154 569 C158 603 133 631 99 631 C65 631 34 603 30 569 L30 569 Z M210 569 C205 535 230 507 264 507 C298 507 329 535 334 569 C338 603 313 631 279 631 C245 631 214 603 210 569 L210 569 Z " />
<glyph glyph-name="eth" unicode="&#xf0;" horiz-adv-x="527" d="M156 593 C199 594 240 586 279 569 L138 524 L155 465 L340 524 C412 475 422 404 424 385 C406 404 369 432 297 432 C208 432 154 389 131 364 C94 325 65 263 65 188 C65 128 84 80 120 43 C165 -3 216 -13 277 -13 C336 -13 388 -2 439 47 C512 117 525 221 525 317 C525 359 522 412 502 462 C485 504 461 535 438 556 L541 588 L524 646 L391 604 C361 625 298 664 196 670 L156 593 Z M273 75 C238 75 213 87 197 103 C179 120 165 150 165 192 C165 233 179 277 205 305 C230 331 266 344 300 344 C327 344 356 336 377 319 C394 305 415 276 415 226 C415 181 399 143 375 117 C354 94 321 75 273 75 L273 75 Z " />
<glyph glyph-name="ntilde" unicode="&#xf1;" horiz-adv-x="485" d="M61 0 L159 0 L184 203 C190 253 199 296 225 321 C233 329 253 344 288 344 C306 344 325 339 338 327 C354 312 357 290 357 273 C357 269 357 254 352 217 L325 0 L423 0 L449 207 C456 262 458 280 458 296 C458 340 442 374 420 396 C402 414 371 432 320 432 C295 432 273 428 248 416 C232 408 219 399 206 383 L211 421 L113 421 L61 0 Z M441 622 C436 610 429 598 420 587 C410 575 400 566 381 566 C362 566 347 575 334 584 L319 594 C306 602 284 614 252 614 C221 614 199 604 177 587 C159 573 141 551 128 533 L182 492 C188 502 196 514 203 521 C212 531 223 538 239 538 C258 538 275 528 289 520 L309 508 C324 499 343 490 369 490 C395 490 423 499 449 521 C468 537 484 558 494 576 L441 622 Z " />
<glyph glyph-name="ograve" unicode="&#xf2;" horiz-adv-x="534" d="M313 432 C241 432 185 411 139 367 C95 325 66 264 66 191 C66 123 93 76 124 44 C170 -3 220 -13 274 -13 C342 -13 396 3 447 52 C509 112 520 182 520 230 C520 300 490 348 463 376 C415 424 357 432 313 432 L313 432 Z M287 75 C235 75 207 101 197 112 C177 135 166 167 166 199 C166 242 183 282 212 309 C231 327 262 344 307 344 C339 344 366 334 387 312 C415 283 420 247 420 224 C420 179 404 141 380 115 C353 86 321 75 287 75 L287 75 Z M331 485 L389 519 L288 675 L192 629 L331 485 Z " />
<glyph glyph-name="oacute" unicode="&#xf3;" horiz-adv-x="534" d="M313 432 C241 432 185 411 139 367 C95 325 66 264 66 191 C66 123 93 76 124 44 C170 -3 220 -13 274 -13 C342 -13 396 3 447 52 C509 112 520 182 520 230 C520 300 490 348 463 376 C415 424 357 432 313 432 L313 432 Z M287 75 C235 75 207 101 197 112 C177 135 166 167 166 199 C166 242 183 282 212 309 C231 327 262 344 307 344 C339 344 366 334 387 312 C415 283 420 247 420 224 C420 179 404 141 380 115 C353 86 321 75 287 75 L287 75 Z M403 675 L264 519 L314 485 L487 629 L403 675 Z " />
<glyph glyph-name="ocircumflex" unicode="&#xf4;" horiz-adv-x="534" d="M313 432 C241 432 185 411 139 367 C95 325 66 264 66 191 C66 123 93 76 124 44 C170 -3 220 -13 274 -13 C342 -13 396 3 447 52 C509 112 520 182 520 230 C520 300 490 348 463 376 C415 424 357 432 313 432 L313 432 Z M287 75 C235 75 207 101 197 112 C177 135 166 167 166 199 C166 242 183 282 212 309 C231 327 262 344 307 344 C339 344 366 334 387 312 C415 283 420 247 420 224 C420 179 404 141 380 115 C353 86 321 75 287 75 L287 75 Z M327 571 L405 485 L475 537 L338 675 L167 537 L229 485 L327 571 Z " />
<glyph glyph-name="otilde" unicode="&#xf5;" horiz-adv-x="534" d="M313 432 C241 432 185 411 139 367 C95 325 66 264 66 191 C66 123 93 76 124 44 C170 -3 220 -13 274 -13 C342 -13 396 3 447 52 C509 112 520 182 520 230 C520 300 490 348 463 376 C415 424 357 432 313 432 L313 432 Z M287 75 C235 75 207 101 197 112 C177 135 166 167 166 199 C166 242 183 282 212 309 C231 327 262 344 307 344 C339 344 366 334 387 312 C415 283 420 247 420 224 C420 179 404 141 380 115 C353 86 321 75 287 75 L287 75 Z M453 622 C448 610 441 598 432 587 C422 575 412 566 393 566 C374 566 359 575 346 584 L331 594 C318 602 296 614 264 614 C233 614 211 604 189 587 C171 573 153 551 140 533 L194 492 C200 502 208 514 215 521 C224 531 235 538 251 538 C270 538 287 528 301 520 L321 508 C336 499 355 490 381 490 C407 490 435 499 461 521 C480 537 496 558 506 576 L453 622 Z " />
<glyph glyph-name="odieresis" unicode="&#xf6;" horiz-adv-x="534" d="M313 432 C241 432 185 411 139 367 C95 325 66 264 66 191 C66 123 93 76 124 44 C170 -3 220 -13 274 -13 C342 -13 396 3 447 52 C509 112 520 182 520 230 C520 300 490 348 463 376 C415 424 357 432 313 432 L313 432 Z M287 75 C235 75 207 101 197 112 C177 135 166 167 166 199 C166 242 183 282 212 309 C231 327 262 344 307 344 C339 344 366 334 387 312 C415 283 420 247 420 224 C420 179 404 141 380 115 C353 86 321 75 287 75 L287 75 Z M170 569 C165 535 190 507 224 507 C258 507 289 535 294 569 C298 603 273 631 239 631 C205 631 174 603 170 569 L170 569 Z M350 569 C345 535 370 507 404 507 C438 507 469 535 474 569 C478 603 453 631 419 631 C385 631 354 603 350 569 L350 569 Z " />
<glyph glyph-name="divide" unicode="&#xf7;" horiz-adv-x="500" d="M232 513 C232 480 259 453 292 453 C325 453 352 480 352 513 C352 546 325 573 292 573 C259 573 232 546 232 513 L232 513 Z M232 159 C232 126 259 99 292 99 C325 99 352 126 352 159 C352 192 325 219 292 219 C259 219 232 192 232 159 L232 159 Z M75 291 L509 291 L509 381 L75 381 L75 291 Z " />
<glyph glyph-name="oslash" unicode="&#xf8;" horiz-adv-x="534" d="M15 7 L59 -39 L137 30 C176 -1 213 -13 270 -13 C340 -13 395 3 445 52 C507 112 518 182 518 230 C518 272 508 308 487 343 L567 415 L529 461 L447 389 C403 422 361 432 310 432 C239 432 183 411 137 367 C86 318 64 251 64 191 C64 141 82 103 96 80 L15 7 Z M409 274 C415 259 418 242 418 222 C418 177 402 140 378 115 C351 86 319 75 283 75 C252 75 231 83 211 97 L409 274 Z M174 147 C168 162 164 178 164 199 C164 242 181 282 210 309 C234 331 266 344 307 344 C332 344 352 339 372 323 L174 147 Z " />
<glyph glyph-name="ugrave" unicode="&#xf9;" horiz-adv-x="485" d="M115 421 L87 192 C84 166 82 149 82 135 C82 96 96 59 121 33 C147 6 192 -13 255 -13 C323 -13 365 10 388 32 C432 74 440 134 445 177 L475 421 L377 421 L347 180 C343 151 339 118 317 97 C303 84 278 75 256 75 C236 75 214 82 201 95 C191 105 181 123 181 153 C181 166 183 180 186 202 L213 421 L115 421 Z M301 485 L359 519 L258 675 L162 629 L301 485 Z " />
<glyph glyph-name="uacute" unicode="&#xfa;" horiz-adv-x="485" d="M115 421 L87 192 C84 166 82 149 82 135 C82 96 96 59 121 33 C147 6 192 -13 255 -13 C323 -13 365 10 388 32 C432 74 440 134 445 177 L475 421 L377 421 L347 180 C343 151 339 118 317 97 C303 84 278 75 256 75 C236 75 214 82 201 95 C191 105 181 123 181 153 C181 166 183 180 186 202 L213 421 L115 421 Z M388 675 L249 519 L299 485 L472 629 L388 675 Z " />
<glyph glyph-name="ucircumflex" unicode="&#xfb;" horiz-adv-x="485" d="M115 421 L87 192 C84 166 82 149 82 135 C82 96 96 59 121 33 C147 6 192 -13 255 -13 C323 -13 365 10 388 32 C432 74 440 134 445 177 L475 421 L377 421 L347 180 C343 151 339 118 317 97 C303 84 278 75 256 75 C236 75 214 82 201 95 C191 105 181 123 181 153 C181 166 183 180 186 202 L213 421 L115 421 Z M314 571 L392 485 L462 537 L325 675 L154 537 L216 485 L314 571 Z " />
<glyph glyph-name="udieresis" unicode="&#xfc;" horiz-adv-x="485" d="M115 421 L87 192 C84 166 82 149 82 135 C82 96 96 59 121 33 C147 6 192 -13 255 -13 C323 -13 365 10 388 32 C432 74 440 134 445 177 L475 421 L377 421 L347 180 C343 151 339 118 317 97 C303 84 278 75 256 75 C236 75 214 82 201 95 C191 105 181 123 181 153 C181 166 183 180 186 202 L213 421 L115 421 Z M157 569 C152 535 177 507 211 507 C245 507 276 535 281 569 C285 603 260 631 226 631 C192 631 161 603 157 569 L157 569 Z M337 569 C332 535 357 507 391 507 C425 507 456 535 461 569 C465 603 440 631 406 631 C372 631 341 603 337 569 L337 569 Z " />
<glyph glyph-name="yacute" unicode="&#xfd;" horiz-adv-x="482" d="M3 -229 L113 -229 L528 421 L416 421 L269 184 L174 421 L58 421 L203 78 L3 -229 Z M399 675 L260 519 L310 485 L483 629 L399 675 Z " />
<glyph glyph-name="thorn" unicode="&#xfe;" horiz-adv-x="532" d="M166 49 C178 35 194 20 212 9 C239 -7 272 -14 307 -14 C366 -14 411 9 447 47 C488 91 518 162 518 235 C518 296 496 346 465 378 C434 410 384 432 331 432 C305 432 281 427 256 415 C236 406 220 394 206 375 L251 729 L153 729 L34 -229 L132 -229 L166 49 Z M308 344 C340 344 366 335 387 312 C405 292 417 262 417 227 C417 181 396 136 369 109 C347 87 321 75 286 75 C252 75 224 89 206 108 C182 133 178 167 178 191 C178 238 195 285 224 313 C250 338 277 344 308 344 L308 344 Z " />
<glyph glyph-name="ydieresis" unicode="&#xff;" horiz-adv-x="482" d="M3 -229 L113 -229 L528 421 L416 421 L269 184 L174 421 L58 421 L203 78 L3 -229 Z M156 569 C151 535 176 507 210 507 C244 507 275 535 280 569 C284 603 259 631 225 631 C191 631 160 603 156 569 L156 569 Z M336 569 C331 535 356 507 390 507 C424 507 455 535 460 569 C464 603 439 631 405 631 C371 631 340 603 336 569 L336 569 Z " />
<glyph glyph-name="Amacron" unicode="&#x100;" horiz-adv-x="656" d="M544 0 L652 0 L423 706 L4 0 L116 0 L209 161 L494 161 L544 0 Z M263 257 L393 483 L465 257 L263 257 Z M240 733 L600 733 L610 813 L250 813 L240 733 Z " />
<glyph glyph-name="amacron" unicode="&#x101;" horiz-adv-x="532" d="M418 372 C404 391 387 405 370 414 C346 427 321 432 293 432 C234 432 182 416 139 373 C88 322 66 249 66 185 C66 121 91 65 124 33 C145 13 182 -13 244 -13 C271 -13 300 -7 321 2 C342 11 363 29 377 44 L372 0 L470 0 L522 421 L424 421 L418 372 Z M298 344 C334 344 358 331 373 316 C394 295 406 262 406 227 C406 186 391 141 363 112 C345 94 315 75 271 75 C241 75 218 86 200 105 C181 125 167 156 167 193 C167 240 187 285 214 311 C231 327 258 344 298 344 L298 344 Z M147 508 L477 508 L487 586 L157 586 L147 508 Z " />
<glyph glyph-name="Abreve" unicode="&#x102;" horiz-adv-x="656" d="M544 0 L652 0 L423 706 L4 0 L116 0 L209 161 L494 161 L544 0 Z M263 257 L393 483 L465 257 L263 257 Z M525 874 C519 856 507 837 491 826 C471 812 446 810 429 810 C414 810 394 812 377 825 C364 835 353 853 349 874 L267 874 C272 828 294 784 329 758 C358 736 393 730 425 730 C459 730 500 738 529 756 C580 788 601 849 607 874 L525 874 Z " />
<glyph glyph-name="abreve" unicode="&#x103;" horiz-adv-x="532" d="M418 372 C404 391 387 405 370 414 C346 427 321 432 293 432 C234 432 182 416 139 373 C88 322 66 249 66 185 C66 121 91 65 124 33 C145 13 182 -13 244 -13 C271 -13 300 -7 321 2 C342 11 363 29 377 44 L372 0 L470 0 L522 421 L424 421 L418 372 Z M298 344 C334 344 358 331 373 316 C394 295 406 262 406 227 C406 186 391 141 363 112 C345 94 315 75 271 75 C241 75 218 86 200 105 C181 125 167 156 167 193 C167 240 187 285 214 311 C231 327 258 344 298 344 L298 344 Z M408 638 C403 621 391 601 375 589 C361 578 341 573 321 573 C302 573 282 578 269 589 C255 601 245 621 242 638 L165 638 C169 594 189 554 222 530 C254 507 291 503 324 503 C358 503 391 508 421 529 C462 557 481 605 489 638 L408 638 Z " />
<glyph glyph-name="Aogonek" unicode="&#x104;" horiz-adv-x="656" d="M4 0 L116 0 L209 161 L494 161 L544 0 C527 -11 505 -29 493 -41 C473 -61 459 -86 459 -116 C459 -141 469 -159 482 -171 C502 -189 527 -193 546 -193 C565 -193 587 -190 616 -178 L634 -106 C617 -112 596 -115 580 -115 C575 -115 560 -114 552 -108 C545 -102 544 -94 544 -89 C544 -70 555 -55 567 -43 C579 -31 604 -12 622 0 L652 0 L423 706 L4 0 Z M263 257 L393 483 L465 257 L263 257 Z " />
<glyph glyph-name="aogonek" unicode="&#x105;" horiz-adv-x="532" d="M418 374 C406 388 389 404 370 414 C342 429 315 432 293 432 C234 432 182 416 139 373 C89 324 66 252 66 187 C66 132 85 71 124 33 C145 13 182 -13 244 -13 C271 -13 300 -7 321 2 C342 11 363 29 377 44 L372 0 C358 -10 337 -27 324 -41 C310 -55 289 -81 289 -115 C289 -134 296 -154 314 -169 C330 -182 353 -189 375 -189 C396 -189 422 -182 443 -170 L460 -106 C447 -110 425 -115 409 -115 C405 -115 390 -115 381 -109 C374 -105 370 -99 370 -89 C370 -72 384 -55 393 -45 C407 -30 436 -7 445 0 L470 0 L522 421 L424 421 L418 374 Z M298 344 C334 344 358 331 373 316 C394 295 406 262 406 227 C406 186 391 141 363 112 C345 94 315 75 271 75 C241 75 218 86 200 105 C181 125 167 156 167 193 C167 240 187 285 214 311 C231 327 258 344 298 344 L298 344 Z " />
<glyph glyph-name="Cacute" unicode="&#x106;" horiz-adv-x="622" d="M653 631 C582 666 524 679 463 679 C361 679 272 648 199 577 C135 514 89 424 89 301 C89 202 120 128 178 70 C244 4 317 -13 397 -13 C444 -13 500 -7 581 37 L595 158 C560 128 495 81 406 81 C338 81 287 103 249 144 C217 178 191 229 191 301 C191 391 226 470 275 517 C322 562 386 585 456 585 C500 585 576 574 639 511 L653 631 Z M453 727 L644 846 L565 906 L410 767 L453 727 Z " />
<glyph glyph-name="cacute" unicode="&#x107;" horiz-adv-x="422" d="M439 396 C408 416 368 432 308 432 C245 432 186 416 136 367 C104 335 66 279 66 194 C66 115 98 67 125 41 C165 1 213 -13 268 -13 C333 -13 367 -1 393 16 L406 126 C386 104 365 94 358 90 C328 76 300 75 290 75 C257 75 224 86 203 106 C183 125 167 158 167 198 C167 238 181 275 207 302 C230 326 267 344 314 344 C337 344 355 339 376 328 C399 316 415 301 426 290 L439 396 Z M398 675 L259 519 L309 485 L482 629 L398 675 Z " />
<glyph glyph-name="Ccircumflex" unicode="&#x108;" horiz-adv-x="622" d="M653 631 C582 666 524 679 463 679 C361 679 272 648 199 577 C135 514 89 424 89 301 C89 202 120 128 178 70 C244 4 317 -13 397 -13 C444 -13 500 -7 581 37 L595 158 C560 128 495 81 406 81 C338 81 287 103 249 144 C217 178 191 229 191 301 C191 391 226 470 275 517 C322 562 386 585 456 585 C500 585 576 574 639 511 L653 631 Z M473 812 L562 730 L632 786 L483 920 L302 786 L364 730 L473 812 Z " />
<glyph glyph-name="ccircumflex" unicode="&#x109;" horiz-adv-x="422" d="M439 396 C408 416 368 432 308 432 C245 432 186 416 136 367 C104 335 66 279 66 194 C66 115 98 67 125 41 C165 1 213 -13 268 -13 C333 -13 367 -1 393 16 L406 126 C386 104 365 94 358 90 C328 76 300 75 290 75 C257 75 224 86 203 106 C183 125 167 158 167 198 C167 238 181 275 207 302 C230 326 267 344 314 344 C337 344 355 339 376 328 C399 316 415 301 426 290 L439 396 Z M332 571 L410 485 L480 537 L343 675 L172 537 L234 485 L332 571 Z " />
<glyph glyph-name="Cdotaccent" unicode="&#x10a;" horiz-adv-x="622" d="M653 631 C582 666 524 679 463 679 C361 679 272 648 199 577 C135 514 89 424 89 301 C89 202 120 128 178 70 C244 4 317 -13 397 -13 C444 -13 500 -7 581 37 L595 158 C560 128 495 81 406 81 C338 81 287 103 249 144 C217 178 191 229 191 301 C191 391 226 470 275 517 C322 562 386 585 456 585 C500 585 576 574 639 511 L653 631 Z M416 794 C416 773 425 758 434 750 C445 739 458 734 476 734 C503 734 521 745 531 756 C544 770 551 789 551 809 C551 827 544 840 535 850 C526 859 512 868 489 868 C467 868 450 859 438 847 C423 832 416 812 416 794 L416 794 Z " />
<glyph glyph-name="cdotaccent" unicode="&#x10b;" horiz-adv-x="422" d="M439 396 C408 416 368 432 308 432 C245 432 186 416 136 367 C104 335 66 279 66 194 C66 115 98 67 125 41 C165 1 213 -13 268 -13 C333 -13 367 -1 393 16 L406 126 C386 104 365 94 358 90 C328 76 300 75 290 75 C257 75 224 86 203 106 C183 125 167 158 167 198 C167 238 181 275 207 302 C230 326 267 344 314 344 C337 344 355 339 376 328 C399 316 415 301 426 290 L439 396 Z M267 542 C267 521 276 508 285 500 C297 489 312 485 327 485 C348 485 364 492 376 504 C389 517 398 535 398 555 C398 573 391 589 379 600 C365 613 348 615 337 615 C320 615 304 611 289 596 C276 583 267 564 267 542 L267 542 Z " />
<glyph glyph-name="Ccaron" unicode="&#x10c;" horiz-adv-x="622" d="M653 631 C582 666 524 679 463 679 C361 679 272 648 199 577 C135 514 89 424 89 301 C89 202 120 128 178 70 C244 4 317 -13 397 -13 C444 -13 500 -7 581 37 L595 158 C560 128 495 81 406 81 C338 81 287 103 249 144 C217 178 191 229 191 301 C191 391 226 470 275 517 C322 562 386 585 456 585 C500 585 576 574 639 511 L653 631 Z M481 838 L392 920 L321 864 L470 730 L651 864 L590 920 L481 838 Z " />
<glyph glyph-name="ccaron" unicode="&#x10d;" horiz-adv-x="422" d="M439 396 C408 416 368 432 308 432 C245 432 186 416 136 367 C104 335 66 279 66 194 C66 115 98 67 125 41 C165 1 213 -13 268 -13 C333 -13 367 -1 393 16 L406 126 C386 104 365 94 358 90 C328 76 300 75 290 75 C257 75 224 86 203 106 C183 125 167 158 167 198 C167 238 181 275 207 302 C230 326 267 344 314 344 C337 344 355 339 376 328 C399 316 415 301 426 290 L439 396 Z M324 589 L247 675 L177 623 L315 485 L485 623 L423 675 L324 589 Z " />
<glyph glyph-name="Dcaron" unicode="&#x10e;" horiz-adv-x="646" d="M162 667 L80 0 L182 0 L204 0 C313 0 449 10 545 106 C622 183 639 277 639 366 C639 435 629 517 558 584 C480 658 377 667 302 667 L162 667 Z M252 571 L296 571 C343 571 427 568 482 512 C514 479 537 425 537 352 C537 256 499 202 481 181 C412 100 305 96 238 96 L194 96 L252 571 Z M361 838 L272 920 L201 864 L350 730 L531 864 L470 920 L361 838 Z " />
<glyph glyph-name="dcaron" unicode="&#x10f;" horiz-adv-x="660" d="M418 372 C404 391 387 406 368 415 C344 427 314 432 287 432 C226 432 179 413 143 380 C94 335 66 261 66 193 C66 129 89 72 126 35 C161 0 201 -13 251 -13 C277 -13 299 -10 323 2 C340 10 359 23 377 44 L372 0 L470 0 L560 729 L462 729 L418 372 Z M296 344 C326 344 352 334 373 312 C389 295 405 266 405 225 C405 182 389 136 362 109 C338 85 308 75 274 75 C245 75 219 83 198 106 C178 127 166 159 166 197 C166 238 180 281 211 311 C236 336 264 344 296 344 L296 344 Z M559 484 L625 450 L759 646 L673 690 L559 484 Z " />
<glyph glyph-name="Dcroat" unicode="&#x110;" horiz-adv-x="646" d="M130 410 L50 410 L40 324 L120 324 L80 0 L182 0 L204 0 C313 0 449 10 545 106 C622 183 639 277 639 366 C639 435 629 517 558 584 C480 658 377 667 302 667 L162 667 L130 410 Z M252 571 L296 571 C343 571 427 568 482 512 C514 479 537 425 537 352 C537 256 499 202 481 181 C412 100 305 96 238 96 L194 96 L222 324 L362 324 L372 410 L232 410 L252 571 Z " />
<glyph glyph-name="dcroat" unicode="&#x111;" horiz-adv-x="531" d="M417 372 C409 384 394 402 368 415 C356 421 330 432 287 432 C226 432 179 414 143 380 C94 335 66 261 66 193 C66 129 89 72 126 35 C161 0 201 -13 251 -13 C277 -13 299 -10 323 2 C340 10 359 23 377 44 L372 0 L470 0 L537 552 L633 552 L642 628 L546 628 L559 729 L461 729 L448 628 L228 628 L219 552 L439 552 L417 372 Z M296 344 C326 344 352 334 373 312 C389 295 405 266 405 225 C405 182 389 136 362 109 C338 85 308 75 274 75 C245 75 219 83 198 106 C178 127 166 159 166 197 C166 238 180 281 211 311 C236 336 264 344 296 344 L296 344 Z " />
<glyph glyph-name="Emacron" unicode="&#x112;" horiz-adv-x="500" d="M530 667 L162 667 L80 0 L448 0 L460 96 L194 96 L220 306 L478 306 L490 402 L232 402 L252 571 L518 571 L530 667 Z M170 733 L530 733 L540 813 L180 813 L170 733 Z " />
<glyph glyph-name="emacron" unicode="&#x113;" horiz-adv-x="489" d="M377 142 C367 124 350 105 333 94 C314 82 289 75 266 75 C233 75 210 88 197 102 C177 123 166 157 166 187 L467 187 C471 206 472 223 472 236 C472 297 452 350 420 383 C381 424 332 432 293 432 C230 432 180 410 139 370 C93 325 66 262 66 190 C66 124 90 73 123 40 C161 1 206 -13 258 -13 C314 -13 352 3 376 17 C404 34 433 61 454 96 L377 142 Z M181 267 C189 287 203 309 220 323 C241 340 266 348 291 348 C315 348 338 340 352 325 C364 312 374 288 377 267 L181 267 Z M131 508 L461 508 L471 586 L141 586 L131 508 Z " />
<glyph glyph-name="Edotaccent" unicode="&#x116;" horiz-adv-x="500" d="M530 667 L162 667 L80 0 L448 0 L460 96 L194 96 L220 306 L478 306 L490 402 L232 402 L252 571 L518 571 L530 667 Z M291 794 C291 773 300 758 309 750 C320 739 333 734 351 734 C378 734 396 745 406 756 C419 770 426 789 426 809 C426 827 419 840 410 850 C401 859 387 868 364 868 C342 868 325 859 313 847 C298 832 291 812 291 794 L291 794 Z " />
<glyph glyph-name="edotaccent" unicode="&#x117;" horiz-adv-x="489" d="M377 142 C367 124 350 105 333 94 C314 82 289 75 266 75 C233 75 210 88 197 102 C177 123 166 157 166 187 L467 187 C471 206 472 223 472 236 C472 297 452 350 420 383 C381 424 332 432 293 432 C230 432 180 410 139 370 C93 325 66 262 66 190 C66 124 90 73 123 40 C161 1 206 -13 258 -13 C314 -13 352 3 376 17 C404 34 433 61 454 96 L377 142 Z M181 267 C189 287 203 309 220 323 C241 340 266 348 291 348 C315 348 338 340 352 325 C364 312 374 288 377 267 L181 267 Z M246 542 C246 521 255 508 264 500 C276 489 291 485 306 485 C327 485 343 492 355 504 C368 517 377 535 377 555 C377 573 370 589 358 600 C344 613 327 615 316 615 C299 615 283 611 268 596 C255 583 246 564 246 542 L246 542 Z " />
<glyph glyph-name="Eogonek" unicode="&#x118;" horiz-adv-x="500" d="M530 667 L162 667 L80 0 L330 0 C313 -11 291 -29 279 -41 C259 -61 245 -86 245 -116 C245 -141 255 -159 268 -171 C288 -189 313 -193 332 -193 C351 -193 373 -190 402 -178 L420 -106 C403 -112 382 -115 366 -115 C361 -115 346 -114 338 -108 C331 -102 330 -94 330 -89 C330 -70 341 -55 353 -43 C365 -31 390 -12 408 0 L448 0 L460 96 L194 96 L221 316 L479 316 L491 412 L233 412 L252 571 L518 571 L530 667 Z " />
<glyph glyph-name="eogonek" unicode="&#x119;" horiz-adv-x="489" d="M385 156 C374 133 356 111 339 98 C320 83 297 75 268 75 C241 75 217 82 197 102 C177 122 165 153 166 187 L467 187 C468 197 472 222 472 245 C472 299 455 352 423 385 C383 426 331 432 296 432 C236 432 186 416 142 374 C97 331 66 264 66 187 C66 109 98 62 123 38 C162 0 218 -18 273 -12 C257 -23 242 -37 229 -54 C215 -71 205 -90 205 -115 C205 -142 218 -159 230 -169 C246 -182 269 -189 291 -189 C312 -189 338 -182 359 -170 L376 -106 C363 -110 341 -115 325 -115 C321 -115 306 -115 297 -109 C288 -103 286 -95 286 -89 C286 -72 300 -55 309 -45 C336 -15 360 2 385 23 C417 49 439 72 462 110 L385 156 Z M183 267 C191 286 204 306 221 320 C239 334 262 344 291 344 C316 344 340 336 356 320 C368 308 377 288 377 267 L183 267 Z " />
<glyph glyph-name="Ecaron" unicode="&#x11a;" horiz-adv-x="500" d="M530 667 L162 667 L80 0 L448 0 L460 96 L194 96 L220 306 L478 306 L490 402 L232 402 L252 571 L518 571 L530 667 Z M371 838 L282 920 L211 864 L360 730 L541 864 L480 920 L371 838 Z " />
<glyph glyph-name="ecaron" unicode="&#x11b;" horiz-adv-x="489" d="M377 142 C367 124 350 105 333 94 C314 82 289 75 266 75 C233 75 210 88 197 102 C177 123 166 157 166 187 L467 187 C471 206 472 223 472 236 C472 297 452 350 420 383 C381 424 332 432 293 432 C230 432 180 410 139 370 C93 325 66 262 66 190 C66 124 90 73 123 40 C161 1 206 -13 258 -13 C314 -13 352 3 376 17 C404 34 433 61 454 96 L377 142 Z M181 267 C189 287 203 309 220 323 C241 340 266 348 291 348 C315 348 338 340 352 325 C364 312 374 288 377 267 L181 267 Z M313 589 L236 675 L166 623 L304 485 L474 623 L412 675 L313 589 Z " />
<glyph glyph-name="Gcircumflex" unicode="&#x11c;" horiz-adv-x="751" d="M459 253 L625 253 C612 191 580 154 558 134 C515 95 465 81 410 81 C327 81 280 116 255 141 C218 179 192 242 192 308 C192 378 217 454 274 510 C314 550 376 585 465 585 C508 585 549 575 587 551 C613 534 641 506 660 480 L742 541 C715 578 678 613 637 638 C585 669 535 679 475 679 C362 679 271 642 202 574 C132 505 89 404 89 298 C89 188 136 117 176 76 C243 6 318 -13 398 -13 C477 -13 564 3 636 74 C718 155 741 279 746 347 L471 347 L459 253 Z M497 812 L586 730 L656 786 L507 920 L326 786 L388 730 L497 812 Z " />
<glyph glyph-name="gcircumflex" unicode="&#x11d;" horiz-adv-x="529" d="M415 375 C373 429 319 432 291 432 C226 432 180 416 137 374 C88 326 62 259 62 191 C62 124 85 76 120 41 C160 1 208 -13 253 -13 C284 -13 338 -6 375 47 L368 -7 C363 -45 355 -86 328 -113 C303 -138 271 -142 249 -142 C227 -142 199 -139 178 -118 C161 -100 152 -70 151 -47 L56 -47 C58 -93 75 -152 120 -190 C157 -221 202 -230 244 -230 C328 -230 380 -198 406 -169 C451 -119 462 -40 468 11 L519 421 L421 421 L415 375 Z M297 344 C330 344 354 330 370 314 C395 289 402 257 402 228 C402 170 379 133 357 111 C331 85 302 75 272 75 C240 75 213 90 195 109 C180 125 164 154 164 196 C164 235 178 280 204 307 C225 329 259 344 297 344 L297 344 Z M322 571 L400 485 L470 537 L333 675 L162 537 L224 485 L322 571 Z " />
<glyph glyph-name="Gbreve" unicode="&#x11e;" horiz-adv-x="751" d="M459 253 L625 253 C612 191 580 154 558 134 C515 95 465 81 410 81 C327 81 280 116 255 141 C218 179 192 242 192 308 C192 378 217 454 274 510 C314 550 376 585 465 585 C508 585 549 575 587 551 C613 534 641 506 660 480 L742 541 C715 578 678 613 637 638 C585 669 535 679 475 679 C362 679 271 642 202 574 C132 505 89 404 89 298 C89 188 136 117 176 76 C243 6 318 -13 398 -13 C477 -13 564 3 636 74 C718 155 741 279 746 347 L471 347 L459 253 Z M589 874 C583 856 571 837 555 826 C535 812 510 810 493 810 C478 810 458 812 441 825 C428 835 417 853 413 874 L331 874 C336 828 358 784 393 758 C422 736 457 730 489 730 C523 730 564 738 593 756 C644 788 665 849 671 874 L589 874 Z " />
<glyph glyph-name="gbreve" unicode="&#x11f;" horiz-adv-x="529" d="M415 375 C373 429 319 432 291 432 C226 432 180 416 137 374 C88 326 62 259 62 191 C62 124 85 76 120 41 C160 1 208 -13 253 -13 C284 -13 338 -6 375 47 L368 -7 C363 -45 355 -86 328 -113 C303 -138 271 -142 249 -142 C227 -142 199 -139 178 -118 C161 -100 152 -70 151 -47 L56 -47 C58 -93 75 -152 120 -190 C157 -221 202 -230 244 -230 C328 -230 380 -198 406 -169 C451 -119 462 -40 468 11 L519 421 L421 421 L415 375 Z M297 344 C330 344 354 330 370 314 C395 289 402 257 402 228 C402 170 379 133 357 111 C331 85 302 75 272 75 C240 75 213 90 195 109 C180 125 164 154 164 196 C164 235 178 280 204 307 C225 329 259 344 297 344 L297 344 Z M408 638 C403 621 391 601 375 589 C361 578 341 573 321 573 C302 573 282 578 269 589 C255 601 245 621 242 638 L165 638 C169 594 189 554 222 530 C254 507 291 503 324 503 C358 503 391 508 421 529 C462 557 481 605 489 638 L408 638 Z " />
<glyph glyph-name="Gdotaccent" unicode="&#x120;" horiz-adv-x="751" d="M459 253 L625 253 C612 191 580 154 558 134 C515 95 465 81 410 81 C327 81 280 116 255 141 C218 179 192 242 192 308 C192 378 217 454 274 510 C314 550 376 585 465 585 C508 585 549 575 587 551 C613 534 641 506 660 480 L742 541 C715 578 678 613 637 638 C585 669 535 679 475 679 C362 679 271 642 202 574 C132 505 89 404 89 298 C89 188 136 117 176 76 C243 6 318 -13 398 -13 C477 -13 564 3 636 74 C718 155 741 279 746 347 L471 347 L459 253 Z M416 794 C416 773 425 758 434 750 C445 739 458 734 476 734 C503 734 521 745 531 756 C544 770 551 789 551 809 C551 827 544 840 535 850 C526 859 512 868 489 868 C467 868 450 859 438 847 C423 832 416 812 416 794 L416 794 Z " />
<glyph glyph-name="gdotaccent" unicode="&#x121;" horiz-adv-x="529" d="M415 375 C373 429 319 432 291 432 C226 432 180 416 137 374 C88 326 62 259 62 191 C62 124 85 76 120 41 C160 1 208 -13 253 -13 C284 -13 338 -6 375 47 L368 -7 C363 -45 355 -86 328 -113 C303 -138 271 -142 249 -142 C227 -142 199 -139 178 -118 C161 -100 152 -70 151 -47 L56 -47 C58 -93 75 -152 120 -190 C157 -221 202 -230 244 -230 C328 -230 380 -198 406 -169 C451 -119 462 -40 468 11 L519 421 L421 421 L415 375 Z M297 344 C330 344 354 330 370 314 C395 289 402 257 402 228 C402 170 379 133 357 111 C331 85 302 75 272 75 C240 75 213 90 195 109 C180 125 164 154 164 196 C164 235 178 280 204 307 C225 329 259 344 297 344 L297 344 Z M238 542 C238 521 247 508 256 500 C268 489 283 485 298 485 C319 485 335 492 347 504 C360 517 369 535 369 555 C369 573 362 589 350 600 C336 613 319 615 308 615 C291 615 275 611 260 596 C247 583 238 564 238 542 L238 542 Z " />
<glyph glyph-name="Gcommaaccent" unicode="&#x122;" horiz-adv-x="751" d="M459 253 L625 253 C612 191 580 154 558 134 C515 95 465 81 410 81 C327 81 280 116 255 141 C218 179 192 242 192 308 C192 378 217 454 274 510 C314 550 376 585 465 585 C508 585 549 575 587 551 C613 534 641 506 660 480 L742 541 C715 578 678 613 637 638 C585 669 535 679 475 679 C362 679 271 642 202 574 C132 505 89 404 89 298 C89 188 136 117 176 76 C243 6 318 -13 398 -13 C477 -13 564 3 636 74 C718 155 741 279 746 347 L471 347 L459 253 Z M250 -274 L317 -300 L444 -84 L354 -50 L250 -274 Z " />
<glyph glyph-name="gcommaaccent" unicode="&#x123;" horiz-adv-x="529" d="M415 375 C373 429 319 432 291 432 C226 432 180 416 137 374 C88 326 62 259 62 191 C62 124 85 76 120 41 C160 1 208 -13 253 -13 C284 -13 338 -6 375 47 L368 -7 C363 -45 355 -86 328 -113 C303 -138 271 -142 249 -142 C227 -142 199 -139 178 -118 C161 -100 152 -70 151 -47 L56 -47 C58 -93 75 -152 120 -190 C157 -221 202 -230 244 -230 C328 -230 380 -198 406 -169 C451 -119 462 -40 468 11 L519 421 L421 421 L415 375 Z M297 344 C330 344 354 330 370 314 C395 289 402 257 402 228 C402 170 379 133 357 111 C331 85 302 75 272 75 C240 75 213 90 195 109 C180 125 164 154 164 196 C164 235 178 280 204 307 C225 329 259 344 297 344 L297 344 Z M430 665 L364 699 L248 521 L334 479 L430 665 Z " />
<glyph glyph-name="Hcircumflex" unicode="&#x124;" horiz-adv-x="650" d="M264 667 L162 667 L80 0 L182 0 L220 307 L506 307 L468 0 L570 0 L652 667 L550 667 L518 403 L232 403 L264 667 Z M423 812 L512 730 L582 786 L433 920 L252 786 L314 730 L423 812 Z " />
<glyph glyph-name="hcircumflex" unicode="&#x125;" horiz-adv-x="486" d="M62 0 L160 0 L185 203 C191 253 200 296 226 321 C234 329 254 344 289 344 C307 344 326 339 339 327 C355 312 358 290 358 273 C358 269 358 254 353 217 L326 0 L424 0 L450 207 C457 261 459 279 459 294 C459 338 443 374 421 396 C403 414 372 432 321 432 C297 432 273 428 249 416 C229 406 215 394 207 385 L250 729 L152 729 L62 0 Z M209 821 L287 735 L357 787 L220 925 L49 787 L111 735 L209 821 Z " />
<glyph glyph-name="Hbar" unicode="&#x126;" horiz-adv-x="650" d="M264 667 L162 667 L155 614 L95 614 L85 530 L145 530 L80 0 L182 0 L220 307 L506 307 L468 0 L570 0 L635 530 L695 530 L705 614 L645 614 L652 667 L550 667 L543 614 L257 614 L264 667 Z M533 530 L517 403 L231 403 L247 530 L533 530 Z " />
<glyph glyph-name="hbar" unicode="&#x127;" horiz-adv-x="486" d="M62 0 L160 0 L185 203 C191 253 200 296 226 321 C234 329 254 344 289 344 C307 344 326 339 339 327 C355 312 358 290 358 273 C358 269 358 254 353 217 L326 0 L424 0 L450 207 C457 261 459 279 459 294 C459 338 443 374 421 396 C403 414 372 432 321 432 C297 432 273 428 249 416 C229 406 215 394 207 385 L228 552 L428 552 L437 628 L237 628 L250 729 L152 729 L140 628 L43 628 L34 552 L130 552 L62 0 Z " />
<glyph glyph-name="Imacron" unicode="&#x12a;" horiz-adv-x="262" d="M162 667 L80 0 L182 0 L264 667 L162 667 Z M80 733 L362 733 L372 813 L90 813 L80 733 Z " />
<glyph glyph-name="imacron" unicode="&#x12b;" horiz-adv-x="223" d="M115 421 L63 0 L161 0 L213 421 L115 421 Z M51 508 L293 508 L302 586 L60 586 L51 508 Z " />
<glyph glyph-name="Iogonek" unicode="&#x12e;" horiz-adv-x="262" d="M162 667 L80 0 L104 0 C87 -11 65 -29 53 -41 C33 -61 19 -86 19 -116 C19 -141 29 -159 42 -171 C61 -189 84 -193 104 -193 C134 -193 159 -186 176 -178 L194 -106 C177 -112 156 -115 140 -115 C135 -115 120 -114 112 -108 C105 -102 104 -94 104 -89 C104 -70 115 -55 127 -43 C141 -29 166 -11 182 0 L264 667 L162 667 Z " />
<glyph glyph-name="iogonek" unicode="&#x12f;" horiz-adv-x="223" d="M114 421 L62 0 L87 0 C73 -10 52 -27 39 -41 C25 -55 4 -81 4 -115 C4 -134 11 -154 29 -169 C45 -182 68 -189 90 -189 C111 -189 137 -182 158 -170 L175 -106 C162 -110 140 -115 124 -115 C120 -115 105 -115 96 -109 C89 -105 85 -99 85 -89 C85 -72 99 -55 108 -45 C122 -30 151 -7 160 0 L212 421 L114 421 Z M120 585 C120 569 127 555 136 547 C144 539 156 532 175 532 C196 532 216 541 228 554 C241 568 248 589 248 605 C248 621 241 634 232 643 C223 652 209 658 192 658 C171 658 153 649 141 637 C127 623 120 604 120 585 L120 585 Z " />
<glyph glyph-name="Idotaccent" unicode="&#x130;" horiz-adv-x="262" d="M162 667 L80 0 L182 0 L264 667 L162 667 Z M163 794 C163 773 172 758 181 750 C192 739 205 734 223 734 C250 734 268 745 278 756 C291 770 298 789 298 809 C298 827 291 840 282 850 C273 859 259 868 236 868 C214 868 197 859 185 847 C170 832 163 812 163 794 L163 794 Z " />
<glyph glyph-name="dotlessi" unicode="&#x131;" horiz-adv-x="223" d="M115 421 L63 0 L161 0 L213 421 L115 421 Z " />
<glyph glyph-name="Jcircumflex" unicode="&#x134;" horiz-adv-x="359" d="M259 667 L206 235 C198 173 189 128 165 105 C151 92 129 83 106 83 C86 83 61 89 42 107 L-15 23 C26 -8 67 -13 106 -13 C143 -13 195 -10 238 32 C290 82 299 160 308 235 L361 667 L259 667 Z M318 812 L407 730 L477 786 L328 920 L147 786 L209 730 L318 812 Z " />
<glyph glyph-name="jcircumflex" unicode="&#x135;" horiz-adv-x="223" d="M115 421 L35 -229 L133 -229 L213 421 L115 421 Z M182 571 L260 485 L332 537 L195 675 L24 537 L84 485 L182 571 Z " />
<glyph glyph-name="Kcommaaccent" unicode="&#x136;" horiz-adv-x="586" d="M264 667 L162 667 L80 0 L182 0 L216 276 L238 296 L440 0 L574 0 L316 365 L656 667 L519 667 L231 409 L264 667 Z M166 -274 L233 -300 L360 -84 L270 -50 L166 -274 Z " />
<glyph glyph-name="kcommaaccent" unicode="&#x137;" horiz-adv-x="442" d="M152 729 L62 0 L160 0 L180 162 L200 180 L316 0 L438 0 L274 245 L479 421 L349 421 L194 280 L250 729 L152 729 Z M108 -236 L174 -270 L290 -92 L204 -50 L108 -236 Z " />
<glyph glyph-name="Lacute" unicode="&#x139;" horiz-adv-x="394" d="M162 667 L80 0 L181 0 L378 0 L390 96 L194 96 L264 667 L162 667 Z M243 727 L434 846 L355 906 L200 767 L243 727 Z " />
<glyph glyph-name="lacute" unicode="&#x13a;" horiz-adv-x="222" d="M152 729 L62 0 L160 0 L250 729 L152 729 Z M258 955 L119 799 L169 765 L342 909 L258 955 Z " />
<glyph glyph-name="Lcommaaccent" unicode="&#x13b;" horiz-adv-x="394" d="M162 667 L80 0 L181 0 L378 0 L390 96 L194 96 L264 667 L162 667 Z M86 -274 L153 -300 L280 -84 L190 -50 L86 -274 Z " />
<glyph glyph-name="lcommaaccent" unicode="&#x13c;" horiz-adv-x="222" d="M152 729 L62 0 L160 0 L250 729 L152 729 Z M-1 -236 L65 -270 L181 -92 L95 -50 L-1 -236 Z " />
<glyph glyph-name="Lcaron" unicode="&#x13d;" horiz-adv-x="394" d="M162 667 L80 0 L181 0 L378 0 L390 96 L194 96 L264 667 L162 667 Z M280 474 L346 440 L480 636 L394 680 L280 474 Z " />
<glyph glyph-name="lcaron" unicode="&#x13e;" horiz-adv-x="350" d="M152 729 L62 0 L160 0 L250 729 L152 729 Z M250 484 L316 450 L450 646 L364 690 L250 484 Z " />
<glyph glyph-name="Ldot" unicode="&#x13f;" horiz-adv-x="397" d="M162 667 L80 0 L181 0 L378 0 L390 96 L194 96 L264 667 L162 667 Z M295 327 C295 306 304 291 313 283 C324 272 337 267 355 267 C382 267 400 278 410 289 C423 303 430 322 430 342 C430 360 423 373 414 383 C405 392 391 401 368 401 C346 401 329 392 317 380 C302 365 295 345 295 327 L295 327 Z " />
<glyph glyph-name="ldot" unicode="&#x140;" horiz-adv-x="373" d="M152 729 L62 0 L160 0 L250 729 L152 729 Z M272 355 C272 334 281 321 290 313 C302 302 317 298 332 298 C353 298 369 305 381 317 C394 330 403 348 403 368 C403 386 396 402 384 413 C370 426 353 428 342 428 C325 428 309 424 294 409 C281 396 272 377 272 355 L272 355 Z " />
<glyph glyph-name="Lslash" unicode="&#x141;" horiz-adv-x="394" d="M162 667 L126 371 L39 320 L29 236 L115 287 L80 0 L181 0 L378 0 L390 96 L194 96 L223 332 L352 409 L363 493 L233 416 L264 667 L162 667 Z " />
<glyph glyph-name="lslash" unicode="&#x142;" horiz-adv-x="222" d="M152 729 L118 454 L50 406 L40 326 L108 374 L62 0 L160 0 L213 434 L281 482 L291 562 L223 514 L250 729 L152 729 Z " />
<glyph glyph-name="Nacute" unicode="&#x143;" horiz-adv-x="746" d="M182 0 L239 466 L661 -41 L748 667 L646 667 L589 205 L167 712 L80 0 L182 0 Z M446 727 L637 846 L558 906 L403 767 L446 727 Z " />
<glyph glyph-name="nacute" unicode="&#x144;" horiz-adv-x="485" d="M61 0 L159 0 L184 203 C190 253 199 296 225 321 C233 329 253 344 288 344 C306 344 325 339 338 327 C354 312 357 290 357 273 C357 269 357 254 352 217 L325 0 L423 0 L449 207 C456 262 458 280 458 296 C458 340 442 374 420 396 C402 414 371 432 320 432 C295 432 273 428 248 416 C232 408 219 399 206 383 L211 421 L113 421 L61 0 Z M401 675 L262 519 L312 485 L485 629 L401 675 Z " />
<glyph glyph-name="Ncommaaccent" unicode="&#x145;" horiz-adv-x="746" d="M182 0 L239 466 L661 -41 L748 667 L646 667 L589 205 L167 712 L80 0 L182 0 Z M246 -274 L313 -300 L440 -84 L350 -50 L246 -274 Z " />
<glyph glyph-name="ncommaaccent" unicode="&#x146;" horiz-adv-x="485" d="M61 0 L159 0 L184 203 C190 253 199 296 225 321 C233 329 253 344 288 344 C306 344 325 339 338 327 C354 312 357 290 357 273 C357 269 357 254 352 217 L325 0 L423 0 L449 207 C456 262 458 280 458 296 C458 340 442 374 420 396 C402 414 371 432 320 432 C295 432 273 428 248 416 C232 408 219 399 206 383 L211 421 L113 421 L61 0 Z M118 -236 L184 -270 L300 -92 L214 -50 L118 -236 Z " />
<glyph glyph-name="Ncaron" unicode="&#x147;" horiz-adv-x="746" d="M182 0 L239 466 L661 -41 L748 667 L646 667 L589 205 L167 712 L80 0 L182 0 Z M474 838 L385 920 L314 864 L463 730 L644 864 L583 920 L474 838 Z " />
<glyph glyph-name="ncaron" unicode="&#x148;" horiz-adv-x="485" d="M61 0 L159 0 L184 203 C190 253 199 296 225 321 C233 329 253 344 288 344 C306 344 325 339 338 327 C354 312 357 290 357 273 C357 269 357 254 352 217 L325 0 L423 0 L449 207 C456 262 458 280 458 296 C458 340 442 374 420 396 C402 414 371 432 320 432 C295 432 273 428 248 416 C232 408 219 399 206 383 L211 421 L113 421 L61 0 Z M329 589 L252 675 L182 623 L320 485 L490 623 L428 675 L329 589 Z " />
<glyph glyph-name="Omacron" unicode="&#x14c;" horiz-adv-x="796" d="M478 679 C364 679 264 640 198 574 C131 508 89 406 89 300 C89 207 125 127 178 73 C242 7 318 -13 409 -13 C493 -13 596 1 684 90 C734 141 789 229 789 366 C789 423 779 517 703 592 C664 631 594 679 478 679 L478 679 Z M410 81 C354 81 299 95 252 145 C226 172 190 224 190 307 C190 397 227 466 273 511 C329 566 394 585 458 585 C532 585 590 555 627 517 C655 488 687 438 687 360 C687 282 657 203 606 153 C562 109 498 81 410 81 L410 81 Z M305 733 L665 733 L675 813 L315 813 L305 733 Z " />
<glyph glyph-name="omacron" unicode="&#x14d;" horiz-adv-x="534" d="M313 432 C241 432 185 411 139 367 C95 325 66 264 66 191 C66 123 93 76 124 44 C170 -3 220 -13 274 -13 C342 -13 396 3 447 52 C509 112 520 182 520 230 C520 300 490 348 463 376 C415 424 357 432 313 432 L313 432 Z M287 75 C235 75 207 101 197 112 C177 135 166 167 166 199 C166 242 183 282 212 309 C231 327 262 344 307 344 C339 344 366 334 387 312 C415 283 420 247 420 224 C420 179 404 141 380 115 C353 86 321 75 287 75 L287 75 Z M152 508 L482 508 L492 586 L162 586 L152 508 Z " />
<glyph glyph-name="Obreve" unicode="&#x14e;" horiz-adv-x="796" d="M478 679 C364 679 264 640 198 574 C131 508 89 406 89 300 C89 207 125 127 178 73 C242 7 318 -13 409 -13 C493 -13 596 1 684 90 C734 141 789 229 789 366 C789 423 779 517 703 592 C664 631 594 679 478 679 L478 679 Z M410 81 C354 81 299 95 252 145 C226 172 190 224 190 307 C190 397 227 466 273 511 C329 566 394 585 458 585 C532 585 590 555 627 517 C655 488 687 438 687 360 C687 282 657 203 606 153 C562 109 498 81 410 81 L410 81 Z M575 874 C569 856 557 837 541 826 C521 812 496 810 479 810 C464 810 444 812 427 825 C414 835 403 853 399 874 L317 874 C322 828 344 784 379 758 C408 736 443 730 475 730 C509 730 550 738 579 756 C630 788 651 849 657 874 L575 874 Z " />
<glyph glyph-name="obreve" unicode="&#x14f;" horiz-adv-x="534" d="M313 432 C241 432 185 411 139 367 C95 325 66 264 66 191 C66 123 93 76 124 44 C170 -3 220 -13 274 -13 C342 -13 396 3 447 52 C509 112 520 182 520 230 C520 300 490 348 463 376 C415 424 357 432 313 432 L313 432 Z M287 75 C235 75 207 101 197 112 C177 135 166 167 166 199 C166 242 183 282 212 309 C231 327 262 344 307 344 C339 344 366 334 387 312 C415 283 420 247 420 224 C420 179 404 141 380 115 C353 86 321 75 287 75 L287 75 Z M408 638 C403 621 391 601 375 589 C361 578 341 573 321 573 C302 573 282 578 269 589 C255 601 245 621 242 638 L165 638 C169 594 189 554 222 530 C254 507 291 503 324 503 C358 503 391 508 421 529 C462 557 481 605 489 638 L408 638 Z " />
<glyph glyph-name="Ohungarumlaut" unicode="&#x150;" horiz-adv-x="796" d="M478 679 C364 679 264 640 198 574 C131 508 89 406 89 300 C89 207 125 127 178 73 C242 7 318 -13 409 -13 C493 -13 596 1 684 90 C734 141 789 229 789 366 C789 423 779 517 703 592 C664 631 594 679 478 679 L478 679 Z M410 81 C354 81 299 95 252 145 C226 172 190 224 190 307 C190 397 227 466 273 511 C329 566 394 585 458 585 C532 585 590 555 627 517 C655 488 687 438 687 360 C687 282 657 203 606 153 C562 109 498 81 410 81 L410 81 Z M473 906 L334 763 L373 727 L545 854 L473 906 Z M673 906 L534 763 L573 727 L745 854 L673 906 Z " />
<glyph glyph-name="ohungarumlaut" unicode="&#x151;" horiz-adv-x="534" d="M313 432 C241 432 185 411 139 367 C95 325 66 264 66 191 C66 123 93 76 124 44 C170 -3 220 -13 274 -13 C342 -13 396 3 447 52 C509 112 520 182 520 230 C520 300 490 348 463 376 C415 424 357 432 313 432 L313 432 Z M287 75 C235 75 207 101 197 112 C177 135 166 167 166 199 C166 242 183 282 212 309 C231 327 262 344 307 344 C339 344 366 334 387 312 C415 283 420 247 420 224 C420 179 404 141 380 115 C353 86 321 75 287 75 L287 75 Z M305 675 L180 519 L218 485 L381 629 L305 675 Z M485 675 L360 519 L398 485 L561 629 L485 675 Z " />
<glyph glyph-name="OE" unicode="&#x152;" horiz-adv-x="1061" d="M1091 667 L723 667 L710 564 C688 598 661 623 620 644 C572 669 524 679 474 679 C364 679 265 640 198 574 C131 508 89 406 89 300 C89 207 125 127 178 73 C251 -1 335 -13 416 -13 C468 -13 511 -7 557 14 C568 19 610 40 651 81 L641 0 L747 0 L1009 0 L1021 96 L755 96 L782 316 L1040 316 L1052 412 L794 412 L813 571 L1079 571 L1091 667 Z M413 81 C356 81 301 95 254 145 C228 172 192 224 192 307 C192 397 229 466 275 511 C314 550 373 585 457 585 C530 585 589 555 626 517 C654 488 686 438 686 360 C686 282 656 203 605 153 C569 118 509 81 413 81 L413 81 Z " />
<glyph glyph-name="oe" unicode="&#x153;" horiz-adv-x="845" d="M733 142 C723 124 706 105 689 94 C670 82 645 75 622 75 C589 75 566 88 553 102 C533 123 522 157 522 187 L823 187 C827 206 828 223 828 236 C828 297 808 349 776 383 C736 425 689 432 649 432 C611 432 582 428 548 410 C522 396 500 378 482 354 C470 371 450 393 416 410 C384 426 348 432 313 432 C221 432 165 394 137 367 C95 327 66 262 66 191 C66 123 93 75 124 44 C164 3 211 -13 272 -13 C326 -13 361 1 382 11 C393 17 425 34 453 70 C470 43 491 24 511 12 C545 -8 580 -13 612 -13 C647 -13 691 -7 732 17 C760 34 789 61 810 96 L733 142 Z M287 75 C236 75 208 101 198 112 C178 135 167 167 167 199 C167 242 184 282 213 309 C237 332 267 344 305 344 C339 344 366 333 387 312 C415 283 420 247 420 224 C420 171 399 136 380 115 C356 89 326 75 287 75 L287 75 Z M537 267 C545 287 559 309 576 323 C593 338 618 348 647 348 C673 348 691 339 703 329 C719 315 731 293 733 267 L537 267 Z " />
<glyph glyph-name="Racute" unicode="&#x154;" horiz-adv-x="534" d="M162 667 L80 0 L182 0 L216 273 L234 273 L391 0 L514 0 L341 285 C383 293 426 314 455 341 C485 369 513 417 513 485 C513 555 481 602 449 626 C401 663 333 667 281 667 L162 667 Z M252 573 L287 573 C331 573 360 566 378 554 C399 540 415 514 415 479 C415 443 397 411 374 393 C343 368 294 361 258 361 L226 361 L252 573 Z M323 727 L514 846 L435 906 L280 767 L323 727 Z " />
<glyph glyph-name="racute" unicode="&#x155;" horiz-adv-x="332" d="M62 0 L160 0 L187 218 C190 239 198 287 223 313 C237 327 258 338 288 338 C308 338 325 333 340 323 L388 412 C360 429 336 432 316 432 C296 432 274 430 252 419 C228 407 212 389 207 383 L212 421 L114 421 L62 0 Z M368 675 L229 519 L279 485 L452 629 L368 675 Z " />
<glyph glyph-name="Rcommaaccent" unicode="&#x156;" horiz-adv-x="534" d="M162 667 L80 0 L182 0 L216 273 L234 273 L391 0 L514 0 L341 285 C383 293 426 314 455 341 C485 369 513 417 513 485 C513 555 481 602 449 626 C401 663 333 667 281 667 L162 667 Z M252 573 L287 573 C331 573 360 566 378 554 C399 540 415 514 415 479 C415 443 397 411 374 393 C343 368 294 361 258 361 L226 361 L252 573 Z M136 -274 L203 -300 L330 -84 L240 -50 L136 -274 Z " />
<glyph glyph-name="rcommaaccent" unicode="&#x157;" horiz-adv-x="332" d="M62 0 L160 0 L187 218 C190 239 198 287 223 313 C237 327 258 338 288 338 C308 338 325 333 340 323 L388 412 C360 429 336 432 316 432 C296 432 274 430 252 419 C228 407 212 389 207 383 L212 421 L114 421 L62 0 Z M58 -236 L124 -270 L240 -92 L154 -50 L58 -236 Z " />
<glyph glyph-name="Rcaron" unicode="&#x158;" horiz-adv-x="534" d="M162 667 L80 0 L182 0 L216 273 L234 273 L391 0 L514 0 L341 285 C383 293 426 314 455 341 C485 369 513 417 513 485 C513 555 481 602 449 626 C401 663 333 667 281 667 L162 667 Z M252 573 L287 573 C331 573 360 566 378 554 C399 540 415 514 415 479 C415 443 397 411 374 393 C343 368 294 361 258 361 L226 361 L252 573 Z M341 838 L252 920 L181 864 L330 730 L511 864 L450 920 L341 838 Z " />
<glyph glyph-name="rcaron" unicode="&#x159;" horiz-adv-x="332" d="M62 0 L160 0 L187 218 C190 239 198 287 223 313 C237 327 258 338 288 338 C308 338 325 333 340 323 L388 412 C360 429 336 432 316 432 C296 432 274 430 252 419 C228 407 212 389 207 383 L212 421 L114 421 L62 0 Z M273 589 L196 675 L126 623 L264 485 L434 623 L372 675 L273 589 Z " />
<glyph glyph-name="Sacute" unicode="&#x15a;" horiz-adv-x="516" d="M520 567 C511 593 493 624 457 648 C418 674 375 679 342 679 C271 679 219 653 183 615 C130 559 130 495 130 486 C130 446 146 412 167 388 C190 363 222 346 246 335 L297 312 C319 302 346 290 365 270 C381 253 391 234 391 207 C391 173 379 132 353 109 C335 93 310 81 274 81 C231 81 205 95 189 116 C171 140 165 180 166 206 L63 184 C65 120 92 66 125 34 C162 -2 207 -13 259 -13 C311 -13 379 -2 433 54 C467 90 494 142 494 219 C494 260 486 295 459 328 C444 347 418 370 375 389 L321 413 C296 424 277 429 256 448 C242 461 232 476 232 499 C232 523 244 545 260 559 C273 571 297 585 336 585 C356 585 383 580 402 566 C416 555 427 538 432 519 L520 567 Z M331 727 L522 846 L443 906 L288 767 L331 727 Z " />
<glyph glyph-name="sacute" unicode="&#x15b;" horiz-adv-x="364" d="M354 358 C343 378 326 399 306 412 C283 427 260 432 233 432 C198 432 160 425 129 394 C107 372 91 340 91 301 C91 269 102 245 120 228 C133 215 155 203 168 196 L195 182 C209 175 224 169 235 158 C245 148 249 136 249 123 C249 107 244 95 233 86 C224 78 211 73 194 73 C177 73 163 79 153 88 C143 97 134 113 130 129 L45 91 C60 42 93 17 97 14 C128 -9 166 -13 191 -13 C244 -13 282 2 309 27 C330 47 351 79 351 129 C351 175 332 202 319 216 C315 220 300 235 266 252 L238 266 C212 279 204 282 197 288 C189 294 185 302 185 312 C185 322 190 330 194 334 C204 344 218 346 228 346 C239 346 248 344 258 336 C266 330 273 322 278 310 L354 358 Z M338 675 L199 519 L249 485 L422 629 L338 675 Z " />
<glyph glyph-name="Scircumflex" unicode="&#x15c;" horiz-adv-x="516" d="M520 567 C511 593 493 624 457 648 C418 674 375 679 342 679 C271 679 219 653 183 615 C130 559 130 495 130 486 C130 446 146 412 167 388 C190 363 222 346 246 335 L297 312 C319 302 346 290 365 270 C381 253 391 234 391 207 C391 173 379 132 353 109 C335 93 310 81 274 81 C231 81 205 95 189 116 C171 140 165 180 166 206 L63 184 C65 120 92 66 125 34 C162 -2 207 -13 259 -13 C311 -13 379 -2 433 54 C467 90 494 142 494 219 C494 260 486 295 459 328 C444 347 418 370 375 389 L321 413 C296 424 277 429 256 448 C242 461 232 476 232 499 C232 523 244 545 260 559 C273 571 297 585 336 585 C356 585 383 580 402 566 C416 555 427 538 432 519 L520 567 Z M363 812 L452 730 L522 786 L373 920 L192 786 L254 730 L363 812 Z " />
<glyph glyph-name="scircumflex" unicode="&#x15d;" horiz-adv-x="364" d="M354 358 C343 378 326 399 306 412 C283 427 260 432 233 432 C198 432 160 425 129 394 C107 372 91 340 91 301 C91 269 102 245 120 228 C133 215 155 203 168 196 L195 182 C209 175 224 169 235 158 C245 148 249 136 249 123 C249 107 244 95 233 86 C224 78 211 73 194 73 C177 73 163 79 153 88 C143 97 134 113 130 129 L45 91 C60 42 93 17 97 14 C128 -9 166 -13 191 -13 C244 -13 282 2 309 27 C330 47 351 79 351 129 C351 175 332 202 319 216 C315 220 300 235 266 252 L238 266 C212 279 204 282 197 288 C189 294 185 302 185 312 C185 322 190 330 194 334 C204 344 218 346 228 346 C239 346 248 344 258 336 C266 330 273 322 278 310 L354 358 Z M252 571 L330 485 L400 537 L263 675 L92 537 L154 485 L252 571 Z " />
<glyph glyph-name="Scedilla" unicode="&#x15e;" horiz-adv-x="516" d="M520 567 C511 593 493 624 457 648 C418 674 375 679 342 679 C271 679 219 653 183 615 C130 559 130 495 130 486 C130 446 146 412 167 388 C190 363 222 346 246 335 L297 312 C319 302 346 290 365 270 C381 253 391 234 391 207 C391 173 379 132 353 109 C335 93 310 81 274 81 C231 81 205 95 189 116 C171 140 165 180 166 206 L63 184 C65 120 92 66 125 34 C162 -2 207 -13 259 -13 C311 -13 379 -2 433 54 C467 90 494 142 494 219 C494 260 486 295 459 328 C444 347 418 370 375 389 L321 413 C296 424 277 429 256 448 C242 461 232 476 232 499 C232 523 244 545 260 559 C273 571 297 585 336 585 C356 585 383 580 402 566 C416 555 427 538 432 519 L520 567 Z M233 -53 L126 -192 L186 -224 L315 -91 L233 -53 Z " />
<glyph glyph-name="scedilla" unicode="&#x15f;" horiz-adv-x="364" d="M354 358 C343 378 326 399 306 412 C283 427 260 432 233 432 C198 432 160 425 129 394 C107 372 91 340 91 301 C91 269 102 245 120 228 C133 215 155 203 168 196 L195 182 C209 175 224 169 235 158 C245 148 249 136 249 123 C249 107 244 95 233 86 C224 78 211 73 194 73 C177 73 163 79 153 88 C143 97 134 113 130 129 L45 91 C60 42 93 17 97 14 C128 -9 166 -13 191 -13 C244 -13 282 2 309 27 C330 47 351 79 351 129 C351 175 332 202 319 216 C315 220 300 235 266 252 L238 266 C212 279 204 282 197 288 C189 294 185 302 185 312 C185 322 190 330 194 334 C204 344 218 346 228 346 C239 346 248 344 258 336 C266 330 273 322 278 310 L354 358 Z M161 -53 L61 -187 L121 -219 L240 -85 L161 -53 Z " />
<glyph glyph-name="Scaron" unicode="&#x160;" horiz-adv-x="516" d="M520 567 C511 593 493 624 457 648 C418 674 375 679 342 679 C271 679 219 653 183 615 C130 559 130 495 130 486 C130 446 146 412 167 388 C190 363 222 346 246 335 L297 312 C319 302 346 290 365 270 C381 253 391 234 391 207 C391 173 379 132 353 109 C335 93 310 81 274 81 C231 81 205 95 189 116 C171 140 165 180 166 206 L63 184 C65 120 92 66 125 34 C162 -2 207 -13 259 -13 C311 -13 379 -2 433 54 C467 90 494 142 494 219 C494 260 486 295 459 328 C444 347 418 370 375 389 L321 413 C296 424 277 429 256 448 C242 461 232 476 232 499 C232 523 244 545 260 559 C273 571 297 585 336 585 C356 585 383 580 402 566 C416 555 427 538 432 519 L520 567 Z M361 838 L272 920 L201 864 L350 730 L531 864 L470 920 L361 838 Z " />
<glyph glyph-name="scaron" unicode="&#x161;" horiz-adv-x="364" d="M354 358 C343 378 326 399 306 412 C283 427 260 432 233 432 C198 432 160 425 129 394 C107 372 91 340 91 301 C91 269 102 245 120 228 C133 215 155 203 168 196 L195 182 C209 175 224 169 235 158 C245 148 249 136 249 123 C249 107 244 95 233 86 C224 78 211 73 194 73 C177 73 163 79 153 88 C143 97 134 113 130 129 L45 91 C60 42 93 17 97 14 C128 -9 166 -13 191 -13 C244 -13 282 2 309 27 C330 47 351 79 351 129 C351 175 332 202 319 216 C315 220 300 235 266 252 L238 266 C212 279 204 282 197 288 C189 294 185 302 185 312 C185 322 190 330 194 334 C204 344 218 346 228 346 C239 346 248 344 258 336 C266 330 273 322 278 310 L354 358 Z M250 589 L173 675 L103 623 L241 485 L411 623 L349 675 L250 589 Z " />
<glyph glyph-name="Tcedilla" unicode="&#x162;" horiz-adv-x="428" d="M488 571 L500 667 L92 667 L80 571 L233 571 L163 0 L265 0 L335 571 L488 571 Z M193 -53 L86 -192 L146 -224 L275 -91 L193 -53 Z " />
<glyph glyph-name="tcedilla" unicode="&#x163;" horiz-adv-x="242" d="M279 331 L290 421 L215 421 L234 575 L136 575 L117 421 L76 421 L65 331 L106 331 L65 0 L163 0 L204 331 L279 331 Z M91 -53 L-9 -187 L51 -219 L170 -85 L91 -53 Z " />
<glyph glyph-name="Tcaron" unicode="&#x164;" horiz-adv-x="428" d="M488 571 L500 667 L92 667 L80 571 L233 571 L163 0 L265 0 L335 571 L488 571 Z M315 838 L226 920 L155 864 L304 730 L485 864 L424 920 L315 838 Z " />
<glyph glyph-name="tcaron" unicode="&#x165;" horiz-adv-x="360" d="M279 331 L290 421 L215 421 L234 575 L136 575 L117 421 L76 421 L65 331 L106 331 L65 0 L163 0 L204 331 L279 331 Z M260 484 L326 450 L460 646 L374 690 L260 484 Z " />
<glyph glyph-name="Utilde" unicode="&#x168;" horiz-adv-x="656" d="M164 667 L120 313 C111 243 109 221 109 202 C109 135 132 91 153 65 C198 8 260 -13 334 -13 C418 -13 476 15 511 44 C549 76 593 139 605 238 L658 667 L556 667 L507 265 C501 214 495 166 453 124 C431 103 396 81 342 81 C295 81 266 99 248 117 C217 148 213 184 213 216 C213 245 218 272 220 292 L266 667 L164 667 Z M556 863 C553 858 545 844 533 830 C525 821 513 811 495 811 C481 811 466 819 445 830 L426 840 C407 850 389 855 366 855 C339 855 314 846 292 828 C276 815 254 789 243 774 L297 733 C305 748 314 757 319 761 C327 768 338 775 353 775 C368 775 384 768 402 759 L423 749 C443 740 458 733 484 733 C512 733 535 738 560 759 C577 773 596 797 608 817 L556 863 Z " />
<glyph glyph-name="utilde" unicode="&#x169;" horiz-adv-x="485" d="M115 421 L87 192 C84 166 82 149 82 135 C82 96 96 59 121 33 C147 6 192 -13 255 -13 C323 -13 365 10 388 32 C432 74 440 134 445 177 L475 421 L377 421 L347 180 C343 151 339 118 317 97 C303 84 278 75 256 75 C236 75 214 82 201 95 C191 105 181 123 181 153 C181 166 183 180 186 202 L213 421 L115 421 Z M440 622 C435 610 428 598 419 587 C409 575 399 566 380 566 C361 566 346 575 333 584 L318 594 C305 602 283 614 251 614 C220 614 198 604 176 587 C158 573 140 551 127 533 L181 492 C187 502 195 514 202 521 C211 531 222 538 238 538 C257 538 274 528 288 520 L308 508 C323 499 342 490 368 490 C394 490 422 499 448 521 C467 537 483 558 493 576 L440 622 Z " />
<glyph glyph-name="Umacron" unicode="&#x16a;" horiz-adv-x="656" d="M164 667 L120 313 C111 243 109 221 109 202 C109 135 132 91 153 65 C198 8 260 -13 334 -13 C418 -13 476 15 511 44 C549 76 593 139 605 238 L658 667 L556 667 L507 265 C501 214 495 166 453 124 C431 103 396 81 342 81 C295 81 266 99 248 117 C217 148 213 184 213 216 C213 245 218 272 220 292 L266 667 L164 667 Z M237 733 L597 733 L607 813 L247 813 L237 733 Z " />
<glyph glyph-name="umacron" unicode="&#x16b;" horiz-adv-x="485" d="M115 421 L87 192 C84 166 82 149 82 135 C82 96 96 59 121 33 C147 6 192 -13 255 -13 C323 -13 365 10 388 32 C432 74 440 134 445 177 L475 421 L377 421 L347 180 C343 151 339 118 317 97 C303 84 278 75 256 75 C236 75 214 82 201 95 C191 105 181 123 181 153 C181 166 183 180 186 202 L213 421 L115 421 Z M139 508 L469 508 L479 586 L149 586 L139 508 Z " />
<glyph glyph-name="Ubreve" unicode="&#x16c;" horiz-adv-x="656" d="M164 667 L120 313 C111 243 109 221 109 202 C109 135 132 91 153 65 C198 8 260 -13 334 -13 C418 -13 476 15 511 44 C549 76 593 139 605 238 L658 667 L556 667 L507 265 C501 214 495 166 453 124 C431 103 396 81 342 81 C295 81 266 99 248 117 C217 148 213 184 213 216 C213 245 218 272 220 292 L266 667 L164 667 Z M522 874 C516 856 504 837 488 826 C468 812 443 810 426 810 C411 810 391 812 374 825 C361 835 350 853 346 874 L264 874 C269 828 291 784 326 758 C355 736 390 730 422 730 C456 730 497 738 526 756 C577 788 598 849 604 874 L522 874 Z " />
<glyph glyph-name="ubreve" unicode="&#x16d;" horiz-adv-x="485" d="M115 421 L87 192 C84 166 82 149 82 135 C82 96 96 59 121 33 C147 6 192 -13 255 -13 C323 -13 365 10 388 32 C432 74 440 134 445 177 L475 421 L377 421 L347 180 C343 151 339 118 317 97 C303 84 278 75 256 75 C236 75 214 82 201 95 C191 105 181 123 181 153 C181 166 183 180 186 202 L213 421 L115 421 Z M400 638 C395 621 383 601 367 589 C353 578 333 573 313 573 C294 573 274 578 261 589 C247 601 237 621 234 638 L157 638 C161 594 181 554 214 530 C246 507 283 503 316 503 C350 503 383 508 413 529 C454 557 473 605 481 638 L400 638 Z " />
<glyph glyph-name="Uring" unicode="&#x16e;" horiz-adv-x="656" d="M164 667 L120 313 C111 243 109 221 109 202 C109 135 132 91 153 65 C198 8 260 -13 334 -13 C418 -13 476 15 511 44 C549 76 593 139 605 238 L658 667 L556 667 L507 265 C501 214 495 166 453 124 C431 103 396 81 342 81 C295 81 266 99 248 117 C217 148 213 184 213 216 C213 245 218 272 220 292 L266 667 L164 667 Z M330 815 C330 787 340 766 356 750 C375 731 395 726 419 726 C451 726 476 735 497 756 C517 776 526 801 526 832 C526 852 521 877 501 896 C491 906 470 920 437 920 C404 920 376 907 357 886 C344 872 330 849 330 815 L330 815 Z M385 819 C385 832 391 845 399 853 C407 860 419 866 433 866 C446 866 454 861 460 855 C466 849 471 841 471 828 C471 816 467 803 458 794 C450 786 437 780 423 780 C411 780 402 784 396 790 C390 796 385 806 385 819 L385 819 Z " />
<glyph glyph-name="uring" unicode="&#x16f;" horiz-adv-x="485" d="M115 421 L87 192 C84 166 82 149 82 135 C82 96 96 59 121 33 C147 6 192 -13 255 -13 C323 -13 365 10 388 32 C432 74 440 134 445 177 L475 421 L377 421 L347 180 C343 151 339 118 317 97 C303 84 278 75 256 75 C236 75 214 82 201 95 C191 105 181 123 181 153 C181 166 183 180 186 202 L213 421 L115 421 Z M218 573 C218 544 229 525 242 511 C258 495 281 485 309 485 C341 485 365 499 379 513 C391 525 408 549 408 588 C408 603 405 629 383 650 C370 662 350 673 319 673 C285 673 261 661 244 643 C232 630 218 607 218 573 L218 573 Z M269 575 C269 588 273 599 281 608 C288 615 298 622 315 622 C326 622 336 619 343 613 C349 608 356 598 356 584 C356 569 351 556 342 548 C334 540 321 536 309 536 C298 536 287 540 280 547 C274 553 269 563 269 575 L269 575 Z " />
<glyph glyph-name="Uhungarumlaut" unicode="&#x170;" horiz-adv-x="656" d="M164 667 L120 313 C111 243 109 221 109 202 C109 135 132 91 153 65 C198 8 260 -13 334 -13 C418 -13 476 15 511 44 C549 76 593 139 605 238 L658 667 L556 667 L507 265 C501 214 495 166 453 124 C431 103 396 81 342 81 C295 81 266 99 248 117 C217 148 213 184 213 216 C213 245 218 272 220 292 L266 667 L164 667 Z M400 906 L261 763 L300 727 L472 854 L400 906 Z M600 906 L461 763 L500 727 L672 854 L600 906 Z " />
<glyph glyph-name="uhungarumlaut" unicode="&#x171;" horiz-adv-x="485" d="M115 421 L87 192 C84 166 82 149 82 135 C82 96 96 59 121 33 C147 6 192 -13 255 -13 C323 -13 365 10 388 32 C432 74 440 134 445 177 L475 421 L377 421 L347 180 C343 151 339 118 317 97 C303 84 278 75 256 75 C236 75 214 82 201 95 C191 105 181 123 181 153 C181 166 183 180 186 202 L213 421 L115 421 Z M295 675 L170 519 L208 485 L371 629 L295 675 Z M475 675 L350 519 L388 485 L551 629 L475 675 Z " />
<glyph glyph-name="Uogonek" unicode="&#x172;" horiz-adv-x="656" d="M164 667 L120 313 C112 246 109 222 109 202 C109 135 134 81 167 48 C228 -14 316 -15 356 -12 C335 -29 326 -37 322 -41 C298 -65 288 -91 288 -116 C288 -141 298 -159 311 -171 C330 -189 353 -193 373 -193 C403 -193 428 -186 445 -178 L463 -106 C446 -112 425 -115 409 -115 C404 -115 389 -114 381 -108 C374 -102 373 -94 373 -89 C373 -69 384 -55 396 -43 C414 -25 431 -12 448 -1 C476 19 501 34 525 57 C584 114 598 180 605 238 L658 667 L556 667 L507 265 C501 214 495 166 453 124 C431 103 396 81 342 81 C295 81 266 99 248 117 C217 148 213 184 213 216 C213 245 218 272 220 292 L266 667 L164 667 Z " />
<glyph glyph-name="uogonek" unicode="&#x173;" horiz-adv-x="485" d="M115 421 L87 192 C84 166 82 149 82 135 C82 96 96 59 121 33 C157 -3 210 -14 268 -13 C252 -24 239 -37 227 -52 C214 -68 201 -88 201 -115 C201 -134 208 -154 226 -169 C242 -182 265 -189 287 -189 C308 -189 334 -182 355 -170 L372 -106 C359 -110 337 -115 321 -115 C317 -115 302 -115 293 -109 C286 -105 282 -99 282 -89 C282 -72 296 -55 305 -45 C316 -33 329 -22 341 -11 C357 3 373 17 388 32 C431 77 438 117 445 177 L475 421 L377 421 L347 180 C344 157 341 119 317 97 C303 84 278 75 256 75 C236 75 214 82 201 95 C191 105 181 123 181 153 C181 166 183 180 186 202 L213 421 L115 421 Z " />
<glyph glyph-name="Ydieresis" unicode="&#x178;" horiz-adv-x="540" d="M219 0 L321 0 L356 288 L622 667 L504 667 L317 400 L196 667 L82 667 L254 288 L219 0 Z M393 788 C393 773 398 758 409 748 C417 740 429 733 448 733 C467 733 484 740 497 752 C509 763 518 780 518 801 C518 819 511 833 502 842 C491 854 477 857 464 857 C442 857 425 848 414 837 C402 825 393 807 393 788 L393 788 Z M198 788 C198 773 203 758 214 748 C222 740 234 733 253 733 C272 733 289 740 302 752 C314 763 323 780 323 801 C323 819 316 833 307 842 C296 854 282 857 269 857 C247 857 230 848 219 837 C207 825 198 807 198 788 L198 788 Z " />
<glyph glyph-name="Zacute" unicode="&#x179;" horiz-adv-x="554" d="M606 667 L166 667 L154 571 L428 571 L30 0 L516 0 L528 96 L208 96 L606 667 Z M363 727 L554 846 L475 906 L320 767 L363 727 Z " />
<glyph glyph-name="zacute" unicode="&#x17a;" horiz-adv-x="480" d="M524 421 L118 421 L107 331 L322 331 L8 0 L451 0 L462 90 L212 90 L524 421 Z M398 675 L259 519 L309 485 L482 629 L398 675 Z " />
<glyph glyph-name="Zdotaccent" unicode="&#x17b;" horiz-adv-x="554" d="M606 667 L166 667 L154 571 L428 571 L30 0 L516 0 L528 96 L208 96 L606 667 Z M321 794 C321 773 330 758 339 750 C350 739 363 734 381 734 C408 734 426 745 436 756 C449 770 456 789 456 809 C456 827 449 840 440 850 C431 859 417 868 394 868 C372 868 355 859 343 847 C328 832 321 812 321 794 L321 794 Z " />
<glyph glyph-name="zdotaccent" unicode="&#x17c;" horiz-adv-x="480" d="M524 421 L118 421 L107 331 L322 331 L8 0 L451 0 L462 90 L212 90 L524 421 Z M252 542 C252 521 261 508 270 500 C282 489 297 485 312 485 C333 485 349 492 361 504 C374 517 383 535 383 555 C383 573 376 589 364 600 C350 613 333 615 322 615 C305 615 289 611 274 596 C261 583 252 564 252 542 L252 542 Z " />
<glyph glyph-name="Zcaron" unicode="&#x17d;" horiz-adv-x="554" d="M606 667 L166 667 L154 571 L428 571 L30 0 L516 0 L528 96 L208 96 L606 667 Z M391 838 L302 920 L231 864 L380 730 L561 864 L500 920 L391 838 Z " />
<glyph glyph-name="zcaron" unicode="&#x17e;" horiz-adv-x="480" d="M524 421 L118 421 L107 331 L322 331 L8 0 L451 0 L462 90 L212 90 L524 421 Z M329 589 L252 675 L182 623 L320 485 L490 623 L428 675 L329 589 Z " />
<glyph glyph-name="uni018F" unicode="&#x18f;" horiz-adv-x="750" d="M214 484 C227 500 253 531 295 555 C337 579 375 585 417 585 C475 585 529 572 575 525 C611 488 640 429 640 357 L91 357 C90 342 87 316 87 298 C87 221 111 135 170 74 C241 0 332 -13 402 -13 C503 -13 581 15 648 88 C704 150 743 237 743 357 C743 430 726 523 649 598 C584 661 509 679 420 679 C356 679 307 668 255 641 C235 630 183 601 133 544 L214 484 Z M626 263 C615 199 582 155 553 130 C505 89 450 81 403 81 C358 81 300 88 254 131 C225 158 198 203 194 263 L626 263 Z " />
<glyph glyph-name="florin" unicode="&#x192;" horiz-adv-x="568" d="M598 731 C586 734 561 740 531 740 C488 740 447 729 413 697 C373 660 355 605 345 565 L309 421 L224 421 L204 343 L289 343 L218 63 C204 8 189 -34 165 -56 C138 -81 102 -83 73 -83 L67 -83 L44 -176 C53 -177 62 -177 71 -177 C140 -177 198 -157 234 -123 C282 -79 304 -2 321 65 L391 343 L503 343 L523 421 L411 421 L444 553 C452 585 461 611 477 627 C491 642 509 648 530 648 C549 648 564 642 573 638 L598 731 Z " />
<glyph glyph-name="uni01CF" unicode="&#x1cf;" horiz-adv-x="262" d="M162 667 L80 0 L182 0 L264 667 L162 667 Z M234 838 L164 915 L99 866 L221 735 L375 866 L322 915 L234 838 Z " />
<glyph glyph-name="uni01D0" unicode="&#x1d0;" horiz-adv-x="223" d="M115 421 L63 0 L161 0 L213 421 L115 421 Z M185 593 L124 666 L64 620 L173 495 L312 620 L264 666 L185 593 Z " />
<glyph glyph-name="uni01DD" unicode="&#x1dd;" horiz-adv-x="489" d="M69 242 C67 225 66 209 66 194 C66 121 90 67 123 34 C161 -4 205 -13 255 -13 C303 -13 357 -6 406 43 C449 86 475 157 475 235 C475 279 465 337 417 382 C372 424 319 432 277 432 C235 432 199 423 164 403 C134 386 105 360 82 322 L171 292 C177 300 189 315 209 327 C230 340 249 343 272 343 C306 343 327 331 340 320 C358 304 372 274 373 242 L69 242 Z M362 162 C355 119 329 96 325 93 C305 76 282 71 257 71 C235 71 212 74 191 95 C175 112 165 137 163 162 L362 162 Z " />
<glyph glyph-name="Gcaron" unicode="&#x1e6;" horiz-adv-x="751" d="M459 253 L625 253 C612 191 580 154 558 134 C515 95 465 81 410 81 C327 81 280 116 255 141 C218 179 192 242 192 308 C192 378 217 454 274 510 C314 550 376 585 465 585 C508 585 549 575 587 551 C613 534 641 506 660 480 L742 541 C715 578 678 613 637 638 C585 669 535 679 475 679 C362 679 271 642 202 574 C132 505 89 404 89 298 C89 188 136 117 176 76 C243 6 318 -13 398 -13 C477 -13 564 3 636 74 C718 155 741 279 746 347 L471 347 L459 253 Z M491 838 L402 920 L331 864 L480 730 L661 864 L600 920 L491 838 Z " />
<glyph glyph-name="gcaron" unicode="&#x1e7;" horiz-adv-x="529" d="M415 375 C373 429 319 432 291 432 C226 432 180 416 137 374 C88 326 62 259 62 191 C62 124 85 76 120 41 C160 1 208 -13 253 -13 C284 -13 338 -6 375 47 L368 -7 C363 -45 355 -86 328 -113 C303 -138 271 -142 249 -142 C227 -142 199 -139 178 -118 C161 -100 152 -70 151 -47 L56 -47 C58 -93 75 -152 120 -190 C157 -221 202 -230 244 -230 C328 -230 380 -198 406 -169 C451 -119 462 -40 468 11 L519 421 L421 421 L415 375 Z M297 344 C330 344 354 330 370 314 C395 289 402 257 402 228 C402 170 379 133 357 111 C331 85 302 75 272 75 C240 75 213 90 195 109 C180 125 164 154 164 196 C164 235 178 280 204 307 C225 329 259 344 297 344 L297 344 Z M319 589 L242 675 L172 623 L310 485 L480 623 L418 675 L319 589 Z " />
<glyph glyph-name="AEacute" unicode="&#x1fc;" horiz-adv-x="926" d="M546 0 L916 0 L886 96 L621 96 L553 316 L811 316 L781 412 L523 412 L472 571 L737 571 L707 667 L412 667 L10 0 L120 0 L213 159 L496 159 L546 0 Z M269 255 L399 472 L467 255 L269 255 Z M536 727 L727 846 L648 906 L493 767 L536 727 Z " />
<glyph glyph-name="aeacute" unicode="&#x1fd;" horiz-adv-x="762" d="M140 328 C184 340 216 344 252 344 C276 344 303 341 322 327 C335 317 349 299 349 267 C349 260 349 252 347 243 C329 255 297 271 234 271 C171 271 126 251 99 225 C74 201 56 166 56 124 C56 73 80 38 106 19 C135 -3 174 -13 216 -13 C249 -13 286 -8 313 4 C336 14 360 31 379 55 C396 32 416 16 438 6 C468 -8 503 -13 531 -13 C579 -13 619 -1 649 17 C677 34 706 61 727 96 L650 142 C640 124 623 105 606 94 C587 82 562 75 539 75 C506 75 483 88 470 102 C450 123 439 157 439 187 L740 187 C744 206 745 223 745 236 C745 297 725 349 693 383 C653 424 606 432 566 432 C533 432 505 427 471 412 C448 402 431 390 414 374 C397 398 376 410 361 417 C335 428 298 432 270 432 C232 432 189 427 151 419 L140 328 Z M244 187 C261 187 286 185 305 172 C318 163 327 151 327 134 C327 119 321 101 299 87 C274 71 240 71 232 71 C201 71 184 80 175 86 C159 97 151 111 151 125 C151 138 156 153 169 164 C189 181 221 187 244 187 L244 187 Z M454 267 C462 287 476 309 493 323 C514 340 539 348 564 348 C588 348 611 340 625 325 C637 312 647 288 650 267 L454 267 Z M539 675 L400 519 L450 485 L623 629 L539 675 Z " />
<glyph glyph-name="Scommaaccent" unicode="&#x218;" horiz-adv-x="516" d="M520 567 C511 593 493 624 457 648 C418 674 375 679 342 679 C271 679 219 653 183 615 C130 559 130 495 130 486 C130 446 146 412 167 388 C190 363 222 346 246 335 L297 312 C319 302 346 290 365 270 C381 253 391 234 391 207 C391 173 379 132 353 109 C335 93 310 81 274 81 C231 81 205 95 189 116 C171 140 165 180 166 206 L63 184 C65 120 92 66 125 34 C162 -2 207 -13 259 -13 C311 -13 379 -2 433 54 C467 90 494 142 494 219 C494 260 486 295 459 328 C444 347 418 370 375 389 L321 413 C296 424 277 429 256 448 C242 461 232 476 232 499 C232 523 244 545 260 559 C273 571 297 585 336 585 C356 585 383 580 402 566 C416 555 427 538 432 519 L520 567 Z M126 -274 L193 -300 L320 -84 L230 -50 L126 -274 Z " />
<glyph glyph-name="scommaaccent" unicode="&#x219;" horiz-adv-x="364" d="M354 358 C343 378 326 399 306 412 C283 427 260 432 233 432 C198 432 160 425 129 394 C107 372 91 340 91 301 C91 269 102 245 120 228 C133 215 155 203 168 196 L195 182 C209 175 224 169 235 158 C245 148 249 136 249 123 C249 107 244 95 233 86 C224 78 211 73 194 73 C177 73 163 79 153 88 C143 97 134 113 130 129 L45 91 C60 42 93 17 97 14 C128 -9 166 -13 191 -13 C244 -13 282 2 309 27 C330 47 351 79 351 129 C351 175 332 202 319 216 C315 220 300 235 266 252 L238 266 C212 279 204 282 197 288 C189 294 185 302 185 312 C185 322 190 330 194 334 C204 344 218 346 228 346 C239 346 248 344 258 336 C266 330 273 322 278 310 L354 358 Z M58 -236 L124 -270 L240 -92 L154 -50 L58 -236 Z " />
<glyph glyph-name="Tcommaaccent" unicode="&#x21a;" horiz-adv-x="428" d="M488 571 L500 667 L92 667 L80 571 L233 571 L163 0 L265 0 L335 571 L488 571 Z M86 -274 L153 -300 L280 -84 L190 -50 L86 -274 Z " />
<glyph glyph-name="tcommaaccent" unicode="&#x21b;" horiz-adv-x="242" d="M279 331 L290 421 L215 421 L234 575 L136 575 L117 421 L76 421 L65 331 L106 331 L65 0 L163 0 L204 331 L279 331 Z M-2 -236 L64 -270 L180 -92 L94 -50 L-2 -236 Z " />
<glyph glyph-name="uni0228" unicode="&#x228;" horiz-adv-x="500" d="M530 667 L162 667 L80 0 L448 0 L460 96 L194 96 L220 306 L478 306 L490 402 L232 402 L252 571 L518 571 L530 667 Z M268 -53 L161 -192 L221 -224 L350 -91 L268 -53 Z " />
<glyph glyph-name="uni0229" unicode="&#x229;" horiz-adv-x="489" d="M377 142 C367 124 350 105 333 94 C314 82 289 75 266 75 C233 75 210 88 197 102 C177 123 166 157 166 187 L467 187 C471 206 472 223 472 236 C472 297 452 350 420 383 C381 424 332 432 293 432 C230 432 180 410 139 370 C93 325 66 262 66 190 C66 124 90 73 123 40 C161 1 206 -13 258 -13 C314 -13 352 3 376 17 C404 34 433 61 454 96 L377 142 Z M181 267 C189 287 203 309 220 323 C241 340 266 348 291 348 C315 348 338 340 352 325 C364 312 374 288 377 267 L181 267 Z M246 -53 L146 -187 L206 -219 L325 -85 L246 -53 Z " />
<glyph glyph-name="uni0237" unicode="&#x237;" horiz-adv-x="223" d="M114 421 L34 -229 L132 -229 L212 421 L114 421 Z " />
<glyph glyph-name="uni0259" unicode="&#x259;" horiz-adv-x="489" d="M69 242 C67 225 66 209 66 194 C66 121 90 67 123 34 C161 -4 205 -13 255 -13 C303 -13 357 -6 406 43 C449 86 475 157 475 235 C475 279 465 337 417 382 C372 424 319 432 277 432 C235 432 199 423 164 403 C134 386 105 360 82 322 L171 292 C177 300 189 315 209 327 C230 340 249 343 272 343 C306 343 327 331 340 320 C358 304 372 274 373 242 L69 242 Z M362 162 C355 119 329 96 325 93 C305 76 282 71 257 71 C235 71 212 74 191 95 C175 112 165 137 163 162 L362 162 Z " />
<glyph glyph-name="afii57929" unicode="&#x2bc;" horiz-adv-x="500" d="M180 484 L246 450 L380 646 L294 690 L180 484 Z " />
<glyph glyph-name="circumflex" unicode="&#x2c6;" horiz-adv-x="500" d="M322 571 L400 485 L470 537 L333 675 L162 537 L224 485 L322 571 Z " />
<glyph glyph-name="caron" unicode="&#x2c7;" horiz-adv-x="500" d="M319 589 L242 675 L172 623 L310 485 L480 623 L418 675 L319 589 Z " />
<glyph glyph-name="uni02C9" unicode="&#x2c9;" horiz-adv-x="500" d="M147 508 L477 508 L487 586 L157 586 L147 508 Z " />
<glyph glyph-name="breve" unicode="&#x2d8;" horiz-adv-x="500" d="M408 638 C403 621 391 601 375 589 C361 578 341 573 321 573 C302 573 282 578 269 589 C255 601 245 621 242 638 L165 638 C169 594 189 554 222 530 C254 507 291 503 324 503 C358 503 391 508 421 529 C462 557 481 605 489 638 L408 638 Z " />
<glyph glyph-name="dotaccent" unicode="&#x2d9;" horiz-adv-x="500" d="M252 542 C252 521 261 508 270 500 C282 489 297 485 312 485 C333 485 349 492 361 504 C374 517 383 535 383 555 C383 573 376 589 364 600 C350 613 333 615 322 615 C305 615 289 611 274 596 C261 583 252 564 252 542 L252 542 Z " />
<glyph glyph-name="ring" unicode="&#x2da;" horiz-adv-x="500" d="M226 573 C226 544 237 525 250 511 C266 495 289 485 317 485 C349 485 373 499 387 513 C399 525 416 549 416 588 C416 603 413 629 391 650 C378 662 358 673 327 673 C293 673 269 661 252 643 C240 630 226 607 226 573 L226 573 Z M277 575 C277 588 281 599 289 608 C296 615 306 622 323 622 C334 622 344 619 351 613 C357 608 364 598 364 584 C364 569 359 556 350 548 C342 540 329 536 317 536 C306 536 295 540 288 547 C282 553 277 563 277 575 L277 575 Z " />
<glyph glyph-name="ogonek" unicode="&#x2db;" horiz-adv-x="500" d="M241 0 C227 -10 206 -27 193 -41 C179 -55 158 -81 158 -115 C158 -134 165 -154 183 -169 C199 -182 222 -189 244 -189 C265 -189 291 -182 312 -170 L329 -106 C316 -110 294 -115 278 -115 C274 -115 259 -115 250 -109 C243 -105 239 -99 239 -89 C239 -72 253 -55 262 -45 C276 -30 305 -7 314 0 L241 0 Z " />
<glyph glyph-name="tilde" unicode="&#x2dc;" horiz-adv-x="500" d="M448 622 C443 610 436 598 427 587 C417 575 407 566 388 566 C369 566 354 575 341 584 L326 594 C313 602 291 614 259 614 C228 614 206 604 184 587 C166 573 148 551 135 533 L189 492 C195 502 203 514 210 521 C219 531 230 538 246 538 C265 538 282 528 296 520 L316 508 C331 499 350 490 376 490 C402 490 430 499 456 521 C475 537 491 558 501 576 L448 622 Z " />
<glyph glyph-name="hungarumlaut" unicode="&#x2dd;" horiz-adv-x="500" d="M315 675 L190 519 L228 485 L391 629 L315 675 Z M495 675 L370 519 L408 485 L571 629 L495 675 Z " />
<glyph glyph-name="acutecomb" unicode="&#x301;" horiz-adv-x="2" d="M-132 675 L-271 519 L-221 485 L-48 629 L-132 675 Z " />
<glyph glyph-name="&amp;#x394;" unicode="&#x394;" horiz-adv-x="668" d="M644 0 L384 667 L280 667 L24 0 L644 0 Z M332 529 L492 96 L172 96 L332 529 Z " />
<glyph glyph-name="&amp;#x2206;" unicode="&#x2206;" horiz-adv-x="668" d="M644 0 L384 667 L280 667 L24 0 L644 0 Z M332 529 L492 96 L172 96 L332 529 Z " />
<glyph glyph-name="&amp;#x3a9;" unicode="&#x3a9;" horiz-adv-x="621" d="M374 0 L638 0 L638 96 L477 96 C511 113 562 145 601 213 C629 261 638 304 638 357 C638 480 588 556 545 598 C475 667 392 679 333 679 C274 679 191 667 121 598 C78 556 28 480 28 357 C28 304 37 261 65 213 C104 145 155 113 189 96 L28 96 L28 0 L292 0 L292 108 C238 131 201 166 178 198 C142 247 130 298 130 351 C130 400 139 472 199 530 C245 574 295 585 333 585 C371 585 421 574 467 530 C527 472 536 400 536 351 C536 298 524 247 488 198 C465 166 428 131 374 108 L374 0 Z " />
<glyph glyph-name="&amp;#x2126;" unicode="&#x2126;" horiz-adv-x="621" d="M374 0 L638 0 L638 96 L477 96 C511 113 562 145 601 213 C629 261 638 304 638 357 C638 480 588 556 545 598 C475 667 392 679 333 679 C274 679 191 667 121 598 C78 556 28 480 28 357 C28 304 37 261 65 213 C104 145 155 113 189 96 L28 96 L28 0 L292 0 L292 108 C238 131 201 166 178 198 C142 247 130 298 130 351 C130 400 139 472 199 530 C245 574 295 585 333 585 C371 585 421 574 467 530 C527 472 536 400 536 351 C536 298 524 247 488 198 C465 166 428 131 374 108 L374 0 Z " />
<glyph glyph-name="pi" unicode="&#x3c0;" horiz-adv-x="543" d="M236 0 L236 331 L400 331 L400 0 L498 0 L498 331 L573 331 L573 421 L63 421 L63 331 L138 331 L138 0 L236 0 Z " />
<glyph glyph-name="afii10023" unicode="&#x401;" horiz-adv-x="500" d="M530 667 L162 667 L80 0 L448 0 L460 96 L194 96 L220 306 L478 306 L490 402 L232 402 L252 571 L518 571 L530 667 Z M397 788 C397 773 402 758 413 748 C421 740 433 733 452 733 C471 733 488 740 501 752 C513 763 522 780 522 801 C522 819 515 833 506 842 C495 854 481 857 468 857 C446 857 429 848 418 837 C406 825 397 807 397 788 L397 788 Z M202 788 C202 773 207 758 218 748 C226 740 238 733 257 733 C276 733 293 740 306 752 C318 763 327 780 327 801 C327 819 320 833 311 842 C300 854 286 857 273 857 C251 857 234 848 223 837 C211 825 202 807 202 788 L202 788 Z " />
<glyph glyph-name="afii10051" unicode="&#x402;" horiz-adv-x="651" d="M556 571 L568 667 L92 667 L80 571 L234 571 L164 0 L266 0 L302 291 C346 307 390 314 434 314 C463 314 498 310 523 284 C547 259 549 228 549 203 C549 177 544 139 517 114 C490 89 451 87 429 87 C406 87 378 90 355 94 L344 1 C376 -4 409 -7 439 -7 C489 -7 546 1 590 43 C629 81 651 143 651 206 C651 280 625 331 596 359 C552 401 491 408 447 408 C396 408 353 399 313 385 L336 571 L556 571 Z " />
<glyph glyph-name="afii10052" unicode="&#x403;" horiz-adv-x="428" d="M80 0 L182 0 L252 571 L484 571 L496 667 L162 667 L80 0 Z M323 727 L514 846 L435 906 L280 767 L323 727 Z " />
<glyph glyph-name="afii10053" unicode="&#x404;" horiz-adv-x="622" d="M653 631 C582 666 524 679 463 679 C361 679 272 648 199 577 C135 514 89 424 89 301 C89 202 120 128 178 70 C244 4 317 -13 397 -13 C444 -13 500 -7 581 37 L595 158 C520 92 447 81 406 81 C352 81 293 92 247 143 C216 177 191 231 191 294 L520 294 L532 390 L202 390 C215 449 245 490 273 517 C322 564 382 585 455 585 C553 585 610 540 639 511 L653 631 Z " />
<glyph glyph-name="afii10054" unicode="&#x405;" horiz-adv-x="516" d="M520 567 C511 593 493 624 457 648 C418 674 375 679 342 679 C271 679 219 653 183 615 C130 559 130 495 130 486 C130 446 146 412 167 388 C190 363 222 346 246 335 L297 312 C319 302 346 290 365 270 C381 253 391 234 391 207 C391 173 379 132 353 109 C335 93 310 81 274 81 C231 81 205 95 189 116 C171 140 166 180 166 206 L63 184 C65 120 92 66 125 34 C162 -2 207 -13 259 -13 C311 -13 379 -2 433 54 C467 90 494 142 494 219 C494 260 486 295 459 328 C444 347 418 370 375 389 L321 413 C296 424 277 429 256 448 C242 461 232 476 232 499 C232 523 244 545 260 559 C273 571 297 585 336 585 C356 585 383 580 402 566 C416 555 427 538 432 519 L520 567 Z " />
<glyph glyph-name="afii10055" unicode="&#x406;" horiz-adv-x="262" d="M162 667 L80 0 L182 0 L264 667 L162 667 Z " />
<glyph glyph-name="afii10056" unicode="&#x407;" horiz-adv-x="262" d="M162 667 L80 0 L182 0 L264 667 L162 667 Z M245 789 C245 775 251 762 259 753 C267 745 278 739 290 739 C302 739 317 744 328 757 C339 769 346 786 346 803 C346 811 344 824 334 836 C325 847 313 851 302 851 C289 851 275 845 264 835 C252 823 245 805 245 789 L245 789 Z M112 788 C112 775 118 762 126 753 C134 745 145 739 157 739 C169 739 184 744 195 757 C206 769 213 786 213 803 C213 811 211 824 201 836 C193 845 182 851 169 851 C158 851 144 848 131 834 C119 822 112 804 112 788 L112 788 Z " />
<glyph glyph-name="afii10057" unicode="&#x408;" horiz-adv-x="359" d="M259 667 L206 235 C198 173 189 128 165 105 C151 92 129 83 106 83 C86 83 61 89 42 107 L-15 23 C26 -8 67 -13 106 -13 C143 -13 195 -10 238 32 C290 82 299 160 308 235 L361 667 L259 667 Z " />
<glyph glyph-name="afii10058" unicode="&#x409;" horiz-adv-x="898" d="M464 0 L563 0 L643 0 C709 0 784 4 841 60 C868 87 898 135 898 220 C898 268 887 310 846 347 C794 394 724 398 685 398 L615 398 L648 667 L222 667 L173 269 C164 193 156 144 127 114 C107 93 85 88 62 88 C49 88 38 89 26 95 L14 1 C31 -3 48 -6 68 -6 C116 -6 163 7 200 46 C250 99 264 184 273 257 L312 571 L535 572 L464 0 Z M603 302 L664 302 C696 302 735 300 763 280 C776 270 797 249 797 210 C797 182 787 148 768 129 C738 98 689 96 650 96 L578 96 L603 302 Z " />
<glyph glyph-name="afii10059" unicode="&#x40a;" horiz-adv-x="901" d="M468 0 L646 0 C712 0 787 4 844 60 C891 107 901 170 901 220 C901 263 895 311 849 352 C797 399 727 403 688 403 L619 403 L651 667 L550 667 L518 403 L232 403 L264 667 L162 667 L80 0 L182 0 L220 307 L506 307 L468 0 Z M606 307 L667 307 C699 307 738 305 766 285 C791 267 800 240 800 211 C800 182 790 149 771 129 C741 98 692 96 653 96 L581 96 L606 307 Z " />
<glyph glyph-name="afii10060" unicode="&#x40b;" horiz-adv-x="693" d="M556 571 L568 667 L92 667 L80 571 L234 571 L164 0 L266 0 L303 299 C349 305 387 306 405 306 C483 306 508 293 518 286 C562 257 554 202 549 166 L528 0 L630 0 L652 177 C659 230 668 302 610 353 C563 393 486 400 430 400 C410 400 367 399 314 393 L336 571 L556 571 Z " />
<glyph glyph-name="afii10061" unicode="&#x40c;" horiz-adv-x="586" d="M264 667 L162 667 L80 0 L182 0 L216 276 L238 296 L440 0 L574 0 L316 365 L656 667 L519 667 L231 409 L264 667 Z M366 727 L557 846 L478 906 L323 767 L366 727 Z " />
<glyph glyph-name="afii10062" unicode="&#x40e;" horiz-adv-x="559" d="M88 667 L268 203 L155 0 L261 0 L635 667 L529 667 L332 306 L197 667 L88 667 Z M203 832 C218 792 244 769 255 761 C289 735 328 730 362 730 C420 730 455 748 473 760 C493 773 517 795 533 832 L454 868 C448 852 436 837 422 827 C408 817 388 812 367 812 C342 812 321 819 308 830 C297 840 288 855 284 868 L203 832 Z " />
<glyph glyph-name="afii10145" unicode="&#x40f;" horiz-adv-x="640" d="M80 0 L272 0 L251 -166 L347 -166 L368 0 L560 0 L642 667 L540 667 L470 96 L194 96 L264 667 L162 667 L80 0 Z " />
<glyph glyph-name="afii10017" unicode="&#x410;" horiz-adv-x="656" d="M544 0 L652 0 L423 706 L4 0 L116 0 L209 161 L494 161 L544 0 Z M263 257 L393 483 L465 257 L263 257 Z " />
<glyph glyph-name="afii10018" unicode="&#x411;" horiz-adv-x="527" d="M80 0 L179 0 L255 0 C310 0 383 2 443 61 C463 81 503 130 503 220 C503 281 481 322 451 349 C420 377 369 398 297 398 L231 398 L252 571 L484 571 L496 667 L162 667 L80 0 Z M219 302 L274 302 C309 302 356 301 383 271 C401 252 403 229 403 210 C403 186 400 160 380 136 C351 99 309 96 256 96 L194 96 L219 302 Z " />
<glyph glyph-name="afii10019" unicode="&#x412;" horiz-adv-x="526" d="M162 667 L80 0 L179 0 L236 0 C300 0 390 4 450 67 C477 95 503 142 503 213 C503 244 497 275 474 305 C467 314 444 342 401 357 C433 374 451 398 460 415 C476 445 479 477 479 502 C479 544 469 582 437 615 C396 656 337 667 263 667 L162 667 Z M252 571 L280 571 C303 571 339 568 361 546 C372 535 383 516 383 488 C383 454 369 424 350 407 C335 394 308 380 260 380 L229 380 L252 571 Z M218 296 L282 296 C312 296 348 293 374 272 C389 260 404 240 404 207 C404 175 391 147 373 130 C341 100 294 96 256 96 L194 96 L218 296 Z " />
<glyph glyph-name="afii10020" unicode="&#x413;" horiz-adv-x="428" d="M80 0 L182 0 L252 571 L484 571 L496 667 L162 667 L80 0 Z " />
<glyph glyph-name="afii10021" unicode="&#x414;" horiz-adv-x="650" d="M226 667 L188 361 C182 311 175 269 163 233 C155 207 137 162 105 132 C76 105 47 98 26 96 L-4 -150 L92 -150 L110 0 L540 0 L522 -150 L618 -150 L648 96 L572 96 L642 667 L226 667 Z M316 571 L528 571 L470 96 L186 96 C207 114 229 138 247 175 C271 225 282 293 290 361 L316 571 Z " />
<glyph glyph-name="afii10022" unicode="&#x415;" horiz-adv-x="500" d="M530 667 L162 667 L80 0 L448 0 L460 96 L194 96 L220 306 L478 306 L490 402 L232 402 L252 571 L518 571 L530 667 Z " />
<glyph glyph-name="afii10024" unicode="&#x416;" horiz-adv-x="850" d="M454 667 L421 398 L216 667 L96 668 L333 362 L4 0 L132 0 L394 294 L406 276 L372 0 L474 0 L508 276 L526 294 L716 0 L836 0 L603 357 L922 667 L794 667 L523 398 L556 667 L454 667 Z " />
<glyph glyph-name="afii10025" unicode="&#x417;" horiz-adv-x="565" d="M188 516 C203 534 224 552 245 564 C269 578 295 584 327 584 C355 584 386 579 407 564 C432 546 437 521 437 501 C437 467 424 446 410 433 C389 413 351 400 300 400 L244 400 L232 304 L292 304 C359 304 387 290 400 281 C419 268 439 245 439 202 C439 168 425 135 402 115 C374 91 326 82 287 82 C239 82 202 97 178 118 C159 135 141 163 133 194 L44 148 C65 91 100 53 132 30 C183 -6 232 -12 291 -12 C343 -12 420 -8 482 56 C519 94 541 144 541 209 C541 251 531 292 497 324 C481 339 459 351 436 359 C465 371 494 393 512 420 C533 452 538 485 538 513 C538 553 529 590 498 622 C448 674 374 678 339 678 C295 678 251 672 209 649 C183 635 150 608 125 581 L188 516 Z " />
<glyph glyph-name="afii10026" unicode="&#x418;" horiz-adv-x="712" d="M530 0 L632 0 L717 695 L209 216 L264 667 L162 667 L76 -30 L585 449 L530 0 Z " />
<glyph glyph-name="afii10027" unicode="&#x419;" horiz-adv-x="712" d="M530 0 L632 0 L717 695 L209 216 L264 667 L162 667 L76 -30 L585 449 L530 0 Z M297 832 C312 792 338 769 349 761 C383 735 422 730 456 730 C514 730 549 748 567 760 C587 773 611 795 627 832 L548 868 C542 852 530 837 516 827 C502 817 482 812 461 812 C436 812 415 819 402 830 C391 840 382 855 378 868 L297 832 Z " />
<glyph glyph-name="afii10028" unicode="&#x41a;" horiz-adv-x="586" d="M264 667 L162 667 L80 0 L182 0 L216 276 L238 296 L440 0 L574 0 L316 365 L656 667 L519 667 L231 409 L264 667 Z " />
<glyph glyph-name="afii10029" unicode="&#x41b;" horiz-adv-x="646" d="M222 667 L173 269 C164 193 156 144 127 114 C107 93 85 88 62 88 C49 88 38 89 26 95 L14 1 C31 -3 48 -6 68 -6 C116 -6 163 7 200 46 C250 99 264 184 273 257 L312 571 L534 571 L464 0 L566 0 L648 667 L222 667 Z " />
<glyph glyph-name="afii10030" unicode="&#x41c;" horiz-adv-x="852" d="M166 0 L285 403 L424 -31 L671 402 L690 0 L792 0 L754 717 L456 199 L288 717 L60 0 L166 0 Z " />
<glyph glyph-name="afii10031" unicode="&#x41d;" horiz-adv-x="650" d="M264 667 L162 667 L80 0 L182 0 L220 307 L506 307 L468 0 L570 0 L652 667 L550 667 L518 403 L232 403 L264 667 Z " />
<glyph glyph-name="afii10032" unicode="&#x41e;" horiz-adv-x="796" d="M478 679 C364 679 264 640 198 574 C131 508 89 406 89 300 C89 207 125 127 178 73 C242 7 318 -13 409 -13 C493 -13 596 1 684 90 C734 141 789 229 789 366 C789 423 779 517 703 592 C664 631 594 679 478 679 L478 679 Z M410 81 C354 81 299 95 252 145 C226 172 190 224 190 307 C190 397 227 466 273 511 C329 566 394 585 458 585 C532 585 590 555 627 517 C655 488 687 438 687 360 C687 282 657 203 606 153 C562 109 498 81 410 81 L410 81 Z " />
<glyph glyph-name="afii10033" unicode="&#x41f;" horiz-adv-x="650" d="M162 667 L80 0 L182 0 L252 571 L538 571 L468 0 L570 0 L652 667 L162 667 Z " />
<glyph glyph-name="afii10034" unicode="&#x420;" horiz-adv-x="481" d="M162 667 L80 0 L182 0 L215 271 L249 271 C336 271 408 285 458 335 C486 363 515 410 515 485 C515 551 490 592 466 615 C414 665 334 667 305 667 L162 667 Z M252 573 L295 573 C316 573 359 572 386 550 C403 536 417 513 417 479 C417 443 403 413 383 396 C356 372 313 365 265 365 L227 365 L252 573 Z " />
<glyph glyph-name="afii10035" unicode="&#x421;" horiz-adv-x="622" d="M653 631 C582 666 524 679 463 679 C361 679 272 648 199 577 C135 514 89 424 89 301 C89 202 120 128 178 70 C244 4 317 -13 397 -13 C444 -13 500 -7 581 37 L595 158 C560 128 495 81 406 81 C338 81 287 103 249 144 C217 178 191 229 191 301 C191 391 226 470 275 517 C322 562 386 585 456 585 C500 585 576 574 639 511 L653 631 Z " />
<glyph glyph-name="afii10036" unicode="&#x422;" horiz-adv-x="428" d="M488 571 L500 667 L92 667 L80 571 L233 571 L163 0 L265 0 L335 571 L488 571 Z " />
<glyph glyph-name="afii10037" unicode="&#x423;" horiz-adv-x="559" d="M88 667 L268 203 L155 0 L261 0 L635 667 L529 667 L332 306 L197 667 L88 667 Z " />
<glyph glyph-name="afii10038" unicode="&#x424;" horiz-adv-x="831" d="M364 0 L466 0 L478 94 L489 94 C624 94 704 131 747 172 C799 221 826 300 826 379 C826 423 818 489 762 543 C698 605 597 614 548 614 L541 614 L551 694 L449 694 L439 614 L421 614 C307 614 227 587 169 527 C131 488 91 422 91 318 C91 263 103 209 149 165 C210 107 310 94 369 94 L376 94 L364 0 Z M387 188 L377 188 C307 188 257 208 228 238 C214 253 193 283 193 334 C193 377 207 425 239 460 C279 504 337 520 408 520 L428 520 L387 188 Z M530 520 L542 520 C573 520 648 514 688 473 C709 451 723 417 723 374 C723 327 704 272 668 238 C617 191 545 188 501 188 L489 188 L530 520 Z " />
<glyph glyph-name="afii10039" unicode="&#x425;" horiz-adv-x="540" d="M10 0 L124 0 L307 255 L422 0 L530 0 L372 348 L603 667 L489 667 L328 441 L226 667 L118 667 L263 348 L10 0 Z " />
<glyph glyph-name="afii10040" unicode="&#x426;" horiz-adv-x="660" d="M80 0 L550 0 L532 -150 L628 -150 L658 96 L572 96 L642 667 L540 667 L470 96 L194 96 L264 667 L162 667 L80 0 Z " />
<glyph glyph-name="afii10041" unicode="&#x427;" horiz-adv-x="608" d="M426 0 L528 0 L610 667 L508 667 L472 372 C421 362 387 361 352 361 C321 361 277 362 249 384 C225 403 221 428 221 448 C221 463 223 481 227 516 L246 667 L144 667 L125 511 C120 470 118 449 118 431 C118 390 127 344 170 311 C177 306 226 267 339 267 C376 267 422 270 460 278 L426 0 Z " />
<glyph glyph-name="afii10042" unicode="&#x428;" horiz-adv-x="938" d="M80 0 L858 0 L940 667 L838 667 L768 96 L532 96 L602 667 L500 667 L430 96 L194 96 L264 667 L162 667 L80 0 Z " />
<glyph glyph-name="afii10043" unicode="&#x429;" horiz-adv-x="958" d="M80 0 L848 0 L830 -150 L926 -150 L956 96 L870 96 L940 667 L838 667 L768 96 L532 96 L602 667 L500 667 L430 96 L194 96 L264 667 L162 667 L80 0 Z " />
<glyph glyph-name="afii10044" unicode="&#x42a;" horiz-adv-x="594" d="M160 0 L262 0 L339 0 C405 0 480 4 537 60 C564 87 594 135 594 220 C594 268 583 310 542 347 C490 394 420 398 381 398 L311 398 L344 667 L92 667 L80 571 L230 571 L160 0 Z M299 302 L360 302 C392 302 431 300 459 280 C472 270 493 249 493 210 C493 182 483 148 464 129 C434 98 385 96 346 96 L274 96 L299 302 Z " />
<glyph glyph-name="afii10045" unicode="&#x42b;" horiz-adv-x="740" d="M640 667 L558 0 L660 0 L742 667 L640 667 Z M80 0 L181 0 L259 0 C325 0 400 4 457 60 C484 87 514 135 514 220 C514 268 503 310 462 347 C410 394 340 398 301 398 L231 398 L264 667 L163 667 L80 0 Z M219 302 L280 302 C312 302 351 300 379 280 C392 270 413 249 413 210 C413 182 403 148 384 129 C354 98 305 96 266 96 L194 96 L219 302 Z " />
<glyph glyph-name="afii10046" unicode="&#x42c;" horiz-adv-x="514" d="M80 0 L181 0 L259 0 C325 0 400 4 457 60 C484 87 514 135 514 220 C514 268 503 310 462 347 C410 394 340 398 301 398 L231 398 L264 667 L163 667 L80 0 Z M219 302 L280 302 C312 302 351 300 379 280 C392 270 413 249 413 210 C413 182 403 148 384 129 C354 98 305 96 266 96 L194 96 L219 302 Z " />
<glyph glyph-name="afii10047" unicode="&#x42d;" horiz-adv-x="621" d="M107 511 C165 566 236 585 301 585 C374 585 419 560 446 535 C477 506 508 454 510 386 L182 386 L170 290 L500 290 C488 231 458 175 422 141 C367 89 299 81 253 81 C195 81 124 95 67 158 L53 39 C131 -6 193 -13 247 -13 C342 -13 430 5 503 79 C593 170 614 297 614 377 C614 493 570 563 534 599 C489 644 415 679 311 679 C209 679 145 645 121 631 L107 511 Z " />
<glyph glyph-name="afii10048" unicode="&#x42e;" horiz-adv-x="1007" d="M231 402 L264 667 L162 667 L80 0 L182 0 L220 306 L320 306 C320 242 334 148 409 73 C474 8 549 -13 635 -13 C707 -13 808 1 895 89 C982 177 1000 286 1000 367 C1000 454 980 528 914 594 C856 652 785 679 692 679 C572 679 489 635 430 576 C396 543 353 486 333 402 L231 402 Z M644 81 C571 81 516 108 481 145 C443 185 421 247 421 310 C421 396 455 465 501 511 C552 562 617 585 679 585 C736 585 795 563 838 518 C866 488 898 439 898 362 C898 280 868 204 817 153 C770 105 711 81 644 81 L644 81 Z " />
<glyph glyph-name="afii10049" unicode="&#x42f;" horiz-adv-x="534" d="M20 0 L146 0 L361 267 L385 267 L352 0 L454 0 L536 667 L372 667 C310 667 220 661 162 595 C139 569 113 521 113 447 C113 403 124 364 155 331 C179 305 216 286 252 278 L20 0 Z M422 573 L396 361 L353 361 C330 361 266 364 235 395 C215 415 212 439 212 458 C212 478 214 511 240 537 C265 562 309 573 370 573 L422 573 Z " />
<glyph glyph-name="afii10065" unicode="&#x430;" horiz-adv-x="532" d="M418 372 C404 391 387 405 370 414 C346 427 321 432 293 432 C234 432 182 416 139 373 C88 322 66 249 66 185 C66 121 91 65 124 33 C145 13 182 -13 244 -13 C271 -13 300 -7 321 2 C342 11 363 29 377 44 L372 0 L470 0 L522 421 L424 421 L418 372 Z M298 344 C334 344 358 331 373 316 C394 295 406 262 406 227 C406 186 391 141 363 112 C345 94 315 75 271 75 C241 75 218 86 200 105 C181 125 167 156 167 193 C167 240 187 285 214 311 C231 327 258 344 298 344 L298 344 Z " />
<glyph glyph-name="afii10066" unicode="&#x431;" horiz-adv-x="530" d="M467 710 C450 670 411 662 383 655 L311 638 C262 626 225 601 200 578 C145 526 122 461 105 400 C75 294 71 235 71 202 C71 117 105 69 130 43 C173 -1 226 -13 276 -13 C363 -13 419 19 453 53 C496 95 523 161 523 235 C523 308 495 353 468 379 C433 412 380 432 325 432 C289 432 234 423 190 373 L189 373 C196 419 217 467 245 497 C279 534 315 542 353 552 L415 568 C454 578 541 611 567 710 L467 710 Z M279 75 C244 75 216 90 198 111 C186 125 170 150 170 192 C170 234 186 276 211 303 C232 326 264 344 309 344 C337 344 369 335 389 316 C408 299 422 268 422 230 C422 191 405 144 379 117 C356 93 318 75 279 75 L279 75 Z " />
<glyph glyph-name="afii10067" unicode="&#x432;" horiz-adv-x="443" d="M114 421 L62 0 L158 0 L262 0 C286 0 342 2 381 40 C402 60 418 91 418 132 C418 153 413 179 392 201 C378 215 359 225 341 230 C357 236 373 248 384 263 C395 279 402 301 402 322 C402 366 379 389 359 401 C340 412 311 421 262 421 L114 421 Z M192 257 L202 341 L245 341 C256 341 276 339 286 334 C294 330 305 320 305 304 C305 288 297 274 286 267 C276 260 255 257 242 257 L192 257 Z M170 80 L182 177 L258 177 C270 177 290 176 303 167 C311 162 321 151 321 130 C321 108 307 96 298 91 C287 84 267 80 250 80 L170 80 Z " />
<glyph glyph-name="afii10068" unicode="&#x433;" horiz-adv-x="328" d="M62 0 L160 0 L201 331 L361 331 L372 421 L114 421 L62 0 Z " />
<glyph glyph-name="afii10069" unicode="&#x434;" horiz-adv-x="486" d="M150 421 L129 256 C120 186 105 145 80 120 C68 108 46 93 15 90 L-11 -120 L79 -120 L94 0 L388 0 L373 -120 L463 -120 L489 90 L425 90 L466 421 L150 421 Z M327 90 L154 90 C168 101 184 116 197 140 C211 166 216 193 219 219 L233 331 L357 331 L327 90 Z " />
<glyph glyph-name="afii10070" unicode="&#x435;" horiz-adv-x="489" d="M377 142 C367 124 350 105 333 94 C314 82 289 75 266 75 C233 75 210 88 197 102 C177 123 166 157 166 187 L467 187 C471 206 472 223 472 236 C472 297 452 350 420 383 C381 424 332 432 293 432 C230 432 180 410 139 370 C93 325 66 262 66 190 C66 124 90 73 123 40 C161 1 206 -13 258 -13 C314 -13 352 3 376 17 C404 34 433 61 454 96 L377 142 Z M181 267 C189 287 203 309 220 323 C241 340 266 348 291 348 C315 348 338 340 352 325 C364 312 374 288 377 267 L181 267 Z " />
<glyph glyph-name="afii10072" unicode="&#x436;" horiz-adv-x="622" d="M315 421 L296 265 L188 421 L72 421 L211 229 L2 0 L126 0 L274 169 L282 155 L263 0 L361 0 L380 155 L394 169 L500 0 L620 0 L469 227 L656 421 L540 421 L394 265 L413 421 L315 421 Z " />
<glyph glyph-name="afii10073" unicode="&#x437;" horiz-adv-x="431" d="M149 309 C158 319 174 333 187 340 C202 348 221 352 239 352 C268 352 283 343 287 340 C298 332 305 321 305 306 C305 291 300 280 292 273 C276 258 244 257 232 257 L196 257 L186 177 L236 177 C261 177 276 173 285 167 C295 161 307 148 307 127 C307 111 299 94 283 82 C272 74 255 67 226 67 C203 67 181 72 163 85 C148 96 137 112 130 127 L51 87 C66 56 89 30 115 14 C151 -9 193 -13 228 -13 C280 -13 331 -3 368 34 C388 54 407 85 407 131 C407 157 401 177 382 197 C372 207 356 220 332 227 C350 231 370 242 382 257 C392 269 401 288 401 316 C401 361 379 387 357 403 C321 429 275 432 247 432 C214 432 185 428 153 412 C135 403 112 389 91 367 L149 309 Z " />
<glyph glyph-name="afii10074" unicode="&#x438;" horiz-adv-x="510" d="M114 421 L58 -32 L380 245 L350 0 L448 0 L504 459 L182 182 L212 421 L114 421 Z " />
<glyph glyph-name="afii10075" unicode="&#x439;" horiz-adv-x="510" d="M114 421 L58 -32 L380 245 L350 0 L448 0 L504 459 L182 182 L212 421 L114 421 Z M168 603 C177 569 197 537 222 517 C253 492 289 485 322 485 C366 485 402 497 429 515 C452 531 479 559 492 603 L415 626 C411 609 400 589 384 577 C369 566 348 561 327 561 C310 561 291 564 274 580 C262 592 254 609 251 626 L168 603 Z " />
<glyph glyph-name="afii10076" unicode="&#x43a;" horiz-adv-x="442" d="M114 421 L62 0 L160 0 L179 157 L197 173 L316 0 L438 0 L273 237 L482 421 L350 421 L194 277 L212 421 L114 421 Z " />
<glyph glyph-name="afii10077" unicode="&#x43b;" horiz-adv-x="470" d="M460 421 L144 421 L114 176 C111 154 106 124 89 107 C74 92 47 84 19 90 L8 0 C50 -6 111 -1 155 42 C197 83 202 136 208 180 L227 331 L351 331 L310 0 L408 0 L460 421 Z " />
<glyph glyph-name="afii10078" unicode="&#x43c;" horiz-adv-x="580" d="M14 0 L116 0 L184 211 L288 -32 L452 211 L468 0 L566 0 L520 459 L307 138 L172 459 L14 0 Z " />
<glyph glyph-name="afii10079" unicode="&#x43d;" horiz-adv-x="494" d="M62 0 L160 0 L181 175 L355 175 L334 0 L432 0 L484 421 L386 421 L367 265 L193 265 L212 421 L114 421 L62 0 Z " />
<glyph glyph-name="afii10080" unicode="&#x43e;" horiz-adv-x="534" d="M313 432 C241 432 185 411 139 367 C95 325 66 264 66 191 C66 123 93 76 124 44 C170 -3 220 -13 274 -13 C342 -13 396 3 447 52 C509 112 520 182 520 230 C520 300 490 348 463 376 C415 424 357 432 313 432 L313 432 Z M287 75 C235 75 207 101 197 112 C177 135 166 167 166 199 C166 242 183 282 212 309 C231 327 262 344 307 344 C339 344 366 334 387 312 C415 283 420 247 420 224 C420 179 404 141 380 115 C353 86 321 75 287 75 L287 75 Z " />
<glyph glyph-name="afii10081" unicode="&#x43f;" horiz-adv-x="490" d="M114 421 L62 0 L160 0 L201 331 L371 331 L330 0 L428 0 L480 421 L114 421 Z " />
<glyph glyph-name="afii10082" unicode="&#x440;" horiz-adv-x="532" d="M166 49 C178 35 194 20 212 9 C239 -7 272 -14 307 -14 C366 -14 411 9 447 47 C488 91 518 162 518 235 C518 296 496 346 465 378 C434 410 384 432 331 432 C305 432 281 427 256 415 C236 406 220 394 206 375 L212 421 L114 421 L34 -229 L132 -229 L166 49 Z M308 344 C340 344 366 335 387 312 C405 292 417 262 417 227 C417 181 396 136 369 109 C347 87 321 75 286 75 C252 75 224 89 206 108 C182 133 178 167 178 191 C178 238 195 285 224 313 C250 338 277 344 308 344 L308 344 Z " />
<glyph glyph-name="afii10083" unicode="&#x441;" horiz-adv-x="422" d="M439 396 C408 416 368 432 308 432 C245 432 186 416 136 367 C104 335 66 279 66 194 C66 115 98 67 125 41 C165 1 213 -13 268 -13 C333 -13 367 -1 393 16 L406 126 C386 104 365 94 358 90 C328 76 300 75 290 75 C257 75 224 86 203 106 C183 125 167 158 167 198 C167 238 181 275 207 302 C230 326 267 344 314 344 C337 344 355 339 376 328 C399 316 415 301 426 290 L439 396 Z " />
<glyph glyph-name="afii10084" unicode="&#x442;" horiz-adv-x="360" d="M393 331 L404 421 L60 421 L49 331 L172 331 L131 0 L229 0 L270 331 L393 331 Z " />
<glyph glyph-name="afii10085" unicode="&#x443;" horiz-adv-x="482" d="M3 -229 L113 -229 L528 421 L416 421 L269 184 L174 421 L58 421 L203 78 L3 -229 Z " />
<glyph glyph-name="afii10086" unicode="&#x444;" horiz-adv-x="674" d="M260 -229 L358 -229 L385 -7 C494 -7 554 26 589 59 C627 95 658 149 658 226 C658 268 649 318 606 361 C561 405 492 424 439 428 L468 667 L370 667 L341 428 C278 427 192 408 135 353 C91 311 68 250 68 188 C68 139 83 96 118 60 C165 11 237 -4 287 -7 L260 -229 Z M298 81 C267 83 233 94 209 114 C183 136 169 164 169 202 C169 241 185 275 208 298 C236 325 280 343 330 340 L298 81 Z M428 340 C453 340 488 332 512 316 C535 300 558 272 558 224 C558 179 540 136 507 111 C478 89 431 80 396 81 L428 340 Z " />
<glyph glyph-name="afii10087" unicode="&#x445;" horiz-adv-x="496" d="M6 0 L128 0 L272 157 L374 0 L490 0 L338 228 L517 421 L395 421 L286 298 L208 421 L94 421 L220 228 L6 0 Z " />
<glyph glyph-name="afii10088" unicode="&#x446;" horiz-adv-x="502" d="M62 0 L404 0 L389 -120 L479 -120 L505 90 L435 90 L476 421 L378 421 L337 90 L171 90 L212 421 L114 421 L62 0 Z " />
<glyph glyph-name="afii10089" unicode="&#x447;" horiz-adv-x="449" d="M289 0 L387 0 L439 421 L341 421 L320 249 C305 243 286 238 263 238 C261 238 224 238 206 250 C198 255 186 268 186 290 C186 295 188 316 189 324 L201 421 L103 421 L90 317 C89 310 85 276 85 263 C85 229 97 204 123 184 C147 166 182 154 229 154 C258 154 282 157 309 166 L289 0 Z " />
<glyph glyph-name="afii10090" unicode="&#x448;" horiz-adv-x="698" d="M62 0 L636 0 L688 421 L590 421 L549 90 L409 90 L450 421 L352 421 L311 90 L171 90 L212 421 L114 421 L62 0 Z " />
<glyph glyph-name="afii10091" unicode="&#x449;" horiz-adv-x="714" d="M62 0 L616 0 L601 -120 L691 -120 L717 90 L647 90 L688 421 L590 421 L549 90 L409 90 L450 421 L352 421 L311 90 L171 90 L212 421 L114 421 L62 0 Z " />
<glyph glyph-name="afii10092" unicode="&#x44a;" horiz-adv-x="438" d="M98 0 L196 0 L251 0 C294 0 348 4 389 43 C415 68 431 107 431 152 C431 181 423 210 397 235 C361 269 319 272 282 272 L229 272 L248 421 L60 421 L49 331 L139 331 L98 0 Z M206 84 L219 188 L263 188 C271 188 296 188 311 179 C323 172 332 160 332 141 C332 121 323 107 313 99 C296 86 269 84 252 84 L206 84 Z " />
<glyph glyph-name="afii10093" unicode="&#x44b;" horiz-adv-x="581" d="M421 0 L519 0 L571 421 L473 421 L421 0 Z M62 0 L158 0 L215 0 C258 0 312 4 353 43 C380 69 395 107 395 149 C395 182 386 210 361 235 C325 269 283 272 246 272 L193 272 L212 421 L113 421 L62 0 Z M170 84 L183 188 L227 188 C235 188 260 188 275 179 C287 172 296 160 296 141 C296 121 287 107 277 99 C260 86 233 84 216 84 L170 84 Z " />
<glyph glyph-name="afii10094" unicode="&#x44c;" horiz-adv-x="402" d="M62 0 L158 0 L215 0 C258 0 312 4 353 43 C379 68 395 107 395 152 C395 181 387 210 361 235 C325 269 283 272 246 272 L193 272 L212 421 L113 421 L62 0 Z M170 84 L183 188 L227 188 C235 188 260 188 275 179 C287 172 296 160 296 141 C296 121 287 107 277 99 C260 86 233 84 216 84 L170 84 Z " />
<glyph glyph-name="afii10095" unicode="&#x44d;" horiz-adv-x="429" d="M76 314 C115 335 157 344 190 344 C217 344 246 337 266 324 C283 313 302 291 308 256 L116 256 L105 174 L300 174 C294 139 275 114 257 100 C228 78 187 75 167 75 C136 75 97 80 53 106 L41 13 C76 -3 116 -13 170 -13 C222 -13 289 -6 344 48 C385 88 415 152 415 231 C415 272 407 329 363 374 C334 404 284 432 206 432 C151 432 111 418 87 407 L76 314 Z " />
<glyph glyph-name="afii10096" unicode="&#x44e;" horiz-adv-x="702" d="M193 265 L212 421 L114 421 L62 0 L160 0 L181 175 L246 175 C246 124 264 82 286 54 C333 -5 400 -13 447 -13 C511 -13 566 0 618 52 C668 102 688 163 688 233 C688 279 677 335 629 380 C583 423 530 432 487 432 C430 432 379 419 332 380 C288 344 269 303 260 265 L193 265 Z M480 344 C519 344 544 329 557 316 C576 298 588 271 588 234 C588 190 573 143 544 112 C521 87 491 75 452 75 C416 75 387 88 371 106 C352 127 343 163 343 189 C343 229 359 280 388 309 C405 325 434 344 480 344 L480 344 Z " />
<glyph glyph-name="afii10097" unicode="&#x44f;" horiz-adv-x="411" d="M8 0 L127 0 L254 155 L270 155 L251 0 L349 0 L401 421 L246 421 C204 421 143 420 101 377 C69 344 65 302 65 275 C65 250 68 221 93 197 C108 182 130 171 154 167 L8 0 Z M280 235 L222 235 C205 235 186 235 172 244 C162 250 153 261 153 280 C153 303 164 319 178 327 C183 330 198 337 235 337 L292 337 L280 235 Z " />
<glyph glyph-name="afii10071" unicode="&#x451;" horiz-adv-x="489" d="M377 142 C367 124 350 105 333 94 C314 82 289 75 266 75 C233 75 210 88 197 102 C177 123 166 157 166 187 L467 187 C471 206 472 223 472 236 C472 297 452 350 420 383 C381 424 332 432 293 432 C230 432 180 410 139 370 C93 325 66 262 66 190 C66 124 90 73 123 40 C161 1 206 -13 258 -13 C314 -13 352 3 376 17 C404 34 433 61 454 96 L377 142 Z M181 267 C189 287 203 309 220 323 C241 340 266 348 291 348 C315 348 338 340 352 325 C364 312 374 288 377 267 L181 267 Z M175 569 C170 535 195 507 229 507 C263 507 294 535 299 569 C303 603 278 631 244 631 C210 631 179 603 175 569 L175 569 Z M355 569 C350 535 375 507 409 507 C443 507 474 535 479 569 C483 603 458 631 424 631 C390 631 359 603 355 569 L355 569 Z " />
<glyph glyph-name="afii10099" unicode="&#x452;" horiz-adv-x="486" d="M62 0 L160 0 L180 163 C186 215 195 255 222 281 C240 299 261 304 284 304 C302 304 321 299 334 287 C350 272 353 250 353 233 C353 218 350 191 348 177 L317 -69 C315 -85 311 -111 297 -126 C283 -140 265 -142 253 -142 C236 -142 221 -139 207 -133 L196 -221 C219 -228 240 -230 263 -230 C293 -230 331 -226 361 -203 C400 -174 407 -132 413 -86 L445 167 C447 182 453 235 453 254 C453 306 434 338 416 356 C398 374 367 392 316 392 C292 392 268 388 244 376 C224 366 210 354 202 345 L223 512 L423 512 L432 588 L232 588 L250 729 L152 729 L134 588 L38 588 L29 512 L125 512 L62 0 Z " />
<glyph glyph-name="afii10100" unicode="&#x453;" horiz-adv-x="328" d="M62 0 L160 0 L201 331 L361 331 L372 421 L114 421 L62 0 Z M348 675 L209 519 L259 485 L432 629 L348 675 Z " />
<glyph glyph-name="afii10101" unicode="&#x454;" horiz-adv-x="429" d="M439 402 C415 414 370 432 306 432 C257 432 190 421 136 367 C96 327 66 263 66 188 C66 118 92 72 120 43 C156 6 204 -13 265 -13 C328 -13 370 6 392 18 L404 121 C371 90 330 75 287 75 C246 75 217 88 200 104 C181 123 171 153 170 177 L365 177 L375 257 L180 257 C185 276 196 300 224 320 C250 338 280 344 310 344 C342 344 387 337 427 301 L439 402 Z " />
<glyph glyph-name="afii10102" unicode="&#x455;" horiz-adv-x="364" d="M354 358 C343 378 326 399 306 412 C283 427 260 432 233 432 C198 432 160 425 129 394 C107 372 91 340 91 301 C91 269 102 245 120 228 C133 215 155 203 168 196 L195 182 C209 175 224 169 235 158 C245 148 249 136 249 123 C249 107 244 95 233 86 C224 78 211 73 194 73 C177 73 163 79 153 88 C143 97 134 113 130 129 L45 91 C60 42 93 17 97 14 C128 -9 166 -13 191 -13 C244 -13 282 2 309 27 C330 47 351 79 351 129 C351 175 332 202 319 216 C315 220 300 235 266 252 L238 266 C212 279 204 282 197 288 C189 294 185 302 185 312 C185 322 190 330 194 334 C204 344 218 346 228 346 C239 346 248 344 258 336 C266 330 273 322 278 310 L354 358 Z " />
<glyph glyph-name="afii10103" unicode="&#x456;" horiz-adv-x="223" d="M114 421 L62 0 L160 0 L212 421 L114 421 Z M120 585 C120 569 127 555 136 547 C144 539 156 532 175 532 C196 532 216 541 228 554 C241 568 248 589 248 605 C248 621 241 634 232 643 C223 652 209 658 192 658 C171 658 153 649 141 637 C127 623 120 604 120 585 L120 585 Z " />
<glyph glyph-name="afii10104" unicode="&#x457;" horiz-adv-x="233" d="M119 421 L67 0 L165 0 L217 421 L119 421 Z M257 658 C246 658 232 652 222 643 C208 630 199 606 199 585 C199 569 204 555 212 547 C219 540 230 534 243 534 C261 534 274 543 284 558 C295 574 299 593 299 608 C299 620 296 632 289 641 C282 651 269 658 257 658 L257 658 Z M137 658 C126 658 112 652 102 643 C88 630 79 606 79 585 C79 569 84 555 92 547 C99 540 110 534 123 534 C135 534 151 538 164 558 C173 572 179 592 179 608 C179 619 176 632 169 641 C162 651 149 658 137 658 L137 658 Z " />
<glyph glyph-name="afii10105" unicode="&#x458;" horiz-adv-x="223" d="M114 421 L34 -229 L132 -229 L212 421 L114 421 Z M121 595 C116 560 141 532 176 532 C211 532 242 560 247 595 C251 630 226 658 191 658 C156 658 125 630 121 595 L121 595 Z " />
<glyph glyph-name="afii10106" unicode="&#x459;" horiz-adv-x="650" d="M310 0 L404 0 L463 0 C506 0 560 4 601 43 C627 68 643 107 643 152 C643 181 635 210 609 235 C573 269 531 272 494 272 L441 272 L460 421 L144 421 L114 176 C111 154 106 124 89 107 C74 92 47 84 19 90 L8 0 C50 -6 111 -1 155 42 C197 83 202 136 208 180 L227 331 L351 331 L310 0 Z M418 84 L431 188 L475 188 C483 188 508 188 523 179 C535 172 544 160 544 141 C544 121 535 107 525 99 C508 86 481 84 464 84 L418 84 Z " />
<glyph glyph-name="afii10107" unicode="&#x45a;" horiz-adv-x="674" d="M334 0 L433 0 L487 0 C530 0 584 4 625 43 C651 68 667 107 667 151 C667 184 656 216 628 240 C594 269 550 272 518 272 L465 272 L484 421 L385 421 L367 272 L193 272 L212 421 L114 421 L62 0 L160 0 L183 188 L357 188 L334 0 Z M442 84 L455 188 L499 188 C507 188 532 188 547 179 C559 172 568 160 568 141 C568 121 559 107 549 99 C532 86 505 84 488 84 L442 84 Z " />
<glyph glyph-name="afii10108" unicode="&#x45b;" horiz-adv-x="486" d="M62 0 L160 0 L180 163 C186 215 195 255 222 281 C240 299 261 304 284 304 C302 304 321 299 334 287 C350 272 353 250 353 233 C353 229 353 215 348 177 L326 0 L424 0 L445 167 C447 182 453 235 453 254 C453 306 434 338 416 356 C398 374 367 392 316 392 C292 392 268 388 244 376 C224 366 210 354 202 345 L223 512 L423 512 L432 588 L232 588 L250 729 L152 729 L134 588 L38 588 L29 512 L125 512 L62 0 Z " />
<glyph glyph-name="afii10109" unicode="&#x45c;" horiz-adv-x="442" d="M114 421 L62 0 L160 0 L179 157 L197 173 L316 0 L438 0 L273 237 L482 421 L350 421 L194 277 L212 421 L114 421 Z M379 675 L240 519 L290 485 L463 629 L379 675 Z " />
<glyph glyph-name="afii10110" unicode="&#x45e;" horiz-adv-x="482" d="M3 -229 L113 -229 L528 421 L416 421 L269 184 L174 421 L58 421 L203 78 L3 -229 Z M147 603 C156 569 176 537 201 517 C232 492 268 485 301 485 C345 485 381 497 408 515 C431 531 458 559 471 603 L394 626 C390 609 379 589 363 577 C348 566 327 561 306 561 C289 561 270 564 253 580 C241 592 233 609 230 626 L147 603 Z " />
<glyph glyph-name="afii10193" unicode="&#x45f;" horiz-adv-x="486" d="M62 0 L198 0 L182 -130 L272 -130 L288 0 L424 0 L476 421 L378 421 L337 90 L171 90 L212 421 L114 421 L62 0 Z " />
<glyph glyph-name="afii10146" unicode="&#x462;" horiz-adv-x="594" d="M160 0 L339 0 C405 0 480 4 537 60 C564 87 594 135 594 220 C594 268 583 310 542 347 C490 394 420 398 381 398 L311 398 L324 503 L504 503 L515 597 L335 597 L347 694 L245 694 L233 597 L83 597 L72 503 L222 503 L160 0 Z M299 302 L360 302 C392 302 431 300 459 280 C472 270 493 249 493 210 C493 182 483 148 464 129 C434 98 385 96 346 96 L274 96 L299 302 Z " />
<glyph glyph-name="afii10194" unicode="&#x463;" horiz-adv-x="438" d="M98 0 L193 0 L251 0 C294 0 348 4 389 43 C415 68 431 107 431 152 C431 181 423 210 397 235 C361 269 319 272 282 272 L229 272 L237 337 L357 337 L368 421 L247 421 L276 667 L180 667 L150 421 L60 421 L49 337 L139 337 L98 0 Z M206 84 L219 188 L263 188 C271 188 296 188 311 179 C323 172 332 160 332 141 C332 121 323 107 313 99 C296 86 269 84 252 84 L206 84 Z " />
<glyph glyph-name="afii10147" unicode="&#x472;" horiz-adv-x="796" d="M478 679 C363 679 265 640 198 574 C131 508 89 406 89 300 C89 207 125 127 178 73 C242 7 318 -13 409 -13 C493 -13 596 1 684 90 C734 141 789 229 789 366 C789 424 779 517 703 592 C654 641 581 679 478 679 L478 679 Z M678 287 C672 256 657 202 606 153 C552 101 485 81 410 81 C353 81 300 95 252 145 C218 181 194 227 191 287 L678 287 Z M199 383 C211 433 234 474 273 511 C322 558 381 585 458 585 C531 585 590 555 627 517 C658 485 681 437 686 383 L199 383 Z " />
<glyph glyph-name="afii10195" unicode="&#x473;" horiz-adv-x="534" d="M313 432 C241 432 185 411 139 367 C95 325 66 264 66 191 C66 123 93 76 124 44 C170 -3 220 -13 274 -13 C342 -13 396 3 447 52 C509 112 520 182 520 230 C520 300 490 348 463 376 C415 424 357 432 313 432 L313 432 Z M413 173 C406 142 389 118 370 102 C343 80 311 75 287 75 C258 75 228 81 204 103 C187 118 173 142 169 173 L413 173 Z M175 253 C184 281 200 302 216 315 C236 331 264 344 304 344 C343 344 367 331 381 319 C393 309 412 289 417 253 L175 253 Z " />
<glyph glyph-name="afii10148" unicode="&#x474;" horiz-adv-x="600" d="M86 667 L295 -43 L678 667 L566 667 L323 202 L194 667 L86 667 Z " />
<glyph glyph-name="afii10196" unicode="&#x475;" horiz-adv-x="448" d="M58 421 L220 -30 L494 421 L382 421 L244 181 L166 421 L58 421 Z " />
<glyph glyph-name="afii10050" unicode="&#x490;" horiz-adv-x="428" d="M80 0 L182 0 L252 571 L484 571 L514 817 L418 817 L400 667 L162 667 L80 0 Z " />
<glyph glyph-name="afii10098" unicode="&#x491;" horiz-adv-x="328" d="M62 0 L160 0 L201 331 L361 331 L386 541 L296 541 L282 421 L114 421 L62 0 Z " />
<glyph glyph-name="uni0492" unicode="&#x492;" horiz-adv-x="428" d="M80 0 L182 0 L222 322 L372 322 L382 408 L232 408 L252 571 L484 571 L496 667 L162 667 L130 408 L40 408 L30 322 L120 322 L80 0 Z " />
<glyph glyph-name="uni0493" unicode="&#x493;" horiz-adv-x="328" d="M62 0 L160 0 L181 168 L281 168 L290 248 L190 248 L201 331 L361 331 L372 421 L114 421 L92 248 L20 248 L11 168 L83 168 L62 0 Z " />
<glyph glyph-name="uni0494" unicode="&#x494;" horiz-adv-x="567" d="M472 571 L484 667 L162 667 L80 0 L182 0 L218 291 C262 307 306 314 350 314 C379 314 414 310 439 284 C463 259 465 228 465 203 C465 177 460 139 433 114 C406 89 367 87 345 87 C322 87 294 90 271 94 L260 1 C292 -4 325 -7 355 -7 C405 -7 462 1 506 43 C545 81 567 143 567 206 C567 280 541 331 512 359 C468 401 407 408 363 408 C312 408 269 399 229 385 L252 571 L472 571 Z " />
<glyph glyph-name="uni0495" unicode="&#x495;" horiz-adv-x="480" d="M102 0 L200 0 L218 148 L234 148 C255 148 292 146 315 126 C331 112 343 86 343 50 C343 -3 319 -53 284 -82 C264 -99 236 -113 202 -118 L191 -208 C262 -202 314 -174 348 -148 C424 -89 445 -12 445 53 C445 126 416 167 395 187 C371 210 325 236 246 236 L229 236 L241 331 L401 331 L412 421 L154 421 L102 0 Z " />
<glyph glyph-name="uni0496" unicode="&#x496;" horiz-adv-x="860" d="M454 667 L421 398 L216 667 L96 667 L333 362 L4 0 L132 0 L394 294 L406 276 L372 0 L474 0 L508 276 L526 294 L716 0 L740 0 L722 -150 L818 -150 L848 96 L773 96 L603 357 L922 667 L794 667 L523 398 L556 667 L454 667 Z " />
<glyph glyph-name="uni0497" unicode="&#x497;" horiz-adv-x="628" d="M315 421 L296 265 L188 421 L72 421 L211 229 L2 0 L126 0 L274 169 L282 155 L263 0 L361 0 L380 155 L394 169 L500 0 L530 0 L515 -120 L605 -120 L631 90 L561 90 L469 227 L656 421 L540 421 L394 265 L413 421 L315 421 Z " />
<glyph glyph-name="uni0498" unicode="&#x498;" horiz-adv-x="565" d="M188 516 C203 534 224 552 245 564 C269 578 295 584 327 584 C355 584 386 579 407 564 C432 546 437 521 437 501 C437 467 424 446 410 433 C389 413 351 400 300 400 L244 400 L232 304 L292 304 C359 304 387 290 400 281 C419 268 439 245 439 202 C439 168 425 135 402 115 C374 91 326 82 287 82 C239 82 202 97 178 118 C159 135 141 163 133 194 L44 148 C58 110 82 74 119 42 C156 11 194 -5 239 -10 L219 -166 L315 -166 L335 -10 C403 -6 453 25 483 56 C516 91 541 142 541 209 C541 251 531 292 497 324 C481 339 459 351 436 359 C465 371 494 393 512 420 C533 452 538 485 538 513 C538 553 529 590 498 622 C448 674 374 678 339 678 C295 678 251 672 209 649 C183 635 150 608 125 581 L188 516 Z " />
<glyph glyph-name="uni0499" unicode="&#x499;" horiz-adv-x="431" d="M149 309 C158 319 174 333 187 340 C202 348 221 352 239 352 C268 352 283 343 287 340 C298 332 305 321 305 306 C305 291 300 280 292 273 C276 258 244 257 232 257 L196 257 L186 177 L236 177 C261 177 276 173 285 167 C295 161 307 148 307 127 C307 111 299 94 283 82 C272 74 255 67 226 67 C203 67 181 72 163 85 C148 96 137 112 130 127 L51 87 C61 66 77 41 107 20 C126 7 152 -6 185 -11 L170 -130 L260 -130 L275 -8 C323 -6 354 16 369 32 C382 45 407 77 407 131 C407 157 401 177 382 197 C372 207 356 220 332 227 C350 231 370 242 382 257 C392 269 401 288 401 316 C401 361 379 387 357 403 C321 429 275 432 247 432 C214 432 185 428 153 412 C135 403 112 389 91 367 L149 309 Z " />
<glyph glyph-name="uni049A" unicode="&#x49a;" horiz-adv-x="582" d="M264 667 L162 667 L80 0 L182 0 L216 276 L238 296 L440 0 L472 0 L454 -150 L550 -150 L580 96 L500 96 L311 362 L648 667 L516 667 L231 403 L264 667 Z " />
<glyph glyph-name="uni049B" unicode="&#x49b;" horiz-adv-x="448" d="M114 421 L62 0 L160 0 L179 157 L197 173 L316 0 L348 0 L333 -120 L423 -120 L449 90 L376 90 L273 237 L482 421 L350 421 L194 277 L212 421 L114 421 Z " />
<glyph glyph-name="uni049C" unicode="&#x49c;" horiz-adv-x="680" d="M162 667 L80 0 L182 0 L220 313 L306 313 L288 163 L378 163 L396 313 L550 0 L668 0 L488 359 L752 667 L632 667 L407 403 L425 543 L335 543 L317 403 L231 403 L264 667 L162 667 Z " />
<glyph glyph-name="uni049D" unicode="&#x49d;" horiz-adv-x="530" d="M114 421 L62 0 L160 0 L183 189 L243 189 L230 79 L310 79 L324 195 L414 0 L524 0 L411 231 L580 421 L466 421 L332 263 L345 369 L265 369 L253 269 L193 269 L212 421 L114 421 Z " />
<glyph glyph-name="uni04A0" unicode="&#x4a0;" horiz-adv-x="692" d="M680 0 L425 362 L762 667 L630 667 L345 403 L378 667 L92 667 L80 571 L264 571 L194 0 L296 0 L330 276 L352 296 L554 0 L680 0 Z " />
<glyph glyph-name="uni04A1" unicode="&#x4a1;" horiz-adv-x="510" d="M228 0 L247 157 L265 173 L384 0 L506 0 L341 237 L550 421 L418 421 L262 277 L280 421 L60 421 L49 331 L171 331 L130 0 L228 0 Z " />
<glyph glyph-name="uni04A2" unicode="&#x4a2;" horiz-adv-x="670" d="M80 0 L182 0 L220 307 L505 307 L468 0 L560 0 L542 -150 L638 -150 L668 96 L582 96 L652 667 L550 667 L517 403 L232 403 L264 667 L162 667 L80 0 Z " />
<glyph glyph-name="uni04A3" unicode="&#x4a3;" horiz-adv-x="510" d="M62 0 L160 0 L181 175 L355 175 L334 0 L412 0 L397 -120 L487 -120 L513 90 L443 90 L484 421 L386 421 L367 265 L193 265 L212 421 L114 421 L62 0 Z " />
<glyph glyph-name="uni04A4" unicode="&#x4a4;" horiz-adv-x="816" d="M80 0 L182 0 L220 307 L506 307 L468 0 L570 0 L640 571 L872 571 L884 667 L550 667 L518 403 L232 403 L264 667 L162 667 L80 0 Z " />
<glyph glyph-name="uni04A5" unicode="&#x4a5;" horiz-adv-x="600" d="M62 0 L160 0 L181 175 L355 175 L334 0 L432 0 L473 331 L633 331 L644 421 L386 421 L367 265 L193 265 L212 421 L114 421 L62 0 Z " />
<glyph glyph-name="uni04AA" unicode="&#x4aa;" horiz-adv-x="622" d="M653 631 C582 666 524 679 463 679 C361 679 272 648 199 577 C134 514 89 424 89 302 C89 220 111 136 178 70 C217 32 274 -3 353 -10 L334 -166 L430 -166 L449 -10 C497 -3 541 13 581 37 L595 158 C561 128 494 81 406 81 C330 81 280 111 249 144 C225 170 191 219 191 301 C191 391 226 470 275 517 C322 562 386 585 456 585 C500 585 576 574 639 511 L653 631 Z " />
<glyph glyph-name="uni04AB" unicode="&#x4ab;" horiz-adv-x="422" d="M439 396 C408 416 368 432 308 432 C245 432 186 416 136 367 C104 335 66 279 66 194 C66 130 88 84 114 53 C157 2 207 -7 232 -10 L217 -130 L307 -130 L322 -9 C346 -6 370 1 393 16 L406 126 C386 104 365 94 358 90 C328 76 300 75 290 75 C257 75 224 86 203 106 C183 125 167 158 167 198 C167 238 181 275 207 302 C230 326 267 344 314 344 C337 344 355 339 376 328 C399 316 415 301 426 290 L439 396 Z " />
<glyph glyph-name="uni04AE" unicode="&#x4ae;" horiz-adv-x="540" d="M219 0 L321 0 L356 288 L622 667 L504 667 L317 400 L196 667 L82 667 L254 288 L219 0 Z " />
<glyph glyph-name="uni04AF" unicode="&#x4af;" horiz-adv-x="448" d="M58 421 L184 71 L147 -229 L245 -229 L282 71 L494 421 L382 421 L245 184 L166 421 L58 421 Z " />
<glyph glyph-name="uni04B0" unicode="&#x4b0;" horiz-adv-x="540" d="M219 0 L321 0 L346 202 L536 202 L546 288 L356 288 L622 667 L504 667 L317 400 L196 667 L82 667 L254 288 L64 288 L54 202 L244 202 L219 0 Z " />
<glyph glyph-name="uni04B1" unicode="&#x4b1;" horiz-adv-x="448" d="M58 421 L184 71 L177 20 L47 20 L37 -66 L167 -66 L147 -229 L245 -229 L265 -66 L395 -66 L405 20 L275 20 L282 71 L494 421 L382 421 L245 184 L166 421 L58 421 Z " />
<glyph glyph-name="uni04B2" unicode="&#x4b2;" horiz-adv-x="564" d="M10 0 L124 0 L307 255 L422 0 L457 0 L439 -150 L535 -150 L565 96 L489 96 L372 348 L603 667 L489 667 L328 441 L226 667 L118 667 L263 348 L10 0 Z " />
<glyph glyph-name="uni04B3" unicode="&#x4b3;" horiz-adv-x="498" d="M6 0 L128 0 L272 157 L374 0 L400 0 L385 -120 L475 -120 L501 90 L430 90 L338 228 L517 421 L395 421 L286 298 L208 421 L94 421 L220 228 L6 0 Z " />
<glyph glyph-name="uni04B6" unicode="&#x4b6;" horiz-adv-x="629" d="M519 0 L501 -150 L597 -150 L627 96 L541 96 L610 667 L508 667 L472 372 C421 362 387 361 352 361 C321 361 277 362 249 384 C225 403 221 428 221 448 C221 463 223 481 227 516 L246 667 L144 667 L125 511 C120 470 118 449 118 431 C118 390 127 344 170 311 C177 306 226 267 339 267 C376 267 422 270 460 278 L426 0 L519 0 Z " />
<glyph glyph-name="uni04B7" unicode="&#x4b7;" horiz-adv-x="464" d="M366 0 L351 -120 L441 -120 L467 90 L397 90 L439 421 L341 421 L320 249 C297 241 277 238 259 238 C242 238 220 241 206 250 C198 256 186 268 186 289 C186 295 188 316 189 324 L201 421 L103 421 L90 317 C86 287 85 276 85 266 C85 229 98 201 128 180 C159 159 201 154 232 154 C259 154 283 157 309 166 L289 0 L366 0 Z " />
<glyph glyph-name="uni04B8" unicode="&#x4b8;" horiz-adv-x="642" d="M460 0 L562 0 L644 667 L542 667 L505 368 C473 362 440 359 406 359 L425 510 L335 510 L316 362 C295 362 269 368 252 379 C226 397 221 422 221 444 C221 453 222 466 226 503 L246 667 L144 667 L126 516 C122 486 118 456 118 428 C118 384 128 335 181 301 C213 281 265 269 305 268 L288 130 L378 130 L395 266 C427 266 460 269 494 274 L460 0 Z " />
<glyph glyph-name="uni04B9" unicode="&#x4b9;" horiz-adv-x="528" d="M368 0 L466 0 L518 421 L420 421 L398 244 C377 239 354 237 330 238 L344 355 L264 355 L250 241 C237 240 217 243 205 250 C188 260 185 275 185 290 C185 294 186 302 189 330 L200 421 L102 421 L90 325 C88 310 85 276 85 268 C85 218 110 191 130 178 C156 160 201 151 239 153 L228 65 L308 65 L319 152 C341 152 364 155 388 159 L368 0 Z " />
<glyph glyph-name="uni04BA" unicode="&#x4ba;" horiz-adv-x="609" d="M264 667 L162 667 L80 0 L182 0 L220 309 C266 315 304 316 322 316 C400 316 425 303 435 296 C479 267 470 212 466 176 L444 0 L546 0 L569 187 C575 240 585 312 527 363 C480 403 403 410 347 410 C327 410 284 409 231 403 L264 667 Z " />
<glyph glyph-name="uni04BB" unicode="&#x4bb;" horiz-adv-x="486" d="M62 0 L160 0 L185 203 C191 253 200 296 226 321 C234 329 254 344 289 344 C307 344 326 339 339 327 C355 312 358 290 358 273 C358 269 358 254 353 217 L326 0 L424 0 L450 207 C457 261 459 279 459 294 C459 338 443 374 421 396 C403 414 372 432 321 432 C297 432 273 428 249 416 C229 406 215 394 207 385 L250 729 L152 729 L62 0 Z " />
<glyph glyph-name="uni04C0" unicode="&#x4c0;" horiz-adv-x="262" d="M162 667 L80 0 L182 0 L264 667 L162 667 Z " />
<glyph glyph-name="uni04C1" unicode="&#x4c1;" horiz-adv-x="850" d="M454 667 L421 398 L216 667 L96 668 L333 362 L4 0 L132 0 L394 294 L406 276 L372 0 L474 0 L508 276 L526 294 L716 0 L836 0 L603 357 L922 667 L794 667 L523 398 L556 667 L454 667 Z M362 832 C377 792 403 769 414 761 C448 735 487 730 521 730 C579 730 614 748 632 760 C652 773 676 795 692 832 L613 868 C607 852 595 837 581 827 C567 817 547 812 526 812 C501 812 480 819 467 830 C456 840 447 855 443 868 L362 832 Z " />
<glyph glyph-name="uni04C2" unicode="&#x4c2;" horiz-adv-x="622" d="M315 421 L296 265 L188 421 L72 421 L211 229 L2 0 L126 0 L274 169 L282 155 L263 0 L361 0 L380 155 L394 169 L500 0 L620 0 L469 227 L656 421 L540 421 L394 265 L413 421 L315 421 Z M223 603 C232 569 252 537 277 517 C308 492 344 485 377 485 C421 485 457 497 484 515 C507 531 534 559 547 603 L470 626 C466 609 455 589 439 577 C424 566 403 561 382 561 C365 561 346 564 329 580 C317 592 309 609 306 626 L223 603 Z " />
<glyph glyph-name="uni04C3" unicode="&#x4c3;" horiz-adv-x="592" d="M264 667 L162 667 L80 0 L182 0 L218 291 C273 306 301 306 339 306 C379 306 421 303 451 282 C484 258 490 225 490 198 C490 158 477 130 460 112 C434 85 403 83 374 83 C356 83 344 84 330 88 L319 -6 C336 -10 352 -11 376 -11 C423 -11 484 -5 531 39 C570 76 593 137 593 209 C593 255 584 304 542 343 C499 384 423 405 352 399 L648 667 L516 667 L231 403 L264 667 Z " />
<glyph glyph-name="uni04C4" unicode="&#x4c4;" horiz-adv-x="445" d="M114 421 L62 0 L160 0 L180 154 L192 154 C213 154 251 151 277 128 C288 118 308 95 308 48 C308 -2 287 -50 249 -82 C234 -95 207 -112 167 -118 L156 -208 C227 -202 279 -174 313 -148 C389 -89 410 -12 410 53 C410 111 392 148 373 172 C356 193 325 220 275 228 L482 421 L350 421 L192 264 L212 421 L114 421 Z " />
<glyph glyph-name="uni04C7" unicode="&#x4c7;" horiz-adv-x="638" d="M80 0 L182 0 L220 307 L506 307 L461 -48 C461 -73 453 -104 437 -120 C422 -135 404 -136 388 -136 C372 -136 360 -134 344 -128 L333 -221 C351 -225 378 -230 409 -230 C442 -230 488 -224 519 -193 C549 -163 556 -118 561 -76 L652 667 L550 667 L518 403 L232 403 L264 667 L162 667 L80 0 Z " />
<glyph glyph-name="uni04C8" unicode="&#x4c8;" horiz-adv-x="494" d="M62 0 L160 0 L181 175 L355 175 L325 -69 C323 -85 319 -111 305 -126 C291 -140 273 -142 261 -142 C244 -142 229 -139 215 -133 L204 -221 C227 -228 248 -230 271 -230 C301 -230 339 -226 369 -203 C408 -174 415 -132 421 -86 L484 421 L386 421 L367 265 L193 265 L212 421 L114 421 L62 0 Z " />
<glyph glyph-name="uni04D0" unicode="&#x4d0;" horiz-adv-x="656" d="M544 0 L652 0 L423 706 L4 0 L116 0 L209 161 L494 161 L544 0 Z M263 257 L393 483 L465 257 L263 257 Z M265 832 C280 792 306 769 317 761 C351 735 390 730 424 730 C482 730 517 748 535 760 C555 773 579 795 595 832 L516 868 C510 852 498 837 484 827 C470 817 450 812 429 812 C404 812 383 819 370 830 C359 840 350 855 346 868 L265 832 Z " />
<glyph glyph-name="uni04D1" unicode="&#x4d1;" horiz-adv-x="532" d="M418 372 C404 391 387 405 370 414 C346 427 321 432 293 432 C234 432 182 416 139 373 C88 322 66 249 66 185 C66 121 91 65 124 33 C145 13 182 -13 244 -13 C271 -13 300 -7 321 2 C342 11 363 29 377 44 L372 0 L470 0 L522 421 L424 421 L418 372 Z M298 344 C334 344 358 331 373 316 C394 295 406 262 406 227 C406 186 391 141 363 112 C345 94 315 75 271 75 C241 75 218 86 200 105 C181 125 167 156 167 193 C167 240 187 285 214 311 C231 327 258 344 298 344 L298 344 Z M154 603 C163 569 183 537 208 517 C239 492 275 485 308 485 C352 485 388 497 415 515 C438 531 465 559 478 603 L401 626 C397 609 386 589 370 577 C355 566 334 561 313 561 C296 561 277 564 260 580 C248 592 240 609 237 626 L154 603 Z " />
<glyph glyph-name="uni04D2" unicode="&#x4d2;" horiz-adv-x="656" d="M544 0 L652 0 L423 706 L4 0 L116 0 L209 161 L494 161 L544 0 Z M263 257 L393 483 L465 257 L263 257 Z M461 788 C461 773 466 758 477 748 C485 740 497 733 516 733 C535 733 552 740 565 752 C577 763 586 780 586 801 C586 819 579 833 570 842 C559 854 545 857 532 857 C510 857 493 848 482 837 C470 825 461 807 461 788 L461 788 Z M266 788 C266 773 271 758 282 748 C290 740 302 733 321 733 C340 733 357 740 370 752 C382 763 391 780 391 801 C391 819 384 833 375 842 C364 854 350 857 337 857 C315 857 298 848 287 837 C275 825 266 807 266 788 L266 788 Z " />
<glyph glyph-name="uni04D3" unicode="&#x4d3;" horiz-adv-x="532" d="M418 372 C404 391 387 405 370 414 C346 427 321 432 293 432 C234 432 182 416 139 373 C88 322 66 249 66 185 C66 121 91 65 124 33 C145 13 182 -13 244 -13 C271 -13 300 -7 321 2 C342 11 363 29 377 44 L372 0 L470 0 L522 421 L424 421 L418 372 Z M298 344 C334 344 358 331 373 316 C394 295 406 262 406 227 C406 186 391 141 363 112 C345 94 315 75 271 75 C241 75 218 86 200 105 C181 125 167 156 167 193 C167 240 187 285 214 311 C231 327 258 344 298 344 L298 344 Z M165 569 C160 535 185 507 219 507 C253 507 284 535 289 569 C293 603 268 631 234 631 C200 631 169 603 165 569 L165 569 Z M345 569 C340 535 365 507 399 507 C433 507 464 535 469 569 C473 603 448 631 414 631 C380 631 349 603 345 569 L345 569 Z " />
<glyph glyph-name="uni04D4" unicode="&#x4d4;" horiz-adv-x="926" d="M546 0 L916 0 L886 96 L621 96 L553 316 L811 316 L781 412 L523 412 L472 571 L737 571 L707 667 L412 667 L10 0 L120 0 L213 159 L496 159 L546 0 Z M269 255 L399 472 L467 255 L269 255 Z " />
<glyph glyph-name="uni04D5" unicode="&#x4d5;" horiz-adv-x="762" d="M140 328 C184 340 216 344 252 344 C276 344 303 341 322 327 C335 317 349 299 349 267 C349 260 349 252 347 243 C329 255 297 271 234 271 C171 271 126 251 99 225 C74 201 56 166 56 124 C56 73 80 38 106 19 C135 -3 174 -13 216 -13 C249 -13 286 -8 313 4 C336 14 360 31 379 55 C396 32 416 16 438 6 C468 -8 503 -13 531 -13 C579 -13 619 -1 649 17 C677 34 706 61 727 96 L650 142 C640 124 623 105 606 94 C587 82 562 75 539 75 C506 75 483 88 470 102 C450 123 439 157 439 187 L740 187 C744 206 745 223 745 236 C745 297 725 349 693 383 C653 424 606 432 566 432 C533 432 505 427 471 412 C448 402 431 390 414 374 C397 398 376 410 361 417 C335 428 298 432 270 432 C232 432 189 427 151 419 L140 328 Z M244 187 C261 187 286 185 305 172 C318 163 327 151 327 134 C327 119 321 101 299 87 C274 71 240 71 232 71 C201 71 184 80 175 86 C159 97 151 111 151 125 C151 138 156 153 169 164 C189 181 221 187 244 187 L244 187 Z M454 267 C462 287 476 309 493 323 C514 340 539 348 564 348 C588 348 611 340 625 325 C637 312 647 288 650 267 L454 267 Z " />
<glyph glyph-name="uni04D6" unicode="&#x4d6;" horiz-adv-x="500" d="M530 667 L162 667 L80 0 L448 0 L460 96 L194 96 L220 306 L478 306 L490 402 L232 402 L252 571 L518 571 L530 667 Z M197 832 C212 792 238 769 249 761 C283 735 322 730 356 730 C414 730 449 748 467 760 C487 773 511 795 527 832 L448 868 C442 852 430 837 416 827 C402 817 382 812 361 812 C336 812 315 819 302 830 C291 840 282 855 278 868 L197 832 Z " />
<glyph glyph-name="uni04D7" unicode="&#x4d7;" horiz-adv-x="489" d="M377 142 C367 124 350 105 333 94 C314 82 289 75 266 75 C233 75 210 88 197 102 C177 123 166 157 166 187 L467 187 C471 206 472 223 472 236 C472 297 452 350 420 383 C381 424 332 432 293 432 C230 432 180 410 139 370 C93 325 66 262 66 190 C66 124 90 73 123 40 C161 1 206 -13 258 -13 C314 -13 352 3 376 17 C404 34 433 61 454 96 L377 142 Z M181 267 C189 287 203 309 220 323 C241 340 266 348 291 348 C315 348 338 340 352 325 C364 312 374 288 377 267 L181 267 Z M147 603 C156 569 176 537 201 517 C232 492 268 485 301 485 C345 485 381 497 408 515 C431 531 458 559 471 603 L394 626 C390 609 379 589 363 577 C348 566 327 561 306 561 C289 561 270 564 253 580 C241 592 233 609 230 626 L147 603 Z " />
<glyph glyph-name="uni04D8" unicode="&#x4d8;" horiz-adv-x="750" d="M214 484 C227 500 253 531 295 555 C337 579 375 585 417 585 C475 585 529 572 575 525 C611 488 640 429 640 357 L91 357 C90 342 87 316 87 298 C87 221 111 135 170 74 C241 0 332 -13 402 -13 C503 -13 581 15 648 88 C704 150 743 237 743 357 C743 430 726 523 649 598 C584 661 509 679 420 679 C356 679 307 668 255 641 C235 630 183 601 133 544 L214 484 Z M626 263 C615 199 582 155 553 130 C505 89 450 81 403 81 C358 81 300 88 254 131 C225 158 198 203 194 263 L626 263 Z " />
<glyph glyph-name="afii10846" unicode="&#x4d9;" horiz-adv-x="489" d="M69 242 C67 225 66 209 66 194 C66 121 90 67 123 34 C161 -4 205 -13 255 -13 C303 -13 357 -6 406 43 C449 86 475 157 475 235 C475 279 465 337 417 382 C372 424 319 432 277 432 C235 432 199 423 164 403 C134 386 105 360 82 322 L171 292 C177 300 189 315 209 327 C230 340 249 343 272 343 C306 343 327 331 340 320 C358 304 372 274 373 242 L69 242 Z M362 162 C355 119 329 96 325 93 C305 76 282 71 257 71 C235 71 212 74 191 95 C175 112 165 137 163 162 L362 162 Z " />
<glyph glyph-name="uni04DA" unicode="&#x4da;" horiz-adv-x="750" d="M214 484 C227 500 253 531 295 555 C337 579 375 585 417 585 C475 585 529 572 575 525 C611 488 640 429 640 357 L91 357 C90 342 87 316 87 298 C87 221 111 135 170 74 C241 0 332 -13 402 -13 C503 -13 581 15 648 88 C704 150 743 237 743 357 C743 430 726 523 649 598 C584 661 509 679 420 679 C356 679 307 668 255 641 C235 630 183 601 133 544 L214 484 Z M626 263 C615 199 582 155 553 130 C505 89 450 81 403 81 C358 81 300 88 254 131 C225 158 198 203 194 263 L626 263 Z M473 788 C473 773 478 758 489 748 C497 740 509 733 528 733 C547 733 564 740 577 752 C589 763 598 780 598 801 C598 819 591 833 582 842 C571 854 557 857 544 857 C522 857 505 848 494 837 C482 825 473 807 473 788 L473 788 Z M278 788 C278 773 283 758 294 748 C302 740 314 733 333 733 C352 733 369 740 382 752 C394 763 403 780 403 801 C403 819 396 833 387 842 C376 854 362 857 349 857 C327 857 310 848 299 837 C287 825 278 807 278 788 L278 788 Z " />
<glyph glyph-name="uni04DB" unicode="&#x4db;" horiz-adv-x="489" d="M69 242 C67 225 66 209 66 194 C66 121 90 67 123 34 C161 -4 205 -13 255 -13 C303 -13 357 -6 406 43 C449 86 475 157 475 235 C475 279 465 337 417 382 C372 424 319 432 277 432 C235 432 199 423 164 403 C134 386 105 360 82 322 L171 292 C177 300 189 315 209 327 C230 340 249 343 272 343 C306 343 327 331 340 320 C358 304 372 274 373 242 L69 242 Z M362 162 C355 119 329 96 325 93 C305 76 282 71 257 71 C235 71 212 74 191 95 C175 112 165 137 163 162 L362 162 Z M145 569 C140 535 165 507 199 507 C233 507 264 535 269 569 C273 603 248 631 214 631 C180 631 149 603 145 569 L145 569 Z M325 569 C320 535 345 507 379 507 C413 507 444 535 449 569 C453 603 428 631 394 631 C360 631 329 603 325 569 L325 569 Z " />
<glyph glyph-name="uni04DC" unicode="&#x4dc;" horiz-adv-x="850" d="M454 667 L421 398 L216 667 L96 668 L333 362 L4 0 L132 0 L394 294 L406 276 L372 0 L474 0 L508 276 L526 294 L716 0 L836 0 L603 357 L922 667 L794 667 L523 398 L556 667 L454 667 Z M549 788 C549 773 554 758 565 748 C573 740 585 733 604 733 C623 733 640 740 653 752 C665 763 674 780 674 801 C674 819 667 833 658 842 C647 854 633 857 620 857 C598 857 581 848 570 837 C558 825 549 807 549 788 L549 788 Z M354 788 C354 773 359 758 370 748 C378 740 390 733 409 733 C428 733 445 740 458 752 C470 763 479 780 479 801 C479 819 472 833 463 842 C452 854 438 857 425 857 C403 857 386 848 375 837 C363 825 354 807 354 788 L354 788 Z " />
<glyph glyph-name="uni04DD" unicode="&#x4dd;" horiz-adv-x="622" d="M315 421 L296 265 L188 421 L72 421 L211 229 L2 0 L126 0 L274 169 L282 155 L263 0 L361 0 L380 155 L394 169 L500 0 L620 0 L469 227 L656 421 L540 421 L394 265 L413 421 L315 421 Z M227 569 C222 535 247 507 281 507 C315 507 346 535 351 569 C355 603 330 631 296 631 C262 631 231 603 227 569 L227 569 Z M407 569 C402 535 427 507 461 507 C495 507 526 535 531 569 C535 603 510 631 476 631 C442 631 411 603 407 569 L407 569 Z " />
<glyph glyph-name="uni04DE" unicode="&#x4de;" horiz-adv-x="565" d="M188 516 C203 534 224 552 245 564 C269 578 295 584 327 584 C355 584 386 579 407 564 C432 546 437 521 437 501 C437 467 424 446 410 433 C389 413 351 400 300 400 L244 400 L232 304 L292 304 C359 304 387 290 400 281 C419 268 439 245 439 202 C439 168 425 135 402 115 C374 91 326 82 287 82 C239 82 202 97 178 118 C159 135 141 163 133 194 L44 148 C65 91 100 53 132 30 C183 -6 232 -12 291 -12 C343 -12 420 -8 482 56 C519 94 541 144 541 209 C541 251 531 292 497 324 C481 339 459 351 436 359 C465 371 494 393 512 420 C533 452 538 485 538 513 C538 553 529 590 498 622 C448 674 374 678 339 678 C295 678 251 672 209 649 C183 635 150 608 125 581 L188 516 Z M403 788 C403 773 408 758 419 748 C427 740 439 733 458 733 C477 733 494 740 507 752 C519 763 528 780 528 801 C528 819 521 833 512 842 C501 854 487 857 474 857 C452 857 435 848 424 837 C412 825 403 807 403 788 L403 788 Z M208 788 C208 773 213 758 224 748 C232 740 244 733 263 733 C282 733 299 740 312 752 C324 763 333 780 333 801 C333 819 326 833 317 842 C306 854 292 857 279 857 C257 857 240 848 229 837 C217 825 208 807 208 788 L208 788 Z " />
</font>
</svg>
